STARTFONT 2.1
COMMENT
COMMENT Converted from OpenType font "FreeSerif.ttf" by "otf2bdf 3.0".
COMMENT
FONT -FreeType-FreeSerif-Bold-R-Normal--50-120-300-300-P-273-ISO10646-1
SIZE 12 300 300
FONTBOUNDINGBOX 126 68 -44 -22
STARTPROPERTIES 19
FOUNDRY "FreeType"
FAMILY_NAME "FreeSerif"
WEIGHT_NAME "Bold"
SLANT "R"
SETWIDTH_NAME "Normal"
ADD_STYLE_NAME ""
PIXEL_SIZE 50
POINT_SIZE 120
RESOLUTION_X 300
RESOLUTION_Y 300
SPACING "P"
AVERAGE_WIDTH 273
CHARSET_REGISTRY "ISO10646"
CHARSET_ENCODING "1"
FONT_ASCENT 45
FONT_DESCENT 10
COPYRIGHT "Copyright 2002, 2003, 2005, 2008, 2009, 2010, 2012 GNU Freefont contributors."
_OTF_FONTFILE "FreeSerif.ttf"
_OTF_PSNAME "FreeSerif"
ENDPROPERTIES
CHARS 6449
STARTCHAR 000D
ENCODING 13
SWIDTH 600 0
DWIDTH 30 0
BBX 0 0 0 0
BITMAP
ENDCHAR
STARTCHAR 0020
ENCODING 32
SWIDTH 260 0
DWIDTH 13 0
BBX 0 0 0 0
BITMAP
ENDCHAR
STARTCHAR 0021
ENCODING 33
SWIDTH 340 0
DWIDTH 17 0
BBX 5 34 7 0
BITMAP
30
78
F8
F8
F8
F8
F8
F8
F8
78
78
78
70
70
70
70
70
30
30
30
20
20
20
20
20
00
00
00
00
70
F8
F8
F8
78
ENDCHAR
STARTCHAR 0022
ENCODING 34
SWIDTH 400 0
DWIDTH 20 0
BBX 12 12 4 22
BITMAP
F0F0
F0F0
F0F0
F0F0
F0F0
F0F0
7070
6060
6060
6060
6060
6060
ENDCHAR
STARTCHAR 0023
ENCODING 35
SWIDTH 500 0
DWIDTH 25 0
BBX 25 33 0 0
BITMAP
00703800
00703800
00703800
00603800
00E03800
00E03800
00E03000
00E07000
00E07000
00C07F80
3FFFFF80
3FFFFF80
01C07000
01C06000
01C0E000
01C0E000
0180E000
0380E000
0380E000
FFFFFF00
FFFFFF00
FFFFFF00
0301C000
0701C000
0701C000
0701C000
0701C000
07038000
07038000
0E038000
0E038000
0E038000
0E038000
ENDCHAR
STARTCHAR 0024
ENCODING 36
SWIDTH 500 0
DWIDTH 25 0
BBX 20 40 3 -4
BITMAP
00C000
00C000
00C000
03F800
1FDF00
3CC7C0
78C1C0
70C0C0
F0C0C0
F0C040
F0C040
F0C000
F8C000
7CC000
7EC000
3FC000
3FC000
0FF000
07FC00
03FE00
00FF80
00FFC0
00CFE0
00C7E0
00C3E0
00C1F0
00C0F0
80C0F0
80C0F0
C0C0F0
C0C0E0
E0C1E0
E0C3C0
F0C780
3FFE00
0FF000
00C000
00C000
00C000
00C000
ENDCHAR
STARTCHAR 0025
ENCODING 37
SWIDTH 840 0
DWIDTH 42 0
BBX 35 33 3 0
BITMAP
00F8007000
03FE00E000
078F03E000
0F01FEC000
1E0101C000
3E01018000
7C01038000
7801030000
7801060000
F8030E0000
F0020C0000
F0021C0000
F006180000
F00C380000
F008300000
7018703F80
787060F8C0
3FC0C1E060
0701C3C020
000187C020
0003878020
00030F8020
00070F0020
00061F0060
000E1F0060
000C1E0040
00181E00C0
00381E0080
00301E0180
00701E0300
00600F0600
00E007FC00
00C003F000
ENDCHAR
STARTCHAR 0026
ENCODING 38
SWIDTH 780 0
DWIDTH 39 0
BBX 35 33 2 1
BITMAP
000FF00000
001C380000
00381C0000
00700C0000
00F00E0000
00F00E0000
00F00E0000
00F00C0000
00F01C0000
00F8380000
0078700000
0078E00000
007FC1FFC0
007F007F00
007E003C00
00FF003800
03DF003800
071F803000
1E0F806000
3C0FC06000
3807E0C000
7803E18000
7803F18000
F801FB0000
F800FE0000
F800FE0000
F8007F0000
F8003F8000
FC007FC020
7E01EFF0E0
7F87C7FFC0
3FFF03FF80
0FFC00FF00
ENDCHAR
STARTCHAR 0027
ENCODING 39
SWIDTH 200 0
DWIDTH 10 0
BBX 4 12 3 22
BITMAP
F0
F0
F0
F0
F0
F0
70
60
60
60
60
60
ENDCHAR
STARTCHAR 0028
ENCODING 40
SWIDTH 340 0
DWIDTH 17 0
BBX 12 41 2 -8
BITMAP
0030
0060
00C0
0180
0300
0700
0E00
1C00
1C00
3C00
3800
3800
7800
7800
7800
F000
F000
F000
F000
F000
F000
F000
F000
F000
F000
7000
7800
7800
7800
3800
3800
1C00
1C00
0C00
0E00
0600
0300
0180
00C0
0060
0030
ENDCHAR
STARTCHAR 0029
ENCODING 41
SWIDTH 340 0
DWIDTH 17 0
BBX 12 41 3 -8
BITMAP
C000
6000
3000
1800
0C00
0600
0700
0300
0380
0380
01C0
01C0
01E0
01E0
01E0
00E0
00F0
00F0
00F0
00F0
00F0
00F0
00F0
00F0
00F0
00F0
01E0
01E0
01E0
01C0
01C0
03C0
0380
0300
0700
0E00
0C00
1800
3000
6000
C000
ENDCHAR
STARTCHAR 002A
ENCODING 42
SWIDTH 500 0
DWIDTH 25 0
BBX 18 20 4 14
BITMAP
01C000
01E000
01E000
01C000
60C180
F083C0
F887C0
7C8F00
0EB800
01E000
01C000
06B800
7C9F00
F88FC0
F087C0
E0C380
01C000
01E000
01E000
01C000
ENDCHAR
STARTCHAR 002B
ENCODING 43
SWIDTH 560 0
DWIDTH 28 0
BBX 23 25 2 0
BITMAP
003800
003800
003800
003800
003800
003800
003800
003800
003800
003800
003800
FFFFFE
FFFFFE
FFFFFE
003800
003800
003800
003800
003800
003800
003800
003800
003800
003800
003800
ENDCHAR
STARTCHAR 002C
ENCODING 44
SWIDTH 240 0
DWIDTH 12 0
BBX 7 12 3 -7
BITMAP
78
FC
FE
FE
FE
06
06
04
0C
18
30
60
ENDCHAR
STARTCHAR 002D
ENCODING 45
SWIDTH 340 0
DWIDTH 17 0
BBX 12 3 2 10
BITMAP
FFF0
FFF0
FFF0
ENDCHAR
STARTCHAR 002E
ENCODING 46
SWIDTH 240 0
DWIDTH 12 0
BBX 5 5 4 0
BITMAP
70
F8
F8
F8
78
ENDCHAR
STARTCHAR 002F
ENCODING 47
SWIDTH 300 0
DWIDTH 15 0
BBX 15 34 0 0
BITMAP
001E
001C
001C
003C
0038
0038
0078
0070
0070
00F0
00E0
00E0
01E0
01C0
01C0
03C0
0380
0380
0780
0700
0700
0F00
0E00
0E00
1E00
1C00
1C00
3C00
3800
3800
7800
7000
7000
F000
ENDCHAR
STARTCHAR 0030
ENCODING 48
SWIDTH 500 0
DWIDTH 25 0
BBX 23 34 1 0
BITMAP
00FE00
038780
0701C0
0E01E0
1E00E0
1C00F0
3C0078
3C0078
780078
78007C
78003C
F8003C
F8003C
F8003C
F8003C
F8003E
F8003E
F8003E
F8003E
F8003E
F8003C
F8003C
F8003C
78003C
78003C
780078
380078
3C0078
3C0070
1C00F0
0E00E0
0F01C0
078380
01FF00
ENDCHAR
STARTCHAR 0031
ENCODING 49
SWIDTH 500 0
DWIDTH 25 0
BBX 13 34 6 0
BITMAP
0080
0380
0F80
3F80
CF80
0780
0780
0780
0780
0780
0780
0780
0780
0780
0780
0780
0780
0780
0780
0780
0780
0780
0780
0780
0780
0780
0780
0780
0780
0780
0780
0780
0FC0
7FF8
ENDCHAR
STARTCHAR 0032
ENCODING 50
SWIDTH 500 0
DWIDTH 25 0
BBX 22 34 2 0
BITMAP
007000
03FE00
0FFF00
1FFF80
3C1FC0
3007C0
6003E0
6003E0
C001E0
8001E0
0001E0
0001E0
0001E0
0001C0
0003C0
000380
000380
000700
000700
000E00
000C00
001800
003000
006000
00C000
018000
030000
060004
0C0008
0C0018
1FFFF0
3FFFF0
7FFFF0
FFFFE0
ENDCHAR
STARTCHAR 0033
ENCODING 51
SWIDTH 500 0
DWIDTH 25 0
BBX 20 34 2 0
BITMAP
01F800
07FE00
0FFF00
1C1F80
3007C0
6007C0
4003C0
8003C0
0003C0
000380
000380
000700
000C00
001C00
007E00
01FF80
03FFC0
003FE0
0007E0
0003F0
0001F0
0001F0
0000F0
0000F0
0000F0
0000F0
0000E0
0000E0
0001C0
0001C0
000380
F80700
FFBC00
7FF000
ENDCHAR
STARTCHAR 0034
ENCODING 52
SWIDTH 500 0
DWIDTH 25 0
BBX 23 33 1 0
BITMAP
0001C0
0001C0
0003C0
0007C0
000FC0
000FC0
001BC0
0033C0
0023C0
0063C0
00C3C0
0183C0
0183C0
0303C0
0603C0
0603C0
0C03C0
1803C0
3003C0
3003C0
6003C0
C003C0
FFFFFE
FFFFFE
FFFFFE
0003C0
0003C0
0003C0
0003C0
0003C0
0003C0
0003C0
0003C0
ENDCHAR
STARTCHAR 0035
ENCODING 53
SWIDTH 500 0
DWIDTH 25 0
BBX 20 34 2 0
BITMAP
000010
01FFE0
01FFE0
03FFE0
03FFC0
060000
060000
0C0000
0C0000
1F0000
1FE000
1FFC00
3FFE00
03FF00
007F80
001FC0
0007E0
0003E0
0003E0
0001E0
0001E0
0000E0
0000E0
0000E0
0000E0
0000E0
0000E0
0001C0
0001C0
000380
F80300
FC0600
FFBC00
7FF000
ENDCHAR
STARTCHAR 0036
ENCODING 54
SWIDTH 500 0
DWIDTH 25 0
BBX 22 34 2 1
BITMAP
0001F8
000F80
003E00
00F800
01F000
03E000
07C000
0F8000
1F0000
1F0000
3E0000
3E0000
7C0000
7C7F00
7DFFC0
FE07E0
FC03F0
F801F0
F800F8
F800F8
F80078
F8007C
F8007C
F8007C
F8007C
780078
780078
780078
3C0070
3C00F0
1E00E0
0F01C0
078380
01FF00
ENDCHAR
STARTCHAR 0037
ENCODING 55
SWIDTH 500 0
DWIDTH 25 0
BBX 21 33 2 0
BITMAP
3FFFF8
3FFFF8
7FFFF0
7FFFF0
600070
C000E0
8000E0
0000E0
0001C0
0001C0
0001C0
000380
000380
000380
000700
000700
000700
000E00
000E00
000E00
001C00
001C00
001C00
003C00
003800
003800
007800
007000
007000
00F000
00E000
00E000
01E000
ENDCHAR
STARTCHAR 0038
ENCODING 56
SWIDTH 500 0
DWIDTH 25 0
BBX 20 33 3 1
BITMAP
07FC00
1E0F00
3C0780
7803C0
7001C0
7001C0
F001C0
F001C0
F801C0
7803C0
7C0380
7E0700
3F8E00
1FDC00
0FF000
07F800
01FC00
07FF00
0E7F80
1C1FC0
380FC0
7807E0
F003E0
F001F0
F000F0
F000F0
F000F0
F000F0
7800E0
7801E0
3C03C0
1F0780
07FE00
ENDCHAR
STARTCHAR 0039
ENCODING 57
SWIDTH 500 0
DWIDTH 25 0
BBX 21 34 2 0
BITMAP
03FE00
0F0F00
1C0780
3C03C0
3801E0
7801E0
7801F0
F801F0
F800F0
F800F8
F800F8
F800F8
F800F8
F800F8
F800F8
7C00F8
7C00F8
3E01F8
1F86F8
0FFCF0
03F1F0
0001F0
0003E0
0003E0
0007C0
000780
000F80
001F00
003E00
007C00
00F000
03C000
1F0000
700000
ENDCHAR
STARTCHAR 003A
ENCODING 58
SWIDTH 260 0
DWIDTH 13 0
BBX 5 23 5 0
BITMAP
70
F8
F8
F8
78
00
00
00
00
00
00
00
00
00
00
00
00
00
70
F8
F8
F8
78
ENDCHAR
STARTCHAR 003B
ENCODING 59
SWIDTH 260 0
DWIDTH 13 0
BBX 7 30 4 -7
BITMAP
38
7C
7C
7C
3C
00
00
00
00
00
00
00
00
00
00
00
00
00
78
FC
FE
FE
FE
06
06
04
0C
18
30
60
ENDCHAR
STARTCHAR 003C
ENCODING 60
SWIDTH 560 0
DWIDTH 28 0
BBX 26 26 1 0
BITMAP
00000040
000001C0
000007C0
00001FC0
0000FF00
0003FC00
000FF000
003FC000
01FE0000
07F80000
1FE00000
7F800000
FE000000
F8000000
FE000000
3FC00000
0FF00000
03FC0000
00FF0000
003FC000
0007F800
0001FE00
00007F80
00001FC0
000007C0
000000C0
ENDCHAR
STARTCHAR 003D
ENCODING 61
SWIDTH 560 0
DWIDTH 28 0
BBX 25 13 2 6
BITMAP
FFFFFF80
FFFFFF80
FFFFFF80
00000000
00000000
00000000
00000000
00000000
00000000
00000000
FFFFFF80
FFFFFF80
FFFFFF80
ENDCHAR
STARTCHAR 003E
ENCODING 62
SWIDTH 560 0
DWIDTH 28 0
BBX 26 26 1 0
BITMAP
C0000000
F8000000
FE000000
7F800000
1FE00000
07F80000
00FF0000
003FC000
000FF000
0003FC00
0000FF00
00001FC0
000007C0
00001FC0
00007F80
0001FE00
0007F800
001FE000
00FF0000
03FC0000
0FF00000
3FC00000
FE000000
F8000000
E0000000
80000000
ENDCHAR
STARTCHAR 003F
ENCODING 63
SWIDTH 440 0
DWIDTH 22 0
BBX 18 33 3 1
BITMAP
0FF800
383E00
601F00
600F80
E00F80
E00780
E007C0
F007C0
600780
000780
000780
000F00
000F00
000E00
001E00
001C00
003800
003000
006000
006000
004000
00C000
00C000
008000
008000
000000
000000
000000
01C000
03E000
03E000
03E000
03E000
ENDCHAR
STARTCHAR 0040
ENCODING 64
SWIDTH 860 0
DWIDTH 43 0
BBX 35 33 4 1
BITMAP
0007FF8000
003E01E000
00F0003800
01E0001C00
03C0000E00
0780000700
0F00000380
1E00000180
3C003E70C0
3C00FF70C0
7801F1F0E0
7803C1E060
780780E060
F80780E060
F00F01E060
F00F01C060
F00E01C060
F01E01C060
F01E03C0C0
F01E0380C0
F81E0380C0
781E078180
781F0F8300
7C0F9B8600
3C0FF1FC00
1E03C0F800
1F00000000
0F80000000
07C0000000
03E0000000
00F8003C00
003FC7F000
000FFF8000
ENDCHAR
STARTCHAR 0041
ENCODING 65
SWIDTH 720 0
DWIDTH 36 0
BBX 34 34 1 0
BITMAP
0000800000
0000C00000
0001C00000
0001E00000
0001E00000
0003F00000
0003F00000
0007F00000
0006F80000
000EF80000
000C7C0000
000C7C0000
00183E0000
00183E0000
00381F0000
00301F0000
00301F0000
00600F8000
00600F8000
00C007C000
00C007C000
01FFFFE000
01FFFFE000
018003F000
030001F000
030001F000
070001F800
060000F800
0E0000FC00
0C00007C00
1C00007E00
1C00007E00
3E0000FF00
FFC003FFC0
ENDCHAR
STARTCHAR 0042
ENCODING 66
SWIDTH 640 0
DWIDTH 32 0
BBX 29 33 1 0
BITMAP
FFFFE000
1FFFFE00
07C07F00
07C00F80
07C007C0
07C007E0
07C003E0
07C003E0
07C003E0
07C003E0
07C003E0
07C003E0
07C007C0
07C00F80
07C03F00
07FFFC00
07FFFC00
07C07F80
07C00FC0
07C007E0
07C003F0
07C001F0
07C001F8
07C001F8
07C001F8
07C001F8
07C001F0
07C003F0
07C003E0
07C007E0
07C03FC0
1FFFFF00
FFFFF800
ENDCHAR
STARTCHAR 0043
ENCODING 67
SWIDTH 660 0
DWIDTH 33 0
BBX 30 34 2 0
BITMAP
0007F808
003FFFB8
00FC07F8
03F001F8
07C000F8
0F800078
1F800038
1F000018
3E000018
3E000018
7E000008
7C000000
7C000000
FC000000
FC000000
FC000000
FC000000
FC000000
FC000000
FC000000
FC000000
FC000000
7C000000
7E000000
7E000000
3E000000
3F000000
1F000000
1F80000C
0FC00038
07F00070
03FC01E0
00FFFF80
003FFE00
ENDCHAR
STARTCHAR 0044
ENCODING 68
SWIDTH 720 0
DWIDTH 36 0
BBX 34 33 1 0
BITMAP
FFFFE00000
3FFFFE0000
0F807F8000
0F800FE000
0F8003F000
0F8001F800
0F8000FC00
0F80007E00
0F80003F00
0F80003F00
0F80001F80
0F80001F80
0F80000F80
0F80000F80
0F80000F80
0F80000F80
0F80000FC0
0F80000F80
0F80000F80
0F80000F80
0F80000F80
0F80001F80
0F80001F00
0F80001F00
0F80003F00
0F80003E00
0F80007C00
0F8000F800
0F8001F000
0F8007E000
0F803F8000
3FFFFE0000
FFFFE00000
ENDCHAR
STARTCHAR 0045
ENCODING 69
SWIDTH 620 0
DWIDTH 31 0
BBX 29 33 1 0
BITMAP
FFFFFFC0
3FFFFFC0
0F8003C0
0F8000C0
0F8000C0
0F800040
0F800040
0F800000
0F800000
0F800000
0F800000
0F800200
0F800200
0F800600
0F801E00
0FFFFE00
0FFFFE00
0F800E00
0F800600
0F800200
0F800200
0F800000
0F800000
0F800000
0F800000
0F800018
0F800030
0F800030
0F800070
0F8000F0
0FC003E0
3FFFFFE0
FFFFFFE0
ENDCHAR
STARTCHAR 0046
ENCODING 70
SWIDTH 560 0
DWIDTH 28 0
BBX 26 33 1 0
BITMAP
FFFFFFC0
3FFFFFC0
0F8003C0
0F8000C0
0F8000C0
0F800040
0F800040
0F800000
0F800000
0F800000
0F800000
0F800200
0F800200
0F800600
0F801E00
0FFFFE00
0FFFFE00
0F800E00
0F800600
0F800200
0F800200
0F800000
0F800000
0F800000
0F800000
0F800000
0F800000
0F800000
0F800000
0F800000
0FC00000
3FE00000
FFF80000
ENDCHAR
STARTCHAR 0047
ENCODING 71
SWIDTH 720 0
DWIDTH 36 0
BBX 33 34 2 0
BITMAP
0007F80400
003FFF9C00
00FC03FC00
03F000FC00
07E0007C00
0F80003C00
1F80001C00
1F00000C00
3F00000C00
3E00000400
7E00000000
7E00000000
7C00000000
FC00000000
FC00000000
FC00000000
FC0007FF80
FC0001FE00
FC00007C00
FC00007C00
FC00007C00
FC00007C00
7C00007C00
7E00007C00
7E00007C00
3E00007C00
3F00007C00
1F00007C00
1F80007C00
0FC0007C00
07E0007C00
01F801FC00
007F8FF000
001FFF0000
ENDCHAR
STARTCHAR 0048
ENCODING 72
SWIDTH 720 0
DWIDTH 36 0
BBX 33 33 1 0
BITMAP
FFF80FFF80
3FE003FE00
0F8000F800
0F8000F800
0F8000F800
0F8000F800
0F8000F800
0F8000F800
0F8000F800
0F8000F800
0F8000F800
0F8000F800
0F8000F800
0F8000F800
0F8000F800
0FFFFFF800
0FFFFFF800
0F8000F800
0F8000F800
0F8000F800
0F8000F800
0F8000F800
0F8000F800
0F8000F800
0F8000F800
0F8000F800
0F8000F800
0F8000F800
0F8000F800
0F8000F800
0FC000FC00
3FE003FE00
FFF80FFF80
ENDCHAR
STARTCHAR 0049
ENCODING 73
SWIDTH 320 0
DWIDTH 16 0
BBX 13 33 2 0
BITMAP
FFF8
3FE0
0F80
0F80
0F80
0F80
0F80
0F80
0F80
0F80
0F80
0F80
0F80
0F80
0F80
0F80
0F80
0F80
0F80
0F80
0F80
0F80
0F80
0F80
0F80
0F80
0F80
0F80
0F80
0F80
0F80
1FC0
FFF8
ENDCHAR
STARTCHAR 004A
ENCODING 74
SWIDTH 380 0
DWIDTH 19 0
BBX 17 33 1 0
BITMAP
0FFF80
03FE00
00F800
00F800
00F800
00F800
00F800
00F800
00F800
00F800
00F800
00F800
00F800
00F800
00F800
00F800
00F800
00F800
00F800
00F800
00F800
00F800
00F800
00F800
00F800
00F800
00F800
00F800
70F000
F8F000
F8E000
FDC000
7F8000
ENDCHAR
STARTCHAR 004B
ENCODING 75
SWIDTH 700 0
DWIDTH 35 0
BBX 34 33 1 0
BITMAP
FFF83FFF00
3FE007F800
0F8003E000
0F80038000
0F80070000
0F800E0000
0F801C0000
0F80380000
0F80700000
0F80E00000
0F81C00000
0F83800000
0F87000000
0F9E000000
0FBE000000
0FFF000000
0FFF800000
0FDFC00000
0F8FC00000
0F87E00000
0F83F00000
0F81F80000
0F80FC0000
0F807E0000
0F803F0000
0F801F8000
0F801FC000
0F800FE000
0F8007F000
0F8003F800
0F8003FC00
3FE003FE00
FFF81FFFC0
ENDCHAR
STARTCHAR 004C
ENCODING 76
SWIDTH 620 0
DWIDTH 31 0
BBX 29 33 1 0
BITMAP
FFF80000
3FE00000
0FC00000
0F800000
0F800000
0F800000
0F800000
0F800000
0F800000
0F800000
0F800000
0F800000
0F800000
0F800000
0F800000
0F800000
0F800000
0F800000
0F800000
0F800000
0F800000
0F800000
0F800000
0F800000
0F800008
0F800018
0F800018
0F800030
0F800070
0F8000F0
0FC003F0
3FFFFFE0
FFFFFFE0
ENDCHAR
STARTCHAR 004D
ENCODING 77
SWIDTH 880 0
DWIDTH 44 0
BBX 42 33 1 0
BITMAP
FFC00000FFC0
1FE00000FF00
07E00001FE00
07F00001FC00
07F00001FC00
07F80003FC00
06F800037C00
06FC00077C00
067C00067C00
067C000E7C00
067E000C7C00
063E001C7C00
063F00187C00
061F00187C00
061F80387C00
060F80307C00
060FC0707C00
0607C0607C00
0607E0E07C00
0607E0C07C00
0603E0C07C00
0603F1807C00
0601F1807C00
0601FB807C00
0600FB007C00
0600FF007C00
06007E007C00
06007E007C00
06003C007C00
07003C007C00
0F0038007E00
1F801801FF00
7FE01807FFC0
ENDCHAR
STARTCHAR 004E
ENCODING 78
SWIDTH 720 0
DWIDTH 36 0
BBX 33 33 2 0
BITMAP
FF0001FF80
3F80007E00
1FC0003C00
0FE0001C00
0FE0001800
0FF0001800
0FF8001800
0DFC001800
0CFE001800
0C7E001800
0C3F001800
0C1F801800
0C1FC01800
0C0FE01800
0C07E01800
0C03F01800
0C01F81800
0C01FC1800
0C00FE1800
0C007E1800
0C003F1800
0C001F9800
0C001FD800
0C000FF800
0C0007F800
0C0003F800
0C0001F800
0C0001F800
0C0000F800
0E00007800
1E00003800
3F00001800
FFC0000800
ENDCHAR
STARTCHAR 004F
ENCODING 79
SWIDTH 720 0
DWIDTH 36 0
BBX 33 34 2 0
BITMAP
0007F00000
007FFE0000
00F81F8000
03E007E000
07C001F000
0F8000F800
1F0000F800
1F00007C00
3E00007E00
3E00003E00
7E00003F00
7C00003F00
FC00001F00
FC00001F00
FC00001F80
FC00001F80
FC00001F80
FC00001F80
FC00001F80
FC00001F80
FC00001F80
FC00001F00
7C00003F00
7E00003F00
7E00003F00
3E00003E00
3F00007E00
1F00007C00
0F8000F800
0F8001F000
07C003E000
01F007C000
00FF7F8000
003FFC0000
ENDCHAR
STARTCHAR 0050
ENCODING 80
SWIDTH 580 0
DWIDTH 29 0
BBX 27 33 1 0
BITMAP
FFFFC000
3FFFF800
0F80FE00
0F803F00
0F801F80
0F800FC0
0F8007C0
0F8007C0
0F8007C0
0F8007E0
0F8007C0
0F8007C0
0F8007C0
0F800F80
0F801F80
0F803F00
0F80FE00
0FFFF800
0FFF8000
0F800000
0F800000
0F800000
0F800000
0F800000
0F800000
0F800000
0F800000
0F800000
0F800000
0F800000
0F800000
3FC00000
FFF80000
ENDCHAR
STARTCHAR 0051
ENCODING 81
SWIDTH 720 0
DWIDTH 36 0
BBX 33 43 2 -9
BITMAP
0007F00000
007FFE0000
00F81F8000
03E007C000
07C001F000
0F8000F800
1F0000F800
1F00007C00
3E00007E00
3E00003E00
7E00003F00
7C00003F00
7C00001F00
FC00001F00
FC00001F80
FC00001F80
FC00001F80
FC00001F80
FC00001F80
FC00001F80
FC00001F80
FC00001F00
7C00001F00
7C00003F00
7E00003F00
7E00003E00
3E00007E00
1F00007C00
1F0000F800
0F8000F800
07C001F000
01E007C000
00FC1F8000
003FFE0000
000FF00000
0007F00000
0003F80000
0001FC0000
0000FF0000
00007F8000
00001FE000
000007F800
0000007F80
ENDCHAR
STARTCHAR 0052
ENCODING 82
SWIDTH 660 0
DWIDTH 33 0
BBX 32 33 1 0
BITMAP
FFFFC000
3FFFFC00
0F80FE00
0F801F80
0F800F80
0F800FC0
0F8007C0
0F8007C0
0F8007C0
0F8007C0
0F8007C0
0F8007C0
0F800FC0
0F801F80
0F803F00
0F81FE00
0FFFF800
0FFFC000
0F8FC000
0F87E000
0F83F000
0F81F800
0F80FC00
0F80FE00
0F807E00
0F803F00
0F801F80
0F800FC0
0F800FE0
0F8007F0
0F8003F0
3FE001FC
FFF800FF
ENDCHAR
STARTCHAR 0053
ENCODING 83
SWIDTH 520 0
DWIDTH 26 0
BBX 22 35 2 -1
BITMAP
03FC10
0FFFF0
1F07F0
3E01F0
3C0070
780070
780038
780018
7C0018
7C0008
7E0000
3F0000
3F8000
1FE000
1FF800
07FE00
03FF00
01FF80
007FE0
001FF0
0007F8
0003F8
0001FC
0000FC
8000FC
80007C
C0007C
E0007C
E0007C
F000F8
F800F0
7C01F0
7FDFC0
43FF80
401000
ENDCHAR
STARTCHAR 0054
ENCODING 84
SWIDTH 600 0
DWIDTH 30 0
BBX 28 33 1 0
BITMAP
FFFFFFF0
FFFFFFF0
FC0F81F0
E00F8070
E00F8030
C00F8030
C00F8010
800F8010
000F8000
000F8000
000F8000
000F8000
000F8000
000F8000
000F8000
000F8000
000F8000
000F8000
000F8000
000F8000
000F8000
000F8000
000F8000
000F8000
000F8000
000F8000
000F8000
000F8000
000F8000
000F8000
000F8000
003FC000
00FFF800
ENDCHAR
STARTCHAR 0055
ENCODING 85
SWIDTH 720 0
DWIDTH 36 0
BBX 33 33 1 0
BITMAP
FFF801FF80
3FE0007E00
0F80003C00
0F80001C00
0F80001800
0F80001800
0F80001800
0F80001800
0F80001800
0F80001800
0F80001800
0F80001800
0F80001800
0F80001800
0F80001800
0F80001800
0F80001800
0F80001800
0F80001800
0F80001800
0F80001800
0F80001800
0F80001800
0F80001800
0F80001800
0FC0001800
07C0003000
07C0003000
03E0006000
03F000E000
01F803C000
00FFFF8000
003FFE0000
ENDCHAR
STARTCHAR 0056
ENCODING 86
SWIDTH 700 0
DWIDTH 35 0
BBX 34 33 1 0
BITMAP
FFF801FFC0
3FC0003E00
1F80001C00
1F80001C00
0FC0001800
0FC0003800
07C0003800
07E0003000
03E0007000
03F0006000
01F000E000
01F800E000
00F800C000
00FC01C000
007C018000
007C038000
007E038000
003E030000
003F070000
001F060000
001F8E0000
000F8E0000
000FCC0000
0007DC0000
0007D80000
0007F80000
0003F80000
0003F00000
0001F00000
0001E00000
0000E00000
0000E00000
0000400000
ENDCHAR
STARTCHAR 0057
ENCODING 87
SWIDTH 940 0
DWIDTH 47 0
BBX 46 33 1 0
BITMAP
FFF1FFF00FFC
7F807F8003F0
1F803F0001E0
1F801F8001C0
0F800F8001C0
0F800F800180
07C00FC00180
07C007C00380
07C007C00300
03E003E00300
03E007E00600
03F007F00600
01F00FF00E00
01F00DF00C00
01F80CF80C00
00F81CF81C00
00FC18FC1800
007C187C1800
007C387C3800
007E307E3000
003E703E3000
003E603E6000
003F601F6000
001FE01FE000
001FC01FC000
001FC00FC000
000FC00FC000
000F800F8000
000F80078000
000780078000
000700030000
000300030000
000200030000
ENDCHAR
STARTCHAR 0058
ENCODING 88
SWIDTH 720 0
DWIDTH 36 0
BBX 34 33 1 0
BITMAP
FFFE03FFC0
1FF0007E00
0FE0007800
07F0007000
03F0006000
01F800C000
00F801C000
00FC038000
007E070000
003E060000
003F0C0000
001F9C0000
000FB80000
000FF00000
0007E00000
0003F00000
0003F00000
0003F80000
0007FC0000
000EFC0000
000C7E0000
001C3F0000
00381F8000
00701F8000
00E00FC000
01C007E000
01C007E000
038003F000
070003F800
0F0001FC00
1E0001FC00
3F0003FF00
FFE01FFFC0
ENDCHAR
STARTCHAR 0059
ENCODING 89
SWIDTH 700 0
DWIDTH 35 0
BBX 34 33 0 0
BITMAP
FFFC01FFC0
3FF0003F00
0FE0001E00
07E0001C00
07F0003800
03F0003000
01F8007000
00FC00E000
00FC00C000
007E01C000
003F038000
003F030000
001F870000
000FCE0000
000FCC0000
0007FC0000
0003F80000
0003F00000
0001F00000
0001F00000
0001F00000
0001F00000
0001F00000
0001F00000
0001F00000
0001F00000
0001F00000
0001F00000
0001F00000
0001F00000
0003F80000
0007FC0000
003FFF8000
ENDCHAR
STARTCHAR 005A
ENCODING 90
SWIDTH 620 0
DWIDTH 31 0
BBX 29 33 1 0
BITMAP
3FFFFFF0
3FFFFFF0
3C0007E0
30000FC0
70000FC0
60001F80
60003F00
40003E00
00007E00
0000FC00
0001F800
0001F800
0003F000
0007E000
0007C000
000FC000
001F8000
003F0000
003F0000
007E0000
00FC0000
00F80000
01F80000
03F00000
07E00008
07E00008
0FC00018
1F800018
3F800038
3F000070
7E0001F0
FFFFFFF0
FFFFFFF0
ENDCHAR
STARTCHAR 005B
ENCODING 91
SWIDTH 340 0
DWIDTH 17 0
BBX 10 41 4 -8
BITMAP
FFC0
F800
F000
F000
F000
F000
F000
F000
F000
F000
F000
F000
F000
F000
F000
F000
F000
F000
F000
F000
F000
F000
F000
F000
F000
F000
F000
F000
F000
F000
F000
F000
F000
F000
F000
F000
F000
F000
F000
F800
FFC0
ENDCHAR
STARTCHAR 005C
ENCODING 92
SWIDTH 300 0
DWIDTH 15 0
BBX 14 34 0 0
BITMAP
F000
F000
7000
7800
7800
3800
3C00
3C00
1C00
1E00
1E00
0E00
0E00
0F00
0700
0700
0780
0380
0380
03C0
01C0
01C0
01E0
00E0
00E0
00F0
0070
0070
0078
0038
0038
003C
001C
001C
ENDCHAR
STARTCHAR 005D
ENCODING 93
SWIDTH 340 0
DWIDTH 17 0
BBX 10 41 3 -8
BITMAP
FFC0
07C0
03C0
03C0
03C0
03C0
03C0
03C0
03C0
03C0
03C0
03C0
03C0
03C0
03C0
03C0
03C0
03C0
03C0
03C0
03C0
03C0
03C0
03C0
03C0
03C0
03C0
03C0
03C0
03C0
03C0
03C0
03C0
03C0
03C0
03C0
03C0
03C0
03C0
07C0
FFC0
ENDCHAR
STARTCHAR 005E
ENCODING 94
SWIDTH 460 0
DWIDTH 23 0
BBX 20 18 2 15
BITMAP
00F000
01F000
01F000
01F800
03B800
039C00
071C00
070E00
0E0E00
0E0700
1C0700
1C0380
380380
3801C0
7001C0
7000E0
E000E0
E00070
ENDCHAR
STARTCHAR 005F
ENCODING 95
SWIDTH 500 0
DWIDTH 25 0
BBX 25 3 0 -6
BITMAP
FFFFFF80
FFFFFF80
FFFFFF80
ENDCHAR
STARTCHAR 0060
ENCODING 96
SWIDTH 240 0
DWIDTH 12 0
BBX 11 8 1 26
BITMAP
F000
F800
7C00
3E00
0F00
0780
01C0
00E0
ENDCHAR
STARTCHAR 0061
ENCODING 97
SWIDTH 440 0
DWIDTH 22 0
BBX 21 23 1 1
BITMAP
07FC00
1C0E00
380F00
780700
780780
780780
300780
000780
000F80
007780
01C780
070780
1C0780
380780
780780
700780
F00780
F00780
F80780
F81F80
FFF7D8
7FE7F0
3F83E0
ENDCHAR
STARTCHAR 0062
ENCODING 98
SWIDTH 500 0
DWIDTH 25 0
BBX 22 34 1 0
BITMAP
060000
3E0000
FE0000
1E0000
1E0000
1E0000
1E0000
1E0000
1E0000
1E0000
1E0000
1E3F80
1E7FE0
1EFFF0
1F81F0
1F00F8
1E00F8
1E007C
1E007C
1E003C
1E003C
1E003C
1E003C
1E003C
1E003C
1E003C
1E0038
1E0038
1E0078
1E0070
1E00E0
1F00C0
0F8380
03FF00
ENDCHAR
STARTCHAR 0063
ENCODING 99
SWIDTH 440 0
DWIDTH 22 0
BBX 19 23 1 1
BITMAP
01FF00
070780
0E07C0
1C03E0
3803E0
7801C0
700000
700000
F00000
F00000
F00000
F00000
F00000
F00000
F80000
F80020
7C0020
7C0040
7F00C0
3F8380
1FFF00
0FFE00
07F800
ENDCHAR
STARTCHAR 0064
ENCODING 100
SWIDTH 500 0
DWIDTH 25 0
BBX 23 34 1 0
BITMAP
000030
0001F0
0007F0
0000F0
0000F0
0000F0
0000F0
0000F0
0000F0
0000F0
0000F0
03FCF0
0707F0
0E03F0
1C01F0
3800F0
3800F0
7800F0
7800F0
F000F0
F000F0
F000F0
F000F0
F000F0
F000F0
F800F0
F800F0
7800F0
7C00F0
7E00F0
3F01F8
1F87FE
0FFEF8
07F8E0
ENDCHAR
STARTCHAR 0065
ENCODING 101
SWIDTH 440 0
DWIDTH 22 0
BBX 20 23 1 1
BITMAP
03FE00
07BF00
0C0F80
1807C0
3803C0
7003E0
7003E0
7003E0
FFFFE0
F00000
F00000
F00000
F00000
F00000
F80000
F80010
7C0030
7C0060
7F00E0
3FC3C0
1FFF80
0FFF00
07FC00
ENDCHAR
STARTCHAR 0066
ENCODING 102
SWIDTH 380 0
DWIDTH 19 0
BBX 18 34 1 1
BITMAP
00FF80
0187C0
0383C0
070180
070000
070000
0F0000
0F0000
0F0000
0F0000
0F0000
FFFC00
FF0000
0F0000
0F0000
0F0000
0F0000
0F0000
0F0000
0F0000
0F0000
0F0000
0F0000
0F0000
0F0000
0F0000
0F0000
0F0000
0F0000
0F0000
0F0000
0F8000
1F8000
FFF000
ENDCHAR
STARTCHAR 0067
ENCODING 103
SWIDTH 460 0
DWIDTH 23 0
BBX 22 34 1 -10
BITMAP
03FF00
070FFC
0E07FC
1E03C0
1C03C0
3C03E0
3C01E0
3C01E0
3C01E0
3E01E0
3E01C0
1E01C0
1F03C0
0F8380
07CF00
03FC00
060000
0C0000
180000
3C0000
3FFF80
1FFFE0
0FFFF0
0C7FF8
180018
300008
700008
700008
F00018
F00010
F80060
7F03C0
3FFF00
1FFC00
ENDCHAR
STARTCHAR 0068
ENCODING 104
SWIDTH 500 0
DWIDTH 25 0
BBX 23 34 1 0
BITMAP
060000
3E0000
FE0000
1E0000
1E0000
1E0000
1E0000
1E0000
1E0000
1E0000
1E0000
1E3FC0
1E7FE0
1EE3E0
1F81F0
1F00F0
1E00F0
1E00F0
1E00F0
1E00F0
1E00F0
1E00F0
1E00F0
1E00F0
1E00F0
1E00F0
1E00F0
1E00F0
1E00F0
1E00F0
1E00F0
1F00F8
3F01FC
FFC7FE
ENDCHAR
STARTCHAR 0069
ENCODING 105
SWIDTH 280 0
DWIDTH 14 0
BBX 11 34 1 0
BITMAP
0E00
1F00
1F00
1F00
0E00
0000
0000
0000
0000
0000
0000
0700
1F00
7F00
0F00
0F00
0F00
0F00
0F00
0F00
0F00
0F00
0F00
0F00
0F00
0F00
0F00
0F00
0F00
0F00
0F00
0F80
1F80
FFE0
ENDCHAR
STARTCHAR 006A
ENCODING 106
SWIDTH 340 0
DWIDTH 17 0
BBX 13 45 0 -11
BITMAP
0070
00F8
00F8
00F8
0070
0000
0000
0000
0000
0000
0000
0038
00F8
03F8
0078
0078
0078
0078
0078
0078
0078
0078
0078
0078
0078
0078
0078
0078
0078
0078
0078
0078
0078
0078
0078
0078
0078
0078
0078
0078
0070
7070
F8E0
FCC0
7F80
ENDCHAR
STARTCHAR 006B
ENCODING 107
SWIDTH 520 0
DWIDTH 26 0
BBX 24 34 1 0
BITMAP
060000
3E0000
FE0000
1E0000
1E0000
1E0000
1E0000
1E0000
1E0000
1E0000
1E0000
1E07FE
1E01F0
1E01C0
1E0380
1E0600
1E0C00
1E1800
1E3000
1E6000
1EE000
1FF000
1EF800
1E7C00
1E3E00
1E3E00
1E1F00
1E0F80
1E07C0
1E07C0
1E03E0
1E01F0
3F01FC
FFC7FF
ENDCHAR
STARTCHAR 006C
ENCODING 108
SWIDTH 260 0
DWIDTH 13 0
BBX 11 34 0 0
BITMAP
0300
1F00
7F00
0F00
0F00
0F00
0F00
0F00
0F00
0F00
0F00
0F00
0F00
0F00
0F00
0F00
0F00
0F00
0F00
0F00
0F00
0F00
0F00
0F00
0F00
0F00
0F00
0F00
0F00
0F00
0F00
0F00
1F80
FFE0
ENDCHAR
STARTCHAR 006D
ENCODING 109
SWIDTH 780 0
DWIDTH 39 0
BBX 37 23 1 1
BITMAP
0E1F80FE00
3E3FC1FF00
FE63E70F80
1E81EC07C0
1F00F803C0
1E00F003C0
1E00F003C0
1E00F003C0
1E00F003C0
1E00F003C0
1E00F003C0
1E00F003C0
1E00F003C0
1E00F003C0
1E00F003C0
1E00F003C0
1E00F003C0
1E00F003C0
1E00F003C0
1E00F003C0
1E00F803C0
3F01F807E0
FFC7FE1FF8
ENDCHAR
STARTCHAR 006E
ENCODING 110
SWIDTH 480 0
DWIDTH 24 0
BBX 23 23 1 1
BITMAP
1E1FC0
FE7FE0
3EE3E0
1F81F0
1F00F0
1E00F0
1E00F0
1E00F0
1E00F0
1E00F0
1E00F0
1E00F0
1E00F0
1E00F0
1E00F0
1E00F0
1E00F0
1E00F0
1E00F0
1E00F0
1E00F0
3F01F8
FFC7FE
ENDCHAR
STARTCHAR 006F
ENCODING 111
SWIDTH 500 0
DWIDTH 25 0
BBX 23 23 1 1
BITMAP
03FF00
0707C0
1E03E0
1C01F0
3800F8
780078
78007C
F8007C
F8003C
F8003C
F8003E
F8003E
F8003E
F8003C
F8003C
78003C
7C003C
7C0078
3E0070
1E00F0
0F00E0
07C3C0
03FF00
ENDCHAR
STARTCHAR 0070
ENCODING 112
SWIDTH 500 0
DWIDTH 25 0
BBX 22 34 1 -10
BITMAP
0E3FC0
FE7FE0
7EFFF0
1F81F8
1F00F8
1E007C
1E007C
1E007C
1E003C
1E003C
1E003C
1E003C
1E003C
1E003C
1E003C
1E0038
1E0078
1E0078
1E0070
1E00E0
1F00E0
1FC3C0
1E7F00
1E0000
1E0000
1E0000
1E0000
1E0000
1E0000
1E0000
1E0000
1F0000
3F0000
FFE000
ENDCHAR
STARTCHAR 0071
ENCODING 113
SWIDTH 500 0
DWIDTH 25 0
BBX 23 35 1 -11
BITMAP
007800
03FE30
0783F0
0E01F0
1C00F0
3C00F0
3800F0
7800F0
7800F0
F000F0
F000F0
F000F0
F000F0
F000F0
F000F0
F800F0
F800F0
F800F0
7C00F0
7E00F0
3F03F0
3FFEF0
1FFCF0
0FF0F0
0000F0
0000F0
0000F0
0000F0
0000F0
0000F0
0000F0
0000F0
0001F0
0003FC
000FFE
ENDCHAR
STARTCHAR 0072
ENCODING 114
SWIDTH 340 0
DWIDTH 17 0
BBX 16 23 1 1
BITMAP
0E3F
7E7F
FEFF
1E80
1F00
1F00
1E00
1E00
1E00
1E00
1E00
1E00
1E00
1E00
1E00
1E00
1E00
1E00
1E00
1E00
1F00
3F80
FFE0
ENDCHAR
STARTCHAR 0073
ENCODING 115
SWIDTH 360 0
DWIDTH 18 0
BBX 14 23 2 1
BITMAP
1FF8
3078
6038
E018
E018
E008
F008
F800
7E00
7F00
3FC0
1FE0
07F0
03F8
00FC
807C
803C
C01C
C01C
C01C
E018
F038
FFE0
ENDCHAR
STARTCHAR 0074
ENCODING 116
SWIDTH 280 0
DWIDTH 14 0
BBX 12 29 2 0
BITMAP
0400
0400
0C00
1C00
1C00
3C00
FFE0
FC00
3C00
3C00
3C00
3C00
3C00
3C00
3C00
3C00
3C00
3C00
3C00
3C00
3C00
3C00
3C00
3C00
3C00
3E10
3F30
1FE0
0FC0
ENDCHAR
STARTCHAR 0075
ENCODING 117
SWIDTH 480 0
DWIDTH 24 0
BBX 23 23 1 0
BITMAP
FE07F0
3E01F0
1E00F0
1E00F0
1E00F0
1E00F0
1E00F0
1E00F0
1E00F0
1E00F0
1E00F0
1E00F0
1E00F0
1E00F0
1E00F0
1E00F0
1E00F0
1E00F0
1F01F0
1F03F8
0FFEFE
0FFCFE
03F8E0
ENDCHAR
STARTCHAR 0076
ENCODING 118
SWIDTH 460 0
DWIDTH 23 0
BBX 23 23 0 0
BITMAP
FFC0FE
3F003C
1F0018
1F0038
0F0030
0F8030
078060
078060
03C040
03C0C0
03E0C0
01E180
01E180
00F180
00F300
00FB00
007A00
007E00
003E00
003C00
001C00
001800
001800
ENDCHAR
STARTCHAR 0077
ENCODING 119
SWIDTH 680 0
DWIDTH 34 0
BBX 34 23 0 0
BITMAP
FF8FFC0FC0
7F03F00780
3E01F00300
1E01F00300
1E00F00300
1F00F00600
0F00F80600
0F80780C00
0780F80C00
0780FC0C00
07C1BC1800
03C19E1800
03C31E3000
01E31E3000
01E60F3000
01F60F6000
00F60F6000
00FC07C000
007C07C000
007803C000
0078038000
0030038000
0030010000
ENDCHAR
STARTCHAR 0078
ENCODING 120
SWIDTH 480 0
DWIDTH 24 0
BBX 23 23 1 0
BITMAP
FFCFF0
3F03C0
1F0380
0F0300
0F8600
07CE00
03CC00
03F800
01F800
00F000
00F800
007C00
00FC00
01BE00
019F00
031F00
060F80
0E07C0
0C07C0
1803E0
3803F0
7803F8
FE07FE
ENDCHAR
STARTCHAR 0079
ENCODING 121
SWIDTH 480 0
DWIDTH 24 0
BBX 23 34 0 -11
BITMAP
FFE07E
3F001C
1F0018
1F0018
0F0030
0F8030
078030
07C060
07C060
03C060
03E0C0
01E0C0
01F0C0
00F180
00F980
007900
007F00
003F00
003E00
003E00
001E00
001C00
000C00
001C00
001800
001800
003000
003000
007000
006000
3FC000
7FC000
7F8000
3F0000
ENDCHAR
STARTCHAR 007A
ENCODING 122
SWIDTH 420 0
DWIDTH 21 0
BBX 19 23 1 0
BITMAP
7FFFC0
7C07C0
600F80
400F00
401F00
403E00
003E00
007C00
00F800
00F800
01F000
03E000
03E000
07C000
0FC000
0F8000
1F0020
1F0020
3E0060
7C0060
7C00E0
F80FC0
FFFFC0
ENDCHAR
STARTCHAR 007B
ENCODING 123
SWIDTH 480 0
DWIDTH 24 0
BBX 12 43 5 -8
BITMAP
01F0
07C0
0780
0F00
0F00
0F00
0F00
0F00
0F00
0F00
0F00
0F00
0F00
0F00
0F00
0F00
0F00
0F00
0E00
1E00
3800
F000
3C00
1E00
0F00
0F00
0F00
0F00
0F00
0F00
0F00
0F00
0F00
0F00
0F00
0F00
0F00
0F00
0F00
0700
0780
03E0
00F0
ENDCHAR
STARTCHAR 007C
ENCODING 124
SWIDTH 200 0
DWIDTH 10 0
BBX 3 34 3 0
BITMAP
E0
E0
E0
E0
E0
E0
E0
E0
E0
E0
E0
E0
E0
E0
E0
E0
E0
E0
E0
E0
E0
E0
E0
E0
E0
E0
E0
E0
E0
E0
E0
E0
E0
E0
ENDCHAR
STARTCHAR 007D
ENCODING 125
SWIDTH 480 0
DWIDTH 24 0
BBX 11 43 7 -9
BITMAP
F000
7C00
1E00
1E00
0F00
0F00
0F00
0F00
0F00
0F00
0F00
0F00
0F00
0F00
0F00
0F00
0F00
0F00
0F00
0780
03C0
00E0
01C0
0780
0700
0F00
0F00
0F00
0F00
0F00
0F00
0F00
0F00
0F00
0F00
0F00
0F00
0F00
0F00
0F00
1E00
3E00
F800
ENDCHAR
STARTCHAR 007E
ENCODING 126
SWIDTH 500 0
DWIDTH 25 0
BBX 23 7 1 9
BITMAP
0F8000
3FE008
3FF81E
78FE3E
F03FFC
600FF8
0003E0
ENDCHAR
STARTCHAR 00A0
ENCODING 160
SWIDTH 260 0
DWIDTH 13 0
BBX 0 0 0 0
BITMAP
ENDCHAR
STARTCHAR 00A1
ENCODING 161
SWIDTH 340 0
DWIDTH 17 0
BBX 5 34 5 -10
BITMAP
F0
F8
F8
F8
70
00
00
00
00
20
20
20
20
60
60
60
60
60
70
70
70
70
F0
F0
F0
F8
F8
F8
F8
F8
F8
F8
F0
60
ENDCHAR
STARTCHAR 00A2
ENCODING 162
SWIDTH 500 0
DWIDTH 25 0
BBX 20 36 3 -7
BITMAP
0000C0
000180
000180
000100
000300
000300
01FF00
070780
0E07C0
1C0FE0
380FE0
7809E0
7018C0
701800
F01000
F03000
F03000
F02000
F06000
F06000
F84000
F8C010
7CC020
7E8060
3F80C0
3FC380
1FFF80
0FFF00
03FC00
060000
060000
060000
0C0000
0C0000
0C0000
180000
ENDCHAR
STARTCHAR 00A3
ENCODING 163
SWIDTH 500 0
DWIDTH 25 0
BBX 23 33 1 0
BITMAP
001FE0
0038F8
007078
00E07C
01E078
01C038
01C000
03C000
03C000
03C000
03C000
03C000
03C000
03C000
03C000
7FFF80
7FFF80
03E000
03E000
03E000
03E000
01C000
01C000
01C000
01C000
01C000
01C000
3FC002
7FE006
C3FFFC
837FFC
C63FF8
7C0FE0
ENDCHAR
STARTCHAR 00A4
ENCODING 164
SWIDTH 500 0
DWIDTH 25 0
BBX 27 27 -1 3
BITMAP
20000080
700001C0
F80003E0
7C3F87C0
3EFFEF80
1FFFFF00
0FE0FE00
07803E00
0F001E00
0F000F00
1E000F00
1E000700
1C000700
1C000700
1C000700
1E000700
1E000F00
0F000F00
0F001E00
07803E00
0FE0FE00
1FFFFF00
3EFFEF80
7C3F87C0
F80003E0
700001C0
20000080
ENDCHAR
STARTCHAR 00A5
ENCODING 165
SWIDTH 500 0
DWIDTH 25 0
BBX 26 33 -1 0
BITMAP
FFE07FC0
7F000F80
1F000E00
1F000C00
0F000C00
07801800
07801800
03C03000
03E03000
01E06000
01F06000
00F0C000
00F8C000
00798000
007D8000
1FFFFE00
1FFFFE00
001E0000
001E0000
001E0000
001E0000
001E0000
1FFFFE00
1FFFFE00
001E0000
001E0000
001E0000
001E0000
001E0000
001E0000
001F0000
003F8000
00FFE000
ENDCHAR
STARTCHAR 00A6
ENCODING 166
SWIDTH 200 0
DWIDTH 10 0
BBX 3 34 3 0
BITMAP
E0
E0
E0
E0
E0
E0
E0
E0
E0
E0
E0
E0
E0
E0
00
00
00
00
00
00
00
E0
E0
E0
E0
E0
E0
E0
E0
E0
E0
E0
E0
E0
ENDCHAR
STARTCHAR 00A7
ENCODING 167
SWIDTH 500 0
DWIDTH 25 0
BBX 19 41 3 -7
BITMAP
01FC00
060600
0C0380
180780
180780
380780
3C0300
3C0000
1E0000
1F8000
0FC000
07E000
03F000
01FC00
1FFE00
30FF00
603F80
E00F80
E007C0
E003C0
E001C0
F001E0
F800E0
7C00C0
3E00C0
3F81C0
1FE180
0FFF00
03F800
01FC00
007E00
003F00
000F00
000780
1C0780
3C0380
3C0380
3C0300
180700
0E0E00
03F800
ENDCHAR
STARTCHAR 00A8
ENCODING 168
SWIDTH 340 0
DWIDTH 17 0
BBX 15 5 1 26
BITMAP
701C
F83E
F83E
F83E
701C
ENDCHAR
STARTCHAR 00A9
ENCODING 169
SWIDTH 800 0
DWIDTH 40 0
BBX 37 37 1 -1
BITMAP
0007FF0000
001FFFC000
007E01F000
01F0003C00
03C0001E00
0700000700
0E00000380
1C000001C0
18000000C0
3801FF60E0
300781E060
600E00E070
601C006030
601C006030
C038002018
C038000018
C078000018
C078000018
C078000018
C078000018
C078000018
C078000018
E038000038
6038000030
603C000030
701E002070
300F004060
38078180E0
1801FE01C0
1C00000180
0E00000380
0780000F00
03C0001E00
01F0007800
007E03F000
001FFFC000
0003FE0000
ENDCHAR
STARTCHAR 00AA
ENCODING 170
SWIDTH 280 0
DWIDTH 14 0
BBX 13 19 1 15
BITMAP
7F80
E3C0
E1E0
E1E0
01E0
0FE0
39E0
71E0
E1E0
E1E0
F3E0
FEF8
78F0
0000
0000
0000
FFF0
FFF0
FFF0
ENDCHAR
STARTCHAR 00AB
ENCODING 171
SWIDTH 500 0
DWIDTH 25 0
BBX 21 19 2 2
BITMAP
002008
006018
00C030
01C070
0380E0
0701C0
0E0380
1C0700
3C0F00
F83E00
781E00
3C0F00
1E0780
0E0380
0701C0
0380E0
01C070
00C030
006018
ENDCHAR
STARTCHAR 00AC
ENCODING 172
SWIDTH 560 0
DWIDTH 28 0
BBX 24 13 2 6
BITMAP
FFFFFF
FFFFFF
FFFFFF
000007
000007
000007
000007
000007
000007
000007
000007
000007
000007
ENDCHAR
STARTCHAR 00AD
ENCODING 173
SWIDTH 340 0
DWIDTH 17 0
BBX 12 3 2 10
BITMAP
FFF0
FFF0
FFF0
ENDCHAR
STARTCHAR 00AE
ENCODING 174
SWIDTH 800 0
DWIDTH 40 0
BBX 37 37 1 -1
BITMAP
0007FF0000
001FFFC000
007E01F000
01F0003C00
03C0001E00
0700000700
0E00000380
1C000001C0
18000000C0
381FFC00E0
30079F0060
600703C070
600701C030
600701C030
C00701C018
C00701C018
C00701C018
C007038018
C0071F0018
C007F80018
C0073C0018
C0071E0018
E0070E0038
6007070030
6007078030
700703C070
300701E060
380700F0E0
181FC07DC0
1C00000180
0E00000380
0780000F00
03C0001E00
01F0007800
007E03F000
001FFFC000
0003FE0000
ENDCHAR
STARTCHAR 00AF
ENCODING 175
SWIDTH 340 0
DWIDTH 17 0
BBX 16 3 1 27
BITMAP
FFFF
FFFF
FFFF
ENDCHAR
STARTCHAR 00B0
ENCODING 176
SWIDTH 400 0
DWIDTH 20 0
BBX 14 14 3 20
BITMAP
0780
1FE0
3870
6038
E018
C00C
C00C
C00C
C00C
C01C
6018
3030
1FE0
0FC0
ENDCHAR
STARTCHAR 00B1
ENCODING 177
SWIDTH 560 0
DWIDTH 28 0
BBX 25 31 2 0
BITMAP
00380000
00380000
00380000
00380000
00380000
00380000
00380000
00380000
00380000
00380000
00380000
FFFFFE00
FFFFFE00
FFFFFE00
00380000
00380000
00380000
00380000
00380000
00380000
00380000
00380000
00380000
00380000
00380000
00000000
00000000
00000000
FFFFFF80
FFFFFF80
FFFFFF80
ENDCHAR
STARTCHAR 00B2
ENCODING 178
SWIDTH 320 0
DWIDTH 16 0
BBX 15 23 1 20
BITMAP
0300
1FE0
3FF0
70F8
6078
C038
8038
0038
0038
0038
0070
0070
0060
00C0
0180
0300
0600
0400
0802
1004
3FFC
7FFC
FFF8
ENDCHAR
STARTCHAR 00B3
ENCODING 179
SWIDTH 320 0
DWIDTH 16 0
BBX 13 23 2 19
BITMAP
1FC0
3FE0
60F0
4070
8070
0070
0060
00C0
0180
07E0
0FF0
01F0
0078
0078
0038
0038
0038
0030
0030
0060
00E0
FF80
FE00
ENDCHAR
STARTCHAR 00B4
ENCODING 180
SWIDTH 240 0
DWIDTH 12 0
BBX 11 9 1 25
BITMAP
0040
01E0
03E0
07E0
0F80
1F00
3C00
7000
E000
ENDCHAR
STARTCHAR 00B5
ENCODING 181
SWIDTH 500 0
DWIDTH 25 0
BBX 23 34 2 -11
BITMAP
7801E0
7801E0
7801E0
7801E0
7801E0
7801E0
7801E0
7801E0
7801E0
7801E0
7801E0
7801E0
7801E0
7801E0
7801E0
7801E0
7801E0
7801E0
7C03E0
7E07E0
7FFDF0
6FF8FE
67F0FC
600000
700000
F00000
F00000
F00000
F00000
F80000
F80000
F80000
F00000
700000
ENDCHAR
STARTCHAR 00B6
ENCODING 182
SWIDTH 480 0
DWIDTH 24 0
BBX 23 41 0 -8
BITMAP
03FFFE
1F38F8
3C38F0
7838E0
7038E0
F038E0
F038E0
F038E0
F038E0
F038E0
F038E0
F038E0
F038E0
7038E0
7838E0
3838E0
3C38E0
0F38E0
03F8E0
0038E0
0038E0
0038E0
0038E0
0038E0
0038E0
0038E0
0038E0
0038E0
0038E0
0038E0
0038E0
0038E0
0038E0
0038E0
0038E0
0038E0
0038E0
0038E0
0078F0
00F8F8
03F8FE
ENDCHAR
STARTCHAR 00B7
ENCODING 183
SWIDTH 240 0
DWIDTH 12 0
BBX 5 5 4 9
BITMAP
70
F8
F8
F8
70
ENDCHAR
STARTCHAR 00B8
ENCODING 184
SWIDTH 340 0
DWIDTH 17 0
BBX 10 11 3 -11
BITMAP
1800
1800
1000
3F00
3F80
07C0
03C0
03C0
0780
FF80
FE00
ENDCHAR
STARTCHAR 00B9
ENCODING 185
SWIDTH 320 0
DWIDTH 16 0
BBX 9 23 4 20
BITMAP
0C00
3C00
FC00
1C00
1C00
1C00
1C00
1C00
1C00
1C00
1C00
1C00
1C00
1C00
1C00
1C00
1C00
1C00
1C00
1C00
1C00
3E00
FF80
ENDCHAR
STARTCHAR 00BA
ENCODING 186
SWIDTH 300 0
DWIDTH 15 0
BBX 16 19 0 15
BITMAP
0FF0
3C3C
701E
701E
F00F
F00F
F00F
F00F
F80E
780E
3C1C
1FF8
07E0
0000
0000
0000
7FFC
7FFC
7FFC
ENDCHAR
STARTCHAR 00BB
ENCODING 187
SWIDTH 500 0
DWIDTH 25 0
BBX 21 19 2 1
BITMAP
802000
E03800
701C00
380E00
1C0700
0E0380
0F03C0
0781E0
03C0F0
03E0F8
0781E0
0701C0
0E0380
1C0700
380E00
701C00
601800
C03000
802000
ENDCHAR
STARTCHAR 00BC
ENCODING 188
SWIDTH 740 0
DWIDTH 37 0
BBX 34 37 2 0
BITMAP
0C00000000
3C00000000
FC00000000
1C0000E000
1C0000C000
1C00018000
1C00038000
1C00030000
1C00060000
1C000E0000
1C000C0000
1C001C0000
1C00380000
1C00300000
1C00700600
1C00600E00
1C00C01E00
1C01C01E00
1C01802E00
1C03006E00
1C07004E00
3E06008E00
FF8C018E00
001C010E00
0018020E00
0030040E00
0070040E00
0060080E00
00C0100E00
01C01FFFC0
01801FFFC0
0300000E00
0700000E00
0600000E00
0E00000E00
1C00000E00
1800000000
ENDCHAR
STARTCHAR 00BD
ENCODING 189
SWIDTH 760 0
DWIDTH 38 0
BBX 36 37 2 0
BITMAP
0C00000000
3C00000000
FC00000000
1C0000E000
1C0000C000
1C00018000
1C00038000
1C00030000
1C00060000
1C000E0000
1C000C0000
1C001C0000
1C00380000
1C00301800
1C0070FF00
1C0061FF80
1C00C387C0
1C01C303C0
1C018601C0
1C030401C0
1C070001C0
3E060001C0
FF8C0001C0
001C000380
0018000380
0030000300
0070000600
0060000C00
00C0001800
01C0003000
0180002000
0300004010
0700008020
060001FFE0
0E0003FFE0
1C0007FFC0
1800000000
ENDCHAR
STARTCHAR 00BE
ENCODING 190
SWIDTH 760 0
DWIDTH 38 0
BBX 34 36 2 0
BITMAP
1FC0000000
3FE0000000
60F0003800
4070003000
8070006000
007000E000
006000C000
00C0018000
0180038000
07E0030000
0FF0070000
01F00E0000
00780C0000
00781C0600
0038180E00
0038301E00
0038701E00
0030602E00
0030C06E00
0061C04E00
00E1808E00
FF83018E00
FE07010E00
0006020E00
000C040E00
001C040E00
0018080E00
0030100E00
00701FFFC0
00601FFFC0
00C0000E00
01C0000E00
0180000E00
0380000E00
0700000E00
0600000000
ENDCHAR
STARTCHAR 00BF
ENCODING 191
SWIDTH 440 0
DWIDTH 22 0
BBX 18 33 1 -9
BITMAP
01E000
01F000
01F000
01F000
00E000
000000
000000
000000
004000
004000
00C000
00C000
008000
018000
018000
030000
070000
0E0000
1E0000
1C0000
3C0000
3C0000
780000
780000
F80180
F803C0
F801C0
7801C0
7801C0
7C0180
3E0180
1F0700
07FC00
ENDCHAR
STARTCHAR 00C0
ENCODING 192
SWIDTH 720 0
DWIDTH 36 0
BBX 34 44 1 1
BITMAP
003C000000
003E000000
001F000000
000F800000
0003C00000
0001E00000
0000700000
0000380000
0000000000
0000000000
0000800000
0000C00000
0001C00000
0001E00000
0001E00000
0003F00000
0003F00000
0007F00000
0006F80000
000EF80000
000C7C0000
000C7C0000
00183E0000
00183E0000
00381F0000
00301F0000
00301F0000
00600F8000
00600F8000
00C007C000
00C007C000
01FFFFE000
01FFFFE000
018003F000
030001F000
030001F000
070001F800
060000F800
0E0000FC00
0C00007C00
1C00007E00
1C00007E00
3E0000FF00
FFC003FFC0
ENDCHAR
STARTCHAR 00C1
ENCODING 193
SWIDTH 720 0
DWIDTH 36 0
BBX 34 45 1 0
BITMAP
0000010000
0000078000
00000F8000
00001F8000
00003E0000
00007C0000
0000F00000
0001C00000
0003800000
0000000000
0000000000
0000800000
0000C00000
0001C00000
0001E00000
0001E00000
0003F00000
0003F00000
0007F00000
0006F80000
000EF80000
000C7C0000
000C7C0000
00183E0000
00183E0000
00381F0000
00301F0000
00301F0000
00600F8000
00600F8000
00C007C000
00C007C000
01FFFFE000
01FFFFE000
018003F000
030001F000
030001F000
070001F800
060000F800
0E0000FC00
0C00007C00
1C00007E00
1C00007E00
3E0000FF00
FFC003FFC0
ENDCHAR
STARTCHAR 00C2
ENCODING 194
SWIDTH 720 0
DWIDTH 36 0
BBX 34 44 1 0
BITMAP
0001E00000
0001F00000
0003F80000
0007B80000
000F1C0000
000C0E0000
0018070000
0030030000
0000008000
0000000000
0000800000
0000C00000
0001C00000
0001E00000
0001E00000
0003F00000
0003F00000
0007F00000
0006F80000
000EF80000
000C7C0000
000C7C0000
00183E0000
00183E0000
00381F0000
00301F0000
00301F0000
00600F8000
00600F8000
00C007C000
00C007C000
01FFFFE000
01FFFFE000
018003F000
030001F000
030001F000
070001F800
060000F800
0E0000FC00
0C00007C00
1C00007E00
1C00007E00
3E0000FF00
FFC003FFC0
ENDCHAR
STARTCHAR 00C3
ENCODING 195
SWIDTH 720 0
DWIDTH 36 0
BBX 34 42 1 0
BITMAP
0000008000
001F818000
003FF30000
0077FF0000
0060FE0000
0000000000
0000000000
0000000000
0000800000
0000C00000
0001C00000
0001E00000
0001E00000
0003F00000
0003F00000
0007F00000
0006F80000
000EF80000
000C7C0000
000C7C0000
00183E0000
00183E0000
00381F0000
00301F0000
00301F0000
00600F8000
00600F8000
00C007C000
00C007C000
01FFFFE000
01FFFFE000
018003F000
030001F000
030001F000
070001F800
060000F800
0E0000FC00
0C00007C00
1C00007E00
1C00007E00
3E0000FF00
FFC003FFC0
ENDCHAR
STARTCHAR 00C4
ENCODING 196
SWIDTH 720 0
DWIDTH 36 0
BBX 34 42 1 0
BITMAP
0018040000
003C0F0000
003E1F0000
003E0F0000
003C0F0000
0000000000
0000000000
0000000000
0000800000
0000C00000
0001C00000
0001E00000
0001E00000
0003F00000
0003F00000
0007F00000
0006F80000
000EF80000
000C7C0000
000C7C0000
00183E0000
00183E0000
00381F0000
00301F0000
00301F0000
00600F8000
00600F8000
00C007C000
00C007C000
01FFFFE000
01FFFFE000
018003F000
030001F000
030001F000
070001F800
060000F800
0E0000FC00
0C00007C00
1C00007E00
1C00007E00
3E0000FF00
FFC003FFC0
ENDCHAR
STARTCHAR 00C5
ENCODING 197
SWIDTH 720 0
DWIDTH 36 0
BBX 34 45 1 0
BITMAP
0000C00000
0007F00000
000E180000
000C0C0000
00080C0000
00080C0000
000C0C0000
000C1C0000
0007F80000
0003E00000
0000000000
0000800000
0000C00000
0001C00000
0001E00000
0001E00000
0003F00000
0003F00000
0007F00000
0006F80000
000EF80000
000C7C0000
000C7C0000
00183E0000
00183E0000
00381F0000
00301F0000
00301F0000
00600F8000
00600F8000
00C007C000
00C007C000
01FFFFE000
01FFFFE000
018003F000
030001F000
030001F000
070001F800
060000F800
0E0000FC00
0C00007C00
1C00007E00
1C00007E00
3E0000FF00
FFC003FFC0
ENDCHAR
STARTCHAR 00C6
ENCODING 198
SWIDTH 880 0
DWIDTH 44 0
BBX 43 33 0 0
BITMAP
0007FFFFFF80
0000FFFFFF80
00007F800780
00006F800180
00006F800180
0000CF800080
0000CF800080
00018F800000
00018F800000
00030F800000
00030F800000
00060F800200
00060F800200
000C0F800600
000C0F800E00
00180FFFFE00
00180FFFFE00
00300F800E00
003FFF800600
007FFF800600
00600F800200
00E00F800200
00C00F800000
01C00F800000
01800F800000
03800F800020
03000F800060
07000F8000E0
06000F8000C0
0E000F8001C0
1E000F8007C0
3F003FFFFFC0
FFC0FFFFFF80
ENDCHAR
STARTCHAR 00C7
ENCODING 199
SWIDTH 680 0
DWIDTH 34 0
BBX 30 45 2 -11
BITMAP
0007F808
003FFFB8
00FC07F8
03F001F8
07C000F8
0F800078
1F800038
1F000018
3E000018
3E000018
7E000008
7C000000
7C000000
FC000000
FC000000
FC000000
FC000000
FC000000
FC000000
FC000000
FC000000
FC000000
7C000000
7E000000
7E000000
3E000000
3F000000
1F000000
1F80000C
0FC00038
07F00070
03FC01E0
00FFFF80
003FFE00
00060000
00060000
00040000
000FC000
000FE000
0001F000
0000F000
0000F000
0001E000
003FE000
003F8000
ENDCHAR
STARTCHAR 00C8
ENCODING 200
SWIDTH 620 0
DWIDTH 31 0
BBX 29 44 1 1
BITMAP
01E00000
01F00000
00F80000
007C0000
001E0000
000F0000
00038000
0001C000
00000000
00000000
00000000
FFFFFFC0
3FFFFFC0
0F8003C0
0F8000C0
0F8000C0
0F800040
0F800040
0F800000
0F800000
0F800000
0F800000
0F800200
0F800200
0F800600
0F801E00
0FFFFE00
0FFFFE00
0F800E00
0F800600
0F800200
0F800200
0F800000
0F800000
0F800000
0F800000
0F800018
0F800030
0F800030
0F800070
0F8000F0
0FC003E0
3FFFFFE0
FFFFFFE0
ENDCHAR
STARTCHAR 00C9
ENCODING 201
SWIDTH 620 0
DWIDTH 31 0
BBX 29 45 1 0
BITMAP
00002000
0000F000
0001F000
0003F000
0007C000
000F8000
001E0000
00380000
00700000
00000000
00000000
00000000
FFFFFFC0
3FFFFFC0
0F8003C0
0F8000C0
0F8000C0
0F800040
0F800040
0F800000
0F800000
0F800000
0F800000
0F800200
0F800200
0F800600
0F801E00
0FFFFE00
0FFFFE00
0F800E00
0F800600
0F800200
0F800200
0F800000
0F800000
0F800000
0F800000
0F800018
0F800030
0F800030
0F800070
0F8000F0
0FC003E0
3FFFFFE0
FFFFFFE0
ENDCHAR
STARTCHAR 00CA
ENCODING 202
SWIDTH 620 0
DWIDTH 31 0
BBX 29 44 1 0
BITMAP
00078000
000F8000
001FC000
001DE000
0038F000
00703000
00E01800
00C00C00
01000000
00000000
00000000
FFFFFFC0
3FFFFFC0
0F8003C0
0F8000C0
0F8000C0
0F800040
0F800040
0F800000
0F800000
0F800000
0F800000
0F800200
0F800200
0F800600
0F801E00
0FFFFE00
0FFFFE00
0F800E00
0F800600
0F800200
0F800200
0F800000
0F800000
0F800000
0F800000
0F800018
0F800030
0F800030
0F800070
0F8000F0
0FC003E0
3FFFFFE0
FFFFFFE0
ENDCHAR
STARTCHAR 00CB
ENCODING 203
SWIDTH 620 0
DWIDTH 31 0
BBX 29 42 1 0
BITMAP
00401000
01F07800
01F07C00
01F07C00
00E07800
00000000
00000000
00000000
00000000
FFFFFFC0
3FFFFFC0
0F8003C0
0F8000C0
0F8000C0
0F800040
0F800040
0F800000
0F800000
0F800000
0F800000
0F800200
0F800200
0F800600
0F801E00
0FFFFE00
0FFFFE00
0F800E00
0F800600
0F800200
0F800200
0F800000
0F800000
0F800000
0F800000
0F800018
0F800030
0F800030
0F800070
0F8000F0
0FC003E0
3FFFFFE0
FFFFFFE0
ENDCHAR
STARTCHAR 00CC
ENCODING 204
SWIDTH 320 0
DWIDTH 16 0
BBX 13 44 2 1
BITMAP
F000
F800
7C00
3E00
0F00
0780
01C0
00E0
0000
0000
0000
FFF8
3FE0
0F80
0F80
0F80
0F80
0F80
0F80
0F80
0F80
0F80
0F80
0F80
0F80
0F80
0F80
0F80
0F80
0F80
0F80
0F80
0F80
0F80
0F80
0F80
0F80
0F80
0F80
0F80
0F80
0F80
1FC0
FFF8
ENDCHAR
STARTCHAR 00CD
ENCODING 205
SWIDTH 320 0
DWIDTH 16 0
BBX 13 45 2 0
BITMAP
0010
0078
00F8
01F8
03E0
07C0
0F00
1C00
3800
0000
0000
0000
FFF8
3FE0
0F80
0F80
0F80
0F80
0F80
0F80
0F80
0F80
0F80
0F80
0F80
0F80
0F80
0F80
0F80
0F80
0F80
0F80
0F80
0F80
0F80
0F80
0F80
0F80
0F80
0F80
0F80
0F80
0F80
1FC0
FFF8
ENDCHAR
STARTCHAR 00CE
ENCODING 206
SWIDTH 320 0
DWIDTH 16 0
BBX 15 44 1 0
BITMAP
03C0
07C0
0FE0
0EF0
1C78
3818
700C
6006
8000
0000
0000
7FFC
1FF0
07C0
07C0
07C0
07C0
07C0
07C0
07C0
07C0
07C0
07C0
07C0
07C0
07C0
07C0
07C0
07C0
07C0
07C0
07C0
07C0
07C0
07C0
07C0
07C0
07C0
07C0
07C0
07C0
07C0
0FE0
7FFC
ENDCHAR
STARTCHAR 00CF
ENCODING 207
SWIDTH 320 0
DWIDTH 16 0
BBX 15 42 1 0
BITMAP
2008
F83E
F83E
F83E
701C
0000
0000
0000
0000
7FFC
1FF0
07C0
07C0
07C0
07C0
07C0
07C0
07C0
07C0
07C0
07C0
07C0
07C0
07C0
07C0
07C0
07C0
07C0
07C0
07C0
07C0
07C0
07C0
07C0
07C0
07C0
07C0
07C0
07C0
07C0
0FE0
7FFC
ENDCHAR
STARTCHAR 00D0
ENCODING 208
SWIDTH 720 0
DWIDTH 36 0
BBX 33 33 1 0
BITMAP
FFFFE00000
3FFFFE0000
0F807FC000
0F800FE000
0F8003F000
0F8000FC00
0F80007C00
0F80007E00
0F80003F00
0F80003F00
0F80001F80
0F80001F80
0F80000F80
0F80000F80
0F80000F80
FFFF000F80
FFFF000F80
0F80000F80
0F80000F80
0F80000F80
0F80000F80
0F80001F80
0F80001F00
0F80001F00
0F80003E00
0F80003E00
0F80007C00
0F8000F800
0F8001F000
0F8007E000
0F803F8000
3FFFFE0000
FFFFF00000
ENDCHAR
STARTCHAR 00D1
ENCODING 209
SWIDTH 720 0
DWIDTH 36 0
BBX 33 42 2 0
BITMAP
0000010000
003F030000
007FE60000
00EFFE0000
00C1FC0000
0000000000
0000000000
0000000000
0000000000
FF0001FF80
3F80007E00
1FC0003C00
0FE0001C00
0FE0001800
0FF0001800
0FF8001800
0DFC001800
0CFE001800
0C7E001800
0C3F001800
0C1F801800
0C1FC01800
0C0FE01800
0C07E01800
0C03F01800
0C01F81800
0C01FC1800
0C00FE1800
0C007E1800
0C003F1800
0C001F9800
0C001FD800
0C000FF800
0C0007F800
0C0003F800
0C0001F800
0C0001F800
0C0000F800
0E00007800
1E00003800
3F00001800
FFC0000800
ENDCHAR
STARTCHAR 00D2
ENCODING 210
SWIDTH 720 0
DWIDTH 36 0
BBX 33 44 2 1
BITMAP
0078000000
007C000000
003E000000
001F000000
0007800000
0003C00000
0000E00000
0000700000
0000000000
0000000000
0007F00000
007FFE0000
00F81F8000
03E007E000
07C001F000
0F8000F800
1F0000F800
1F00007C00
3E00007E00
3E00003E00
7E00003F00
7C00003F00
FC00001F00
FC00001F00
FC00001F80
FC00001F80
FC00001F80
FC00001F80
FC00001F80
FC00001F80
FC00001F80
FC00001F00
7C00003F00
7E00003F00
7E00003F00
3E00003E00
3F00007E00
1F00007C00
0F8000F800
0F8001F000
07C003E000
01F007C000
00FF7F8000
003FFC0000
ENDCHAR
STARTCHAR 00D3
ENCODING 211
SWIDTH 720 0
DWIDTH 36 0
BBX 33 45 2 0
BITMAP
0000040000
00001E0000
00003E0000
00007E0000
0000F80000
0001F00000
0003C00000
0007000000
000E000000
0000000000
0000000000
0007F00000
007FFE0000
00F81F8000
03E007E000
07C001F000
0F8000F800
1F0000F800
1F00007C00
3E00007E00
3E00003E00
7E00003F00
7C00003F00
FC00001F00
FC00001F00
FC00001F80
FC00001F80
FC00001F80
FC00001F80
FC00001F80
FC00001F80
FC00001F80
FC00001F00
7C00003F00
7E00003F00
7E00003F00
3E00003E00
3F00007E00
1F00007C00
0F8000F800
0F8001F000
07C003E000
01F007C000
00FF7F8000
003FFC0000
ENDCHAR
STARTCHAR 00D4
ENCODING 212
SWIDTH 720 0
DWIDTH 36 0
BBX 33 44 2 0
BITMAP
0001C00000
0003E00000
0007F00000
000F780000
000E380000
001C1C0000
0038060000
0060030000
0000000000
0000000000
0007F00000
007FFE0000
00F81F8000
03E007E000
07C001F000
0F8000F800
1F0000F800
1F00007C00
3E00007E00
3E00003E00
7E00003F00
7C00003F00
FC00001F00
FC00001F00
FC00001F80
FC00001F80
FC00001F80
FC00001F80
FC00001F80
FC00001F80
FC00001F80
FC00001F00
7C00003F00
7E00003F00
7E00003F00
3E00003E00
3F00007E00
1F00007C00
0F8000F800
0F8001F000
07C003E000
01F007C000
00FF7F8000
003FFC0000
ENDCHAR
STARTCHAR 00D5
ENCODING 213
SWIDTH 720 0
DWIDTH 36 0
BBX 33 42 2 0
BITMAP
0000010000
003F030000
007FE60000
00EFFE0000
00C1FC0000
0000000000
0000000000
0000000000
0007F00000
007FFE0000
00F81F8000
03E007E000
07C001F000
0F8000F800
1F0000F800
1F00007C00
3E00007E00
3E00003E00
7E00003F00
7C00003F00
FC00001F00
FC00001F00
FC00001F80
FC00001F80
FC00001F80
FC00001F80
FC00001F80
FC00001F80
FC00001F80
FC00001F00
7C00003F00
7E00003F00
7E00003F00
3E00003E00
3F00007E00
1F00007C00
0F8000F800
0F8001F000
07C003E000
01F007C000
00FF7F8000
003FFC0000
ENDCHAR
STARTCHAR 00D6
ENCODING 214
SWIDTH 720 0
DWIDTH 36 0
BBX 33 42 2 0
BITMAP
0010040000
00781E0000
007C1F0000
007C1F0000
00781E0000
0000000000
0000000000
0000000000
0007F00000
007FFE0000
00F81F8000
03E007E000
07C001F000
0F8000F800
1F0000F800
1F00007C00
3E00007E00
3E00003E00
7E00003F00
7C00003F00
FC00001F00
FC00001F00
FC00001F80
FC00001F80
FC00001F80
FC00001F80
FC00001F80
FC00001F80
FC00001F80
FC00001F00
7C00003F00
7E00003F00
7E00003F00
3E00003E00
3F00007E00
1F00007C00
0F8000F800
0F8001F000
07C003E000
01F007C000
00FF7F8000
003FFC0000
ENDCHAR
STARTCHAR 00D7
ENCODING 215
SWIDTH 560 0
DWIDTH 28 0
BBX 24 24 2 0
BITMAP
200000
700006
F8000F
7C001E
3E003C
1F0078
0F80F0
07C1E0
03E3C0
01F780
00FF00
007E00
003E00
007F00
00FF80
01E7C0
03C3E0
0781F0
0F00F8
1E007C
3C003E
78001F
F0000F
600006
ENDCHAR
STARTCHAR 00D8
ENCODING 216
SWIDTH 720 0
DWIDTH 36 0
BBX 33 41 2 -4
BITMAP
0000000600
0000000C00
0000001C00
0007F01800
007FFE3000
00F81FF000
03E007E000
07C001F000
0F8001F800
1F0001F800
1F00037C00
3E00077E00
3E000E3E00
7E000C3F00
7C001C3F00
FC00381F00
FC00301F00
FC00601F80
FC00E01F80
FC00C01F80
FC01801F80
FC03801F80
FC03001F80
FC06001F80
FC0E001F00
7C0C001F00
7C18003F00
7E38003E00
3E70003E00
3F60007E00
1FE0007C00
0FC000F800
078001F000
03C003E000
07F007C000
067E7F8000
0C1FFC0000
1C00000000
1800000000
3000000000
7000000000
ENDCHAR
STARTCHAR 00D9
ENCODING 217
SWIDTH 720 0
DWIDTH 36 0
BBX 33 44 1 1
BITMAP
001E000000
001F000000
000F800000
0007C00000
0001E00000
0000F00000
0000380000
00001C0000
0000000000
0000000000
0000000000
FFF801FF80
3FE0007E00
0F80003C00
0F80001C00
0F80001800
0F80001800
0F80001800
0F80001800
0F80001800
0F80001800
0F80001800
0F80001800
0F80001800
0F80001800
0F80001800
0F80001800
0F80001800
0F80001800
0F80001800
0F80001800
0F80001800
0F80001800
0F80001800
0F80001800
0F80001800
0FC0001800
07C0003000
07C0003000
03E0006000
03F000E000
01F803C000
00FFFF8000
003FFE0000
ENDCHAR
STARTCHAR 00DA
ENCODING 218
SWIDTH 720 0
DWIDTH 36 0
BBX 33 45 1 0
BITMAP
0000010000
0000078000
00000F8000
00001F8000
00003E0000
00007C0000
0000F00000
0001C00000
0003800000
0000000000
0000000000
0000000000
FFF801FF80
3FE0007E00
0F80003C00
0F80001C00
0F80001800
0F80001800
0F80001800
0F80001800
0F80001800
0F80001800
0F80001800
0F80001800
0F80001800
0F80001800
0F80001800
0F80001800
0F80001800
0F80001800
0F80001800
0F80001800
0F80001800
0F80001800
0F80001800
0F80001800
0F80001800
0FC0001800
07C0003000
07C0003000
03E0006000
03F000E000
01F803C000
00FFFF8000
003FFE0000
ENDCHAR
STARTCHAR 00DB
ENCODING 219
SWIDTH 720 0
DWIDTH 36 0
BBX 33 44 1 0
BITMAP
0000F00000
0000F80000
0001FC0000
0003DE0000
00078E0000
0007070000
000C038000
001800C000
0000000000
0000000000
0000000000
FFF801FF80
3FE0007E00
0F80003C00
0F80001C00
0F80001800
0F80001800
0F80001800
0F80001800
0F80001800
0F80001800
0F80001800
0F80001800
0F80001800
0F80001800
0F80001800
0F80001800
0F80001800
0F80001800
0F80001800
0F80001800
0F80001800
0F80001800
0F80001800
0F80001800
0F80001800
0FC0001800
07C0003000
07C0003000
03E0006000
03F000E000
01F803C000
00FFFF8000
003FFE0000
ENDCHAR
STARTCHAR 00DC
ENCODING 220
SWIDTH 720 0
DWIDTH 36 0
BBX 33 41 1 1
BITMAP
001E078000
001F07C000
001F07C000
001E078000
0000000000
0000000000
0000000000
0000000000
FFF801FF80
3FE0007E00
0F80003C00
0F80001C00
0F80001800
0F80001800
0F80001800
0F80001800
0F80001800
0F80001800
0F80001800
0F80001800
0F80001800
0F80001800
0F80001800
0F80001800
0F80001800
0F80001800
0F80001800
0F80001800
0F80001800
0F80001800
0F80001800
0F80001800
0F80001800
0FC0001800
07C0003000
07C0003000
03E0006000
03F000E000
01F803C000
00FFFF8000
003FFE0000
ENDCHAR
STARTCHAR 00DD
ENCODING 221
SWIDTH 700 0
DWIDTH 35 0
BBX 34 45 0 0
BITMAP
0000040000
00001E0000
00003E0000
00007E0000
0000F80000
0001F00000
0003C00000
0007000000
000E000000
0000000000
0000000000
0000000000
FFFC01FFC0
3FF0003F00
0FE0001E00
07E0001C00
07F0003800
03F0003000
01F8007000
00FC00E000
00FC00C000
007E01C000
003F038000
003F030000
001F870000
000FCE0000
000FCC0000
0007FC0000
0003F80000
0003F00000
0001F00000
0001F00000
0001F00000
0001F00000
0001F00000
0001F00000
0001F00000
0001F00000
0001F00000
0001F00000
0001F00000
0001F00000
0003F80000
0007FC0000
003FFF8000
ENDCHAR
STARTCHAR 00DE
ENCODING 222
SWIDTH 580 0
DWIDTH 29 0
BBX 27 33 1 0
BITMAP
FFF80000
3FE00000
0F800000
0F800000
0F800000
0F800000
0FFF8000
0FFFF800
0F81FE00
0F803F00
0F801F80
0F800FC0
0F800FC0
0F8007C0
0F8007C0
0F8007E0
0F8007C0
0F8007C0
0F8007C0
0F800F80
0F801F80
0F803F00
0F80FE00
0FFFF800
0FFF8000
0F800000
0F800000
0F800000
0F800000
0F800000
0F800000
3FC00000
FFF80000
ENDCHAR
STARTCHAR 00DF
ENCODING 223
SWIDTH 500 0
DWIDTH 25 0
BBX 23 34 1 0
BITMAP
01FF00
038780
0703C0
0F01E0
0E01F0
0E00F0
1E00F0
1E00F0
1E00F0
1E00F0
1E00F0
1E01E0
1E01C0
1E0300
1E3C00
1E3E00
1E0780
1E01E0
1E00F0
1E0078
1E007C
1E007C
1E003C
1E003E
1E003E
1E003E
1E003C
1E003C
1E003C
1E7038
1EF078
1EF070
3EF8E0
FE7F80
ENDCHAR
STARTCHAR 00E0
ENCODING 224
SWIDTH 440 0
DWIDTH 22 0
BBX 21 33 1 1
BITMAP
3C0000
3E0000
1F0000
0F8000
03C000
01E000
007000
003800
000000
000000
07FC00
1C0E00
380F00
780700
780780
780780
300780
000780
000F80
007780
01C780
070780
1C0780
380780
780780
700780
F00780
F00780
F80780
F81F80
FFF7D8
7FE7F0
3F83E0
ENDCHAR
STARTCHAR 00E1
ENCODING 225
SWIDTH 440 0
DWIDTH 22 0
BBX 21 34 1 0
BITMAP
000100
000780
000F80
001F80
003E00
007C00
00F000
01C000
038000
000000
000000
07FC00
1C0E00
380F00
780700
780780
780780
300780
000780
000F80
007780
01C780
070780
1C0780
380780
780780
700780
F00780
F00780
F80780
F81F80
FFF7D8
7FE7F0
3F83E0
ENDCHAR
STARTCHAR 00E2
ENCODING 226
SWIDTH 440 0
DWIDTH 22 0
BBX 21 34 1 0
BITMAP
00E000
01F000
03F800
03F800
07BC00
0E0E00
0C0700
180300
300180
000000
000000
07FC00
1C0E00
380F00
780700
780780
780780
300780
000780
000F80
007780
01C780
070780
1C0780
380780
780780
700780
F00780
F00780
F80780
F81F80
FFF7D8
7FE7F0
3F83E0
ENDCHAR
STARTCHAR 00E3
ENCODING 227
SWIDTH 440 0
DWIDTH 22 0
BBX 21 31 1 0
BITMAP
070180
1FC180
3FFF00
61FF00
407C00
000000
000000
000000
07FC00
1C0E00
380F00
780700
780780
780780
300780
000780
000F80
007780
01C780
070780
1C0780
380780
780780
700780
F00780
F00780
F80780
F81F80
FFF7D8
7FE7F0
3F83E0
ENDCHAR
STARTCHAR 00E4
ENCODING 228
SWIDTH 440 0
DWIDTH 22 0
BBX 21 31 1 0
BITMAP
1C0600
3E0F80
3E0F80
3E0F80
1C0700
000000
000000
000000
07FC00
1C0E00
380F00
780700
780780
780780
300780
000780
000F80
007780
01C780
070780
1C0780
380780
780780
700780
F00780
F00780
F80780
F81F80
FFF7D8
7FE7F0
3F83E0
ENDCHAR
STARTCHAR 00E5
ENCODING 229
SWIDTH 440 0
DWIDTH 22 0
BBX 21 35 1 0
BITMAP
00C000
03F800
061C00
0C0C00
0C0600
0C0600
0C0600
060C00
07F800
01F000
000000
000000
07FC00
1C0E00
380F00
780700
780780
780780
300780
000780
000F80
007780
01C780
070780
1C0780
380780
780780
700780
F00780
F00780
F80780
F81F80
FFF7D8
7FE7F0
3F83E0
ENDCHAR
STARTCHAR 00E6
ENCODING 230
SWIDTH 640 0
DWIDTH 32 0
BBX 30 23 1 1
BITMAP
0FF87F80
1C1EE1E0
380F80F0
780F80F0
780F80F0
780F00F8
300F00F8
000F0078
000FFFF8
003F0000
00EF0000
038F0000
0E0F0000
380F0000
780F8000
700F8004
F00F800C
F007C008
F807C030
F80FF070
7C1BFFE0
7FE1FFC0
3FC07F00
ENDCHAR
STARTCHAR 00E7
ENCODING 231
SWIDTH 440 0
DWIDTH 22 0
BBX 19 34 1 -10
BITMAP
01FF00
070780
0E07C0
1C03E0
3803E0
7801C0
700000
700000
F00000
F00000
F00000
F00000
F00000
F00000
F80000
F80020
7C0060
7C0040
7F00C0
3FC380
1FFF00
0FFE00
03FC00
00C000
00C000
008000
01F800
01FC00
003E00
001E00
001E00
003C00
0FFC00
07F000
ENDCHAR
STARTCHAR 00E8
ENCODING 232
SWIDTH 440 0
DWIDTH 22 0
BBX 20 33 1 1
BITMAP
1E0000
1F0000
0F8000
07C000
01E000
00F000
003800
001C00
000000
000000
03FE00
07BF00
0C0F80
1807C0
3803C0
7003E0
7003E0
7003E0
FFFFE0
F00000
F00000
F00000
F00000
F00000
F80000
F80010
7C0030
7C0060
7F00E0
3FC3C0
1FFF80
0FFF00
07FC00
ENDCHAR
STARTCHAR 00E9
ENCODING 233
SWIDTH 440 0
DWIDTH 22 0
BBX 20 34 1 0
BITMAP
000080
0003C0
0007C0
000FC0
001F00
003E00
007800
00E000
01C000
000000
000000
03FE00
07BF00
0C0F80
1807C0
3803C0
7003E0
7003E0
7003E0
FFFFE0
F00000
F00000
F00000
F00000
F00000
F80000
F80010
7C0030
7C0060
7F00E0
3FC3C0
1FFF80
0FFF00
07FC00
ENDCHAR
STARTCHAR 00EA
ENCODING 234
SWIDTH 440 0
DWIDTH 22 0
BBX 20 34 1 0
BITMAP
007000
00F800
01FC00
01FC00
03DE00
070700
060380
0C0180
1800C0
000000
000000
03FE00
07BF00
0C0F80
1807C0
3803C0
7003E0
7003E0
7003E0
FFFFE0
F00000
F00000
F00000
F00000
F00000
F80000
F80010
7C0030
7C0060
7F00E0
3FC3C0
1FFF80
0FFF00
07FC00
ENDCHAR
STARTCHAR 00EB
ENCODING 235
SWIDTH 440 0
DWIDTH 22 0
BBX 20 31 1 0
BITMAP
0E0380
1F07C0
1F07C0
1F07C0
0E0380
000000
000000
000000
03FE00
07BF00
0C0F80
1807C0
3803C0
7003E0
7003E0
7003E0
FFFFE0
F00000
F00000
F00000
F00000
F00000
F80000
F80010
7C0030
7C0060
7F00E0
3FC3C0
1FFF80
0FFF00
07FC00
ENDCHAR
STARTCHAR 00EC
ENCODING 236
SWIDTH 280 0
DWIDTH 14 0
BBX 12 33 0 1
BITMAP
F000
F800
7C00
3E00
0F00
0780
01C0
00E0
0000
0000
0180
0F80
3F80
0780
0780
0780
0780
0780
0780
0780
0780
0780
0780
0780
0780
0780
0780
0780
0780
0780
07C0
0FC0
7FF0
ENDCHAR
STARTCHAR 00ED
ENCODING 237
SWIDTH 280 0
DWIDTH 14 0
BBX 11 34 1 0
BITMAP
0040
01E0
03E0
07E0
0F80
1F00
3C00
7000
E000
0000
0000
0300
1F00
7F00
0F00
0F00
0F00
0F00
0F00
0F00
0F00
0F00
0F00
0F00
0F00
0F00
0F00
0F00
0F00
0F00
0F00
0F80
1F80
FFE0
ENDCHAR
STARTCHAR 00EE
ENCODING 238
SWIDTH 280 0
DWIDTH 14 0
BBX 15 34 0 0
BITMAP
0380
07C0
0FC0
0FE0
1CF0
3838
7018
600C
C006
0000
0000
0180
0F80
3F80
0780
0780
0780
0780
0780
0780
0780
0780
0780
0780
0780
0780
0780
0780
0780
0780
0780
07C0
0FC0
7FF0
ENDCHAR
STARTCHAR 00EF
ENCODING 239
SWIDTH 280 0
DWIDTH 14 0
BBX 14 31 0 0
BITMAP
7038
F87C
F87C
F87C
7038
0000
0000
0000
0180
0F80
3F80
0780
0780
0780
0780
0780
0780
0780
0780
0780
0780
0780
0780
0780
0780
0780
0780
0780
07C0
0FC0
7FF0
ENDCHAR
STARTCHAR 00F0
ENCODING 240
SWIDTH 500 0
DWIDTH 25 0
BBX 23 34 1 0
BITMAP
07C060
0BF1F0
00FFC0
003F00
007F80
01E780
0783C0
0601E0
0001F0
0000F0
0000F8
03FE78
070778
0E03FC
1C01FC
3800FC
78007C
78007C
78007E
F8003E
F8003E
F8003E
F8003C
F8003C
F8003C
F8003C
780038
7C0038
7C0070
3E0070
1E00E0
0F00C0
07C380
03FF00
ENDCHAR
STARTCHAR 00F1
ENCODING 241
SWIDTH 480 0
DWIDTH 24 0
BBX 23 31 1 0
BITMAP
01C020
07F860
0FFFE0
0C7FC0
180F80
000000
000000
000000
1E1FC0
FE7FE0
3EE3E0
1F81F0
1F00F0
1E00F0
1E00F0
1E00F0
1E00F0
1E00F0
1E00F0
1E00F0
1E00F0
1E00F0
1E00F0
1E00F0
1E00F0
1E00F0
1E00F0
1E00F0
1E00F0
3F01F8
FFC7FE
ENDCHAR
STARTCHAR 00F2
ENCODING 242
SWIDTH 500 0
DWIDTH 25 0
BBX 23 33 1 1
BITMAP
0F0000
0F8000
07C000
03E000
00F000
007800
001C00
000E00
000000
000000
03FF00
0707C0
1E03E0
1C01F0
3800F8
780078
78007C
F8007C
F8003C
F8003C
F8003E
F8003E
F8003E
F8003C
F8003C
78003C
7C003C
7C0078
3E0070
1E00F0
0F00E0
07C3C0
03FF00
ENDCHAR
STARTCHAR 00F3
ENCODING 243
SWIDTH 500 0
DWIDTH 25 0
BBX 23 34 1 0
BITMAP
000040
0001E0
0003E0
0007E0
000F80
001F00
003C00
007000
00E000
000000
000000
03FF00
0707C0
1E03E0
1C01F0
3800F8
780078
78007C
F8007C
F8003C
F8003C
F8003E
F8003E
F8003E
F8003C
F8003C
78003C
7C003C
7C0078
3E0070
1E00F0
0F00E0
07C3C0
03FF00
ENDCHAR
STARTCHAR 00F4
ENCODING 244
SWIDTH 500 0
DWIDTH 25 0
BBX 23 34 1 0
BITMAP
003C00
003C00
007E00
00FF00
01E700
01C380
0381C0
0700E0
0C0030
000000
000000
03FF00
0707C0
1E03E0
1C01F0
3800F8
780078
78007C
F8007C
F8003C
F8003C
F8003E
F8003E
F8003E
F8003C
F8003C
78003C
7C003C
7C0078
3E0070
1E00F0
0F00E0
07C3C0
03FF00
ENDCHAR
STARTCHAR 00F5
ENCODING 245
SWIDTH 500 0
DWIDTH 25 0
BBX 23 31 1 0
BITMAP
01C030
07F860
0FFFE0
0C7FC0
180F80
000000
000000
000000
03FF00
0707C0
1E03E0
1C01F0
3800F8
780078
78007C
F8007C
F8003C
F8003C
F8003E
F8003E
F8003E
F8003C
F8003C
78003C
7C003C
7C0078
3E0070
1E00F0
0F00E0
07C3C0
03FF00
ENDCHAR
STARTCHAR 00F6
ENCODING 246
SWIDTH 500 0
DWIDTH 25 0
BBX 23 31 1 0
BITMAP
0701C0
0F83E0
0F83E0
0F83E0
0701C0
000000
000000
000000
03FF00
0707C0
1E03E0
1C01F0
3800F8
780078
78007C
F8007C
F8003C
F8003C
F8003E
F8003E
F8003E
F8003C
F8003C
78003C
7C003C
7C0078
3E0070
1E00F0
0F00E0
07C3C0
03FF00
ENDCHAR
STARTCHAR 00F7
ENCODING 247
SWIDTH 560 0
DWIDTH 28 0
BBX 25 25 2 0
BITMAP
001C0000
003E0000
003E0000
003E0000
001C0000
00000000
00000000
00000000
00000000
00000000
00000000
FFFFFF80
FFFFFF80
FFFFFF80
00000000
00000000
00000000
00000000
00000000
00000000
001C0000
003E0000
003E0000
003E0000
001C0000
ENDCHAR
STARTCHAR 00F8
ENCODING 248
SWIDTH 500 0
DWIDTH 25 0
BBX 23 34 1 -6
BITMAP
000018
000030
000030
000060
000060
03FFC0
0707C0
1E03E0
1C03F0
3803F8
7806F8
78067C
F80C7C
F80C3C
F8183E
F8183E
F8303E
F8303E
F8603C
F8603C
7CC03C
7D803C
7D8078
3F0070
1F00F0
0F00E0
07C3C0
0DFF00
0C0000
180000
180000
300000
300000
600000
ENDCHAR
STARTCHAR 00F9
ENCODING 249
SWIDTH 480 0
DWIDTH 24 0
BBX 23 33 1 1
BITMAP
1E0000
1F0000
0F8000
07C000
01E000
00F000
003800
001C00
000000
000000
FE07F0
3E01F0
1E00F0
1E00F0
1E00F0
1E00F0
1E00F0
1E00F0
1E00F0
1E00F0
1E00F0
1E00F0
1E00F0
1E00F0
1E00F0
1E00F0
1E00F0
1E00F0
1F01F0
1F03F8
0FFEFE
0FFCFE
03F8E0
ENDCHAR
STARTCHAR 00FA
ENCODING 250
SWIDTH 480 0
DWIDTH 24 0
BBX 23 34 1 0
BITMAP
000040
0001E0
0003E0
0007E0
000F80
001F00
003C00
007000
00E000
000000
000000
FE07F0
3E01F0
1E00F0
1E00F0
1E00F0
1E00F0
1E00F0
1E00F0
1E00F0
1E00F0
1E00F0
1E00F0
1E00F0
1E00F0
1E00F0
1E00F0
1E00F0
1E00F0
1F01F0
1F03F8
0FFEFE
0FFCFE
03F8E0
ENDCHAR
STARTCHAR 00FB
ENCODING 251
SWIDTH 480 0
DWIDTH 24 0
BBX 23 34 1 0
BITMAP
003800
007C00
00FC00
01FE00
01CF00
038780
070180
0600C0
0C0060
000000
000000
FE07F0
3E01F0
1E00F0
1E00F0
1E00F0
1E00F0
1E00F0
1E00F0
1E00F0
1E00F0
1E00F0
1E00F0
1E00F0
1E00F0
1E00F0
1E00F0
1E00F0
1E00F0
1F01F0
1F03F8
0FFEFE
0FFCFE
03F8E0
ENDCHAR
STARTCHAR 00FC
ENCODING 252
SWIDTH 480 0
DWIDTH 24 0
BBX 23 31 1 0
BITMAP
0701C0
0F83E0
0F83E0
0F83E0
0701C0
000000
000000
000000
FE07F0
3E01F0
1E00F0
1E00F0
1E00F0
1E00F0
1E00F0
1E00F0
1E00F0
1E00F0
1E00F0
1E00F0
1E00F0
1E00F0
1E00F0
1E00F0
1E00F0
1E00F0
1F01F0
1F03F8
0FFEFE
0FFCFE
03F8E0
ENDCHAR
STARTCHAR 00FD
ENCODING 253
SWIDTH 480 0
DWIDTH 24 0
BBX 23 45 0 -11
BITMAP
000020
0000F0
0001F0
0003F0
0007C0
000F80
001E00
003800
007000
000000
000000
FFE07E
3F001C
1F0018
1F0018
0F0030
0F8030
078030
07C060
07C060
03C060
03E0C0
01E0C0
01F0C0
00F180
00F980
007900
007F00
003F00
003E00
003E00
001E00
001C00
000C00
001C00
001800
001800
003000
003000
007000
006000
3FC000
7FC000
7F8000
3F0000
ENDCHAR
STARTCHAR 00FE
ENCODING 254
SWIDTH 500 0
DWIDTH 25 0
BBX 22 45 1 -11
BITMAP
060000
3E0000
FE0000
1E0000
1E0000
1E0000
1E0000
1E0000
1E0000
1E0000
1E0000
1E3FC0
1E7FE0
1EFFF0
1F81F8
1F00F8
1E0078
1E007C
1E007C
1E003C
1E003C
1E003C
1E003C
1E003C
1E003C
1E003C
1E003C
1E0038
1E0078
1E0070
1E00E0
1F00E0
1FC3C0
1E7F00
1E0000
1E0000
1E0000
1E0000
1E0000
1E0000
1E0000
1E0000
1E0000
3F0000
FFE000
ENDCHAR
STARTCHAR 00FF
ENCODING 255
SWIDTH 480 0
DWIDTH 24 0
BBX 23 42 0 -11
BITMAP
03C0F0
03C0F0
07E1F8
03C0F0
018060
000000
000000
000000
FFE07E
3F001C
1F0018
1F0018
0F0030
0F8030
078030
07C060
07C060
03C060
03E0C0
01E0C0
01F0C0
00F180
00F980
007900
007F00
003F00
003E00
003E00
001E00
001C00
000C00
001C00
001800
001800
003000
003000
007000
006000
3FC000
7FC000
7F8000
3F0000
ENDCHAR
STARTCHAR 0100
ENCODING 256
SWIDTH 720 0
DWIDTH 36 0
BBX 34 39 1 0
BITMAP
003FFFC000
003FFFC000
003FFFC000
0000000000
0000000000
0000800000
0000C00000
0001C00000
0001E00000
0001E00000
0003F00000
0003F00000
0007F00000
0006F80000
000EF80000
000C7C0000
000C7C0000
00183E0000
00183E0000
00381F0000
00301F0000
00301F0000
00600F8000
00600F8000
00C007C000
00C007C000
01FFFFE000
01FFFFE000
018003F000
030001F000
030001F000
070001F800
060000F800
0E0000FC00
0C00007C00
1C00007E00
1C00007E00
3E0000FF00
FFC003FFC0
ENDCHAR
STARTCHAR 0101
ENCODING 257
SWIDTH 440 0
DWIDTH 22 0
BBX 21 29 1 0
BITMAP
3FFFC0
3FFFC0
3FFFC0
000000
000000
000000
07FC00
1C0E00
380F00
780700
780780
780780
300780
000780
000F80
007780
01C780
070780
1C0780
380780
780780
700780
F00780
F00780
F80780
F81F80
FFF7D8
7FE7F0
3F83E0
ENDCHAR
STARTCHAR 0102
ENCODING 258
SWIDTH 720 0
DWIDTH 36 0
BBX 34 44 1 0
BITMAP
0060020000
0060020000
0030060000
0030060000
00380C0000
001FFC0000
001FF80000
0007F00000
0000000000
0000000000
0000800000
0000C00000
0001C00000
0001E00000
0001E00000
0003F00000
0003F00000
0007F00000
0006F80000
000EF80000
000C7C0000
000C7C0000
00183E0000
00183E0000
00381F0000
00301F0000
00301F0000
00600F8000
00600F8000
00C007C000
00C007C000
01FFFFE000
01FFFFE000
018003F000
030001F000
030001F000
070001F800
060000F800
0E0000FC00
0C00007C00
1C00007E00
1C00007E00
3E0000FF00
FFC003FFC0
ENDCHAR
STARTCHAR 0103
ENCODING 259
SWIDTH 440 0
DWIDTH 22 0
BBX 21 33 1 0
BITMAP
200300
300300
300600
380600
1C1E00
1FFC00
0FF800
03F000
000000
000000
07FC00
1C0E00
380F00
780700
780780
780780
300780
000780
000F80
007780
01C780
070780
1C0780
380780
780780
700780
F00780
F00780
F80780
F81F80
FFF7D8
7FE7F0
3F83E0
ENDCHAR
STARTCHAR 0104
ENCODING 260
SWIDTH 720 0
DWIDTH 36 0
BBX 38 42 1 -8
BITMAP
0000400000
0000C00000
0000E00000
0000E00000
0001E00000
0001F00000
0003F00000
0003F80000
0006F80000
0004FC0000
00047C0000
000C7C0000
00087E0000
00183E0000
00103F0000
00301F0000
00201F8000
00200F8000
00600F8000
00400FC000
00C007C000
00FFFFE000
01FFFFE000
018001E000
018001F000
038001F000
030000F800
070000F800
0600007C00
0E00007C00
0E00007C00
1E00007E00
3F00007F00
FFC003FFC0
0000000180
0000000300
0000000700
0000000700
000000070C
00000007F8
00000003F0
00000001E0
ENDCHAR
STARTCHAR 0105
ENCODING 261
SWIDTH 440 0
DWIDTH 22 0
BBX 21 31 1 -7
BITMAP
07FC00
1C0E00
380700
780700
780780
780780
300780
000780
000F80
007780
01C780
070780
1C0780
380780
780780
700780
F00780
F00780
F80780
F81F80
FFF7D8
7FE3F0
3F83E0
000300
000600
000E00
000E00
000E18
000FF0
0007E0
0003C0
ENDCHAR
STARTCHAR 0106
ENCODING 262
SWIDTH 660 0
DWIDTH 33 0
BBX 30 45 2 0
BITMAP
00000200
00000F00
00001F00
00003F00
00007C00
0000F800
0001E000
00038000
00070000
00000000
00000000
0007F808
003FFFB8
00FC07F8
03F001F8
07C000F8
0F800078
1F800038
1F000018
3E000018
3E000018
7E000008
7C000000
7C000000
FC000000
FC000000
FC000000
FC000000
FC000000
FC000000
FC000000
FC000000
FC000000
7C000000
7E000000
7E000000
3E000000
3F000000
1F000000
1F80000C
0FC00038
07F00070
03FC01E0
00FFFF80
003FFE00
ENDCHAR
STARTCHAR 0107
ENCODING 263
SWIDTH 440 0
DWIDTH 22 0
BBX 19 34 1 0
BITMAP
000080
0003C0
0007C0
000FC0
001F00
003E00
007800
00E000
01C000
000000
000000
01FF00
070780
0E07C0
1C03E0
3803E0
7801C0
700000
700000
F00000
F00000
F00000
F00000
F00000
F00000
F80000
F80020
7C0020
7C0040
7F00C0
3F8380
1FFF00
0FFE00
07F800
ENDCHAR
STARTCHAR 0108
ENCODING 264
SWIDTH 660 0
DWIDTH 33 0
BBX 30 44 2 0
BITMAP
0001E000
0001F000
0003F800
0007BC00
000F1C00
000E0E00
00180700
00300180
00000000
00000000
0007F808
003FFFB8
00FC07F8
03F001F8
07C000F8
0F800078
1F800038
1F000018
3E000018
3E000018
7E000008
7C000000
7C000000
FC000000
FC000000
FC000000
FC000000
FC000000
FC000000
FC000000
FC000000
FC000000
7C000000
7E000000
7E000000
3E000000
3F000000
1F000000
1F80000C
0FC00038
07F00070
03FC01E0
00FFFF80
003FFE00
ENDCHAR
STARTCHAR 0109
ENCODING 265
SWIDTH 440 0
DWIDTH 22 0
BBX 19 34 1 0
BITMAP
003800
007C00
00FC00
01FE00
01CF00
038780
070180
0600C0
0C0060
000000
000000
01FF00
070780
0E07C0
1C03E0
3803E0
7801C0
700000
700000
F00000
F00000
F00000
F00000
F00000
F00000
F80000
F80020
7C0020
7C0040
7F00C0
3F8380
1FFF00
0FFE00
07F800
ENDCHAR
STARTCHAR 010A
ENCODING 266
SWIDTH 660 0
DWIDTH 33 0
BBX 30 42 2 0
BITMAP
00008000
0003E000
0003E000
0003E000
0001C000
00000000
00000000
00000000
0007F808
003FFFB8
00FC07F8
03F001F8
07C000F8
0F800078
1F800038
1F000018
3E000018
3E000018
7E000008
7C000000
7C000000
FC000000
FC000000
FC000000
FC000000
FC000000
FC000000
FC000000
FC000000
FC000000
7C000000
7E000000
7E000000
3E000000
3F000000
1F000000
1F80000C
0FC00038
07F00070
03FC01E0
00FFFF80
003FFE00
ENDCHAR
STARTCHAR 010B
ENCODING 267
SWIDTH 440 0
DWIDTH 22 0
BBX 19 31 1 0
BITMAP
007000
00F800
00F800
00F800
007000
000000
000000
000000
01FF00
070780
0E07C0
1C03E0
3803E0
7801C0
700000
700000
F00000
F00000
F00000
F00000
F00000
F00000
F80000
F80020
7C0020
7C0040
7F00C0
3F8380
1FFF00
0FFE00
07F800
ENDCHAR
STARTCHAR 010C
ENCODING 268
SWIDTH 660 0
DWIDTH 33 0
BBX 30 44 2 0
BITMAP
00600300
00300600
001C0C00
001E3C00
000F7800
0007F000
0003E000
0003E000
00000000
00000000
0007F808
003FFFB8
00FC07F8
03F001F8
07C000F8
0F800078
1F800038
1F000018
3E000018
3E000018
7E000008
7C000000
7C000000
FC000000
FC000000
FC000000
FC000000
FC000000
FC000000
FC000000
FC000000
FC000000
7C000000
7E000000
7E000000
3E000000
3F000000
1F000000
1F80000C
0FC00038
07F00070
03FC01E0
00FFFF80
003FFE00
ENDCHAR
STARTCHAR 010D
ENCODING 269
SWIDTH 440 0
DWIDTH 22 0
BBX 19 34 1 0
BITMAP
0C0020
0600E0
0701C0
038380
01C700
00EF00
00FE00
007C00
003800
000000
000000
01FF00
070780
0E07C0
1C03E0
3803E0
7801C0
700000
700000
F00000
F00000
F00000
F00000
F00000
F00000
F80000
F80020
7C0020
7C0040
7F00C0
3F8380
1FFF00
0FFE00
07F800
ENDCHAR
STARTCHAR 010E
ENCODING 270
SWIDTH 720 0
DWIDTH 36 0
BBX 34 44 1 0
BITMAP
0030018000
0018030000
000E0E0000
000F1E0000
0007BC0000
0003F80000
0001F00000
0001F00000
0000000000
0000000000
0000000000
FFFFE00000
3FFFFE0000
0F807F8000
0F800FE000
0F8003F000
0F8001F800
0F8000FC00
0F80007E00
0F80003F00
0F80003F00
0F80001F80
0F80001F80
0F80000F80
0F80000F80
0F80000F80
0F80000F80
0F80000FC0
0F80000F80
0F80000F80
0F80000F80
0F80000F80
0F80001F80
0F80001F00
0F80001F00
0F80003F00
0F80003E00
0F80007C00
0F8000F800
0F8001F000
0F8007E000
0F803F8000
3FFFFE0000
FFFFE00000
ENDCHAR
STARTCHAR 010F
ENCODING 271
SWIDTH 640 0
DWIDTH 32 0
BBX 31 34 1 0
BITMAP
0000300C
0001F01E
0007F03C
0000F03C
0000F038
0000F070
0000F060
0000F0E0
0000F0C0
0000F180
0000F000
03FCF000
0707F000
0E03F000
1C01F000
3800F000
3800F000
7800F000
7800F000
F000F000
F000F000
F000F000
F000F000
F000F000
F000F000
F800F000
F800F000
7800F000
7C00F000
7E00F000
3F01F800
1F87FE00
0FFEF800
07F8E000
ENDCHAR
STARTCHAR 0110
ENCODING 272
SWIDTH 720 0
DWIDTH 36 0
BBX 33 33 1 0
BITMAP
FFFFE00000
3FFFFE0000
0F807FC000
0F800FE000
0F8003F000
0F8000FC00
0F80007C00
0F80007E00
0F80003F00
0F80003F00
0F80001F80
0F80001F80
0F80000F80
0F80000F80
0F80000F80
FFFF000F80
FFFF000F80
0F80000F80
0F80000F80
0F80000F80
0F80000F80
0F80001F80
0F80001F00
0F80001F00
0F80003E00
0F80003E00
0F80007C00
0F8000F800
0F8001F000
0F8007E000
0F803F8000
3FFFFE0000
FFFFF00000
ENDCHAR
STARTCHAR 0111
ENCODING 273
SWIDTH 500 0
DWIDTH 25 0
BBX 23 34 1 0
BITMAP
000030
0001F0
0007F0
0000F0
0000F0
0000F0
003FFE
003FFE
0000F0
0000F0
0000F0
03FCF0
0707F0
0E03F0
1C01F0
3800F0
3800F0
7800F0
7800F0
F000F0
F000F0
F000F0
F000F0
F000F0
F000F0
F800F0
F800F0
7800F0
7C00F0
7E00F0
3F01F8
1F87FE
0FFEF8
07F8E0
ENDCHAR
STARTCHAR 0112
ENCODING 274
SWIDTH 620 0
DWIDTH 31 0
BBX 29 39 1 0
BITMAP
03FFFC00
03FFFC00
03FFFC00
00000000
00000000
00000000
FFFFFFC0
3FFFFFC0
0F8003C0
0F8000C0
0F8000C0
0F800040
0F800040
0F800000
0F800000
0F800000
0F800000
0F800200
0F800200
0F800600
0F801E00
0FFFFE00
0FFFFE00
0F800E00
0F800600
0F800200
0F800200
0F800000
0F800000
0F800000
0F800000
0F800018
0F800030
0F800030
0F800070
0F8000F0
0FC003E0
3FFFFFE0
FFFFFFE0
ENDCHAR
STARTCHAR 0113
ENCODING 275
SWIDTH 440 0
DWIDTH 22 0
BBX 20 29 1 0
BITMAP
1FFFE0
1FFFE0
1FFFE0
000000
000000
000000
03FE00
07BF00
0C0F80
1807C0
3803C0
7003E0
7003E0
7003E0
FFFFE0
F00000
F00000
F00000
F00000
F00000
F80000
F80010
7C0030
7C0060
7F00E0
3FC3C0
1FFF80
0FFF00
07FC00
ENDCHAR
STARTCHAR 0114
ENCODING 276
SWIDTH 620 0
DWIDTH 31 0
BBX 29 44 1 0
BITMAP
03001000
03003000
03003000
01807000
01C0E000
01FFE000
00FFC000
003F8000
00000000
00000000
00000000
FFFFFFC0
3FFFFFC0
0F8003C0
0F8000C0
0F8000C0
0F800040
0F800040
0F800000
0F800000
0F800000
0F800000
0F800200
0F800200
0F800600
0F801E00
0FFFFE00
0FFFFE00
0F800E00
0F800600
0F800200
0F800200
0F800000
0F800000
0F800000
0F800000
0F800018
0F800030
0F800030
0F800070
0F8000F0
0FC003E0
3FFFFFE0
FFFFFFE0
ENDCHAR
STARTCHAR 0115
ENCODING 277
SWIDTH 440 0
DWIDTH 22 0
BBX 20 33 1 0
BITMAP
180080
180180
0C0180
0C0380
0F0700
07FF00
03FE00
00F800
000000
000000
03FE00
07BF00
0C0F80
1807C0
3803C0
7003E0
7003E0
7003E0
FFFFE0
F00000
F00000
F00000
F00000
F00000
F80000
F80010
7C0030
7C0060
7F00E0
3FC3C0
1FFF80
0FFF00
07FC00
ENDCHAR
STARTCHAR 0116
ENCODING 278
SWIDTH 620 0
DWIDTH 31 0
BBX 29 42 1 0
BITMAP
00020000
000F8000
000F8000
000F8000
00070000
00000000
00000000
00000000
00000000
FFFFFFC0
3FFFFFC0
0F8003C0
0F8000C0
0F8000C0
0F800040
0F800040
0F800000
0F800000
0F800000
0F800000
0F800200
0F800200
0F800600
0F801E00
0FFFFE00
0FFFFE00
0F800E00
0F800600
0F800200
0F800200
0F800000
0F800000
0F800000
0F800000
0F800018
0F800030
0F800030
0F800070
0F8000F0
0FC003E0
3FFFFFE0
FFFFFFE0
ENDCHAR
STARTCHAR 0117
ENCODING 279
SWIDTH 440 0
DWIDTH 22 0
BBX 20 31 1 0
BITMAP
007000
00F800
00F800
00F800
007000
000000
000000
000000
03FE00
07BF00
0C0F80
1807C0
3803C0
7003E0
7003E0
7003E0
FFFFE0
F00000
F00000
F00000
F00000
F00000
F80000
F80010
7C0030
7C0060
7F00E0
3FC3C0
1FFF80
0FFF00
07FC00
ENDCHAR
STARTCHAR 0118
ENCODING 280
SWIDTH 620 0
DWIDTH 31 0
BBX 29 41 1 -8
BITMAP
FFFFFFC0
3FFFFFC0
0F8003C0
0F8000C0
0F8000C0
0F800040
0F800040
0F800000
0F800000
0F800000
0F800000
0F800200
0F800200
0F800600
0F801E00
0FFFFE00
0FFFFE00
0F800E00
0F800600
0F800200
0F800200
0F800000
0F800000
0F800000
0F800000
0F800018
0F800030
0F800030
0F800070
0F8000E0
0FC007E0
3FFFFFE0
FFFFFFE0
00000380
00000700
00000E00
00000E00
00000E18
00000FF8
000007F0
000003C0
ENDCHAR
STARTCHAR 0119
ENCODING 281
SWIDTH 440 0
DWIDTH 22 0
BBX 20 31 1 -7
BITMAP
03FE00
07BF00
1C0F80
1807C0
3803C0
7003E0
7003E0
7003E0
FFFFE0
F00000
F00000
F00000
F00000
F00000
F80000
F80010
7C0030
7C0060
7F00C0
3FC3C0
1FFF80
0FFF00
07FE00
000C00
001800
003800
003800
003860
003FC0
001F80
000F00
ENDCHAR
STARTCHAR 011A
ENCODING 282
SWIDTH 620 0
DWIDTH 31 0
BBX 29 44 1 0
BITMAP
01800C00
00C01800
00703800
0038F000
003DE000
001FC000
000FC000
00078000
00000000
00000000
00000000
FFFFFFC0
3FFFFFC0
0F8003C0
0F8000C0
0F8000C0
0F800040
0F800040
0F800000
0F800000
0F800000
0F800000
0F800200
0F800200
0F800600
0F801E00
0FFFFE00
0FFFFE00
0F800E00
0F800600
0F800200
0F800200
0F800000
0F800000
0F800000
0F800000
0F800018
0F800030
0F800030
0F800070
0F8000F0
0FC003E0
3FFFFFE0
FFFFFFE0
ENDCHAR
STARTCHAR 011B
ENCODING 283
SWIDTH 440 0
DWIDTH 22 0
BBX 20 34 1 0
BITMAP
180040
0C01C0
0E0380
070700
038E00
01FE00
01FC00
00F800
007000
000000
000000
03FE00
07BF00
0C0F80
1807C0
3803C0
7003E0
7003E0
7003E0
FFFFE0
F00000
F00000
F00000
F00000
F00000
F80000
F80010
7C0030
7C0060
7F00E0
3FC3C0
1FFF80
0FFF00
07FC00
ENDCHAR
STARTCHAR 011C
ENCODING 284
SWIDTH 720 0
DWIDTH 36 0
BBX 33 44 2 0
BITMAP
0001E00000
0001F00000
0003F80000
0007BC0000
00071C0000
000E0E0000
001C070000
0030018000
0000000000
0000000000
0007F80400
003FFF9C00
00FC03FC00
03F000FC00
07E0007C00
0F80003C00
1F80001C00
1F00000C00
3F00000C00
3E00000400
7E00000000
7E00000000
7C00000000
FC00000000
FC00000000
FC00000000
FC0007FF80
FC0001FE00
FC00007C00
FC00007C00
FC00007C00
FC00007C00
7C00007C00
7E00007C00
7E00007C00
3E00007C00
3F00007C00
1F00007C00
1F80007C00
0FC0007C00
07E0007C00
01F801FC00
007F8FF000
001FFF0000
ENDCHAR
STARTCHAR 011D
ENCODING 285
SWIDTH 460 0
DWIDTH 23 0
BBX 22 45 1 -11
BITMAP
003800
007C00
00FC00
00FE00
01CF00
038780
070180
0600C0
0C0060
000000
000000
03FF00
070FFC
0E07FC
1E03C0
1C03C0
3C03E0
3C01E0
3C01E0
3C01E0
3E01E0
3E01C0
1E01C0
1F03C0
0F8380
07CF00
03FC00
060000
0C0000
180000
3C0000
3FFF80
1FFFE0
0FFFF0
0C7FF8
180018
300008
700008
700008
F00018
F00010
F80060
7F03C0
3FFF00
1FFC00
ENDCHAR
STARTCHAR 011E
ENCODING 286
SWIDTH 720 0
DWIDTH 36 0
BBX 33 44 2 0
BITMAP
0040060000
0040060000
00600C0000
00600C0000
00701C0000
003FF80000
001FF80000
000FE00000
0000000000
0000000000
0007F80400
003FFF9C00
00FC03FC00
03F000FC00
07E0007C00
0F80003C00
1F80001C00
1F00000C00
3F00000C00
3E00000400
7E00000000
7E00000000
7C00000000
FC00000000
FC00000000
FC00000000
FC0007FF80
FC0001FE00
FC00007C00
FC00007C00
FC00007C00
FC00007C00
7C00007C00
7E00007C00
7E00007C00
3E00007C00
3F00007C00
1F00007C00
1F80007C00
0FC0007C00
07E0007C00
01F801FC00
007F8FF000
001FFF0000
ENDCHAR
STARTCHAR 011F
ENCODING 287
SWIDTH 460 0
DWIDTH 23 0
BBX 22 44 1 -11
BITMAP
0C0040
0C00C0
0E00C0
060180
078380
03FF00
01FE00
007C00
000000
000000
03FF00
070FFC
0E07FC
1E03C0
1C03C0
3C03E0
3C01E0
3C01E0
3C01E0
3E01E0
3E01C0
1E01C0
1F03C0
0F8380
07CF00
03FC00
060000
0C0000
180000
3C0000
3FFF80
1FFFE0
0FFFF0
0C7FF8
180018
300008
700008
700008
F00018
F00010
F80060
7F03C0
3FFF00
1FFC00
ENDCHAR
STARTCHAR 0120
ENCODING 288
SWIDTH 720 0
DWIDTH 36 0
BBX 33 42 2 0
BITMAP
0000C00000
0001E00000
0001F00000
0001F00000
0001E00000
0000000000
0000000000
0000000000
0007F80400
003FFF9C00
00FC03FC00
03F000FC00
07E0007C00
0F80003C00
1F80001C00
1F00000C00
3F00000C00
3E00000400
7E00000000
7E00000000
7C00000000
FC00000000
FC00000000
FC00000000
FC0007FF80
FC0001FE00
FC00007C00
FC00007C00
FC00007C00
FC00007C00
7C00007C00
7E00007C00
7E00007C00
3E00007C00
3F00007C00
1F00007C00
1F80007C00
0FC0007C00
07E0007C00
01F801FC00
007F8FF000
001FFF0000
ENDCHAR
STARTCHAR 0121
ENCODING 289
SWIDTH 460 0
DWIDTH 23 0
BBX 22 42 1 -11
BITMAP
007000
00F800
00F800
00F800
007000
000000
000000
000000
03FF00
070FFC
0E07FC
1E03C0
1C03C0
3C03E0
3C01E0
3C01E0
3C01E0
3E01E0
3E01C0
1E01C0
1F03C0
0F8380
07CF00
03FC00
060000
0C0000
180000
3C0000
3FFF80
1FFFE0
0FFFF0
0C7FF8
180018
300008
700008
700008
F00018
F00010
F80060
7F03C0
3FFF00
1FFC00
ENDCHAR
STARTCHAR 0122
ENCODING 290
SWIDTH 720 0
DWIDTH 36 0
BBX 33 49 2 -15
BITMAP
0007F80400
003FFF9C00
00FC03FC00
03F000FC00
07E0007C00
0F80003C00
1F80001C00
1F00000C00
3F00000C00
3E00000400
7E00000000
7E00000000
7C00000000
FC00000000
FC00000000
FC00000000
FC0007FF80
FC0001FE00
FC00007C00
FC00007C00
FC00007C00
FC00007C00
7C00007C00
7E00007C00
7E00007C00
3E00007C00
3F00007C00
1F00007C00
1F80007C00
0FC0007C00
07E0007C00
01F801FC00
007F8FF000
001FFF0000
0000000000
0000000000
0000000000
0003C00000
0007E00000
0007F00000
0007F00000
0003F00000
0000300000
0000200000
0000600000
0000400000
0000800000
0003000000
0002000000
ENDCHAR
STARTCHAR 0123
ENCODING 291
SWIDTH 460 0
DWIDTH 23 0
BBX 22 48 1 -10
BITMAP
001800
002000
004000
008000
018000
018000
01F800
01FC00
01FC00
00FC00
007800
000000
000000
000000
03FF00
070FFC
0E07FC
1E03C0
1C03C0
3C03E0
3C01E0
3C01E0
3C01E0
3E01E0
3E01C0
1E01C0
1F03C0
0F8380
07CF00
03FC00
060000
0C0000
180000
3C0000
3FFF80
1FFFE0
0FFFF0
0C7FF8
180018
300008
700008
700008
F00018
F00010
F80060
7F03C0
3FFF00
1FFC00
ENDCHAR
STARTCHAR 0124
ENCODING 292
SWIDTH 720 0
DWIDTH 36 0
BBX 33 45 1 0
BITMAP
0000E00000
0001F00000
0003F80000
0007B80000
00071C0000
000E0E0000
001C070000
0038030000
0020018000
0000000000
0000000000
0000000000
FFF80FFF80
3FE003FE00
0F8000F800
0F8000F800
0F8000F800
0F8000F800
0F8000F800
0F8000F800
0F8000F800
0F8000F800
0F8000F800
0F8000F800
0F8000F800
0F8000F800
0F8000F800
0FFFFFF800
0FFFFFF800
0F8000F800
0F8000F800
0F8000F800
0F8000F800
0F8000F800
0F8000F800
0F8000F800
0F8000F800
0F8000F800
0F8000F800
0F8000F800
0F8000F800
0F8000F800
0FC000FC00
3FE003FE00
FFF80FFF80
ENDCHAR
STARTCHAR 0125
ENCODING 293
SWIDTH 500 0
DWIDTH 25 0
BBX 23 44 1 0
BITMAP
003C00
007E00
00FE00
01E700
01C380
0381C0
0700C0
0C0060
000000
000000
060000
3E0000
FE0000
1E0000
1E0000
1E0000
1E0000
1E0000
1E0000
1E0000
1E0000
1E3FC0
1E7FE0
1EE3E0
1F81F0
1F00F0
1E00F0
1E00F0
1E00F0
1E00F0
1E00F0
1E00F0
1E00F0
1E00F0
1E00F0
1E00F0
1E00F0
1E00F0
1E00F0
1E00F0
1E00F0
1F00F8
3F01FC
FFC7FE
ENDCHAR
STARTCHAR 0126
ENCODING 294
SWIDTH 720 0
DWIDTH 36 0
BBX 33 33 1 0
BITMAP
FFF80FFF80
3FE003FE00
0F8000FC00
0F8000F800
0F8000F800
FFFFFFFF80
FFFFFFFF80
0F8000F800
0F8000F800
0F8000F800
0F8000F800
0F8000F800
0F8000F800
0F8000F800
0F8000F800
0FFFFFF800
0FFFFFF800
0F8000F800
0F8000F800
0F8000F800
0F8000F800
0F8000F800
0F8000F800
0F8000F800
0F8000F800
0F8000F800
0F8000F800
0F8000F800
0F8000F800
0F8000F800
0FC000FC00
3FE003FE00
FFF80FFF80
ENDCHAR
STARTCHAR 0127
ENCODING 295
SWIDTH 500 0
DWIDTH 25 0
BBX 23 34 1 0
BITMAP
060000
3E0000
FE0000
1E0000
1E0000
FFFF80
FFFF80
1E0000
1E0000
1E0000
1E0000
1E3FC0
1E7FE0
1EE3E0
1F81F0
1F00F0
1E00F0
1E00F0
1E00F0
1E00F0
1E00F0
1E00F0
1E00F0
1E00F0
1E00F0
1E00F0
1E00F0
1E00F0
1E00F0
1E00F0
1E00F0
1F00F8
3F01FC
FFC7FE
ENDCHAR
STARTCHAR 0128
ENCODING 296
SWIDTH 320 0
DWIDTH 16 0
BBX 16 41 0 0
BITMAP
1E01
3FC3
7FFE
C1FE
C078
0000
0000
0000
3FFE
0FF8
03E0
03E0
03E0
03E0
03E0
03E0
03E0
03E0
03E0
03E0
03E0
03E0
03E0
03E0
03E0
03E0
03E0
03E0
03E0
03E0
03E0
03E0
03E0
03E0
03E0
03E0
03E0
03E0
03E0
07F0
3FFE
ENDCHAR
STARTCHAR 0129
ENCODING 297
SWIDTH 280 0
DWIDTH 14 0
BBX 16 31 -1 0
BITMAP
0001
3F03
7FC6
FFFE
C1FC
8020
0000
0000
00C0
07C0
1FC0
03C0
03C0
03C0
03C0
03C0
03C0
03C0
03C0
03C0
03C0
03C0
03C0
03C0
03C0
03C0
03C0
03C0
03E0
07E0
3FF8
ENDCHAR
STARTCHAR 012A
ENCODING 298
SWIDTH 320 0
DWIDTH 16 0
BBX 16 39 1 0
BITMAP
FFFF
FFFF
FFFF
0000
0000
0000
7FFC
1FF0
07C0
07C0
07C0
07C0
07C0
07C0
07C0
07C0
07C0
07C0
07C0
07C0
07C0
07C0
07C0
07C0
07C0
07C0
07C0
07C0
07C0
07C0
07C0
07C0
07C0
07C0
07C0
07C0
07C0
0FE0
7FFC
ENDCHAR
STARTCHAR 012B
ENCODING 299
SWIDTH 280 0
DWIDTH 14 0
BBX 16 29 0 0
BITMAP
FFFF
FFFF
FFFF
0000
0000
0000
0180
0F80
3F80
0780
0780
0780
0780
0780
0780
0780
0780
0780
0780
0780
0780
0780
0780
0780
0780
0780
07C0
0FC0
7FF0
ENDCHAR
STARTCHAR 012C
ENCODING 300
SWIDTH 320 0
DWIDTH 16 0
BBX 14 44 1 0
BITMAP
8004
C00C
C00C
E018
7038
7FF0
3FF0
1FC0
0000
0000
0000
7FFC
1FF0
07C0
07C0
07C0
07C0
07C0
07C0
07C0
07C0
07C0
07C0
07C0
07C0
07C0
07C0
07C0
07C0
07C0
07C0
07C0
07C0
07C0
07C0
07C0
07C0
07C0
07C0
07C0
07C0
07C0
0FE0
7FFC
ENDCHAR
STARTCHAR 012D
ENCODING 301
SWIDTH 280 0
DWIDTH 14 0
BBX 13 33 0 0
BITMAP
8008
8008
C018
C038
F070
7FF0
3FE0
0F80
0000
0000
0180
0F80
3F80
0780
0780
0780
0780
0780
0780
0780
0780
0780
0780
0780
0780
0780
0780
0780
0780
0780
07C0
0FC0
7FF0
ENDCHAR
STARTCHAR 012E
ENCODING 302
SWIDTH 320 0
DWIDTH 16 0
BBX 18 41 1 -8
BITMAP
FFFC00
3FE000
0FC000
0F8000
0F8000
0F8000
0F8000
0F8000
0F8000
0F8000
0F8000
0F8000
0F8000
0F8000
0F8000
0F8000
0F8000
0F8000
0F8000
0F8000
0F8000
0F8000
0F8000
0F8000
0F8000
0F8000
0F8000
0F8000
0F8000
0F8000
0FC000
1FE000
FFFC00
001800
003000
007000
007000
0070C0
007F80
003F00
001E00
ENDCHAR
STARTCHAR 012F
ENCODING 303
SWIDTH 280 0
DWIDTH 14 0
BBX 13 42 1 -8
BITMAP
0E00
1F00
1F00
1F00
0E00
0000
0000
0000
0000
0000
0000
0300
1F00
7F00
0F00
0F00
0F00
0F00
0F00
0F00
0F00
0F00
0F00
0F00
0F00
0F00
0F00
0F00
0F00
0F00
0F00
0F80
1F80
FFE0
0300
0600
0E00
0E00
0E18
0FF0
07E0
03C0
ENDCHAR
STARTCHAR 0130
ENCODING 304
SWIDTH 320 0
DWIDTH 16 0
BBX 13 42 2 0
BITMAP
0200
0F80
0F80
0F80
0700
0000
0000
0000
0000
FFF8
3FE0
0F80
0F80
0F80
0F80
0F80
0F80
0F80
0F80
0F80
0F80
0F80
0F80
0F80
0F80
0F80
0F80
0F80
0F80
0F80
0F80
0F80
0F80
0F80
0F80
0F80
0F80
0F80
0F80
0F80
1FC0
FFF8
ENDCHAR
STARTCHAR 0131
ENCODING 305
SWIDTH 280 0
DWIDTH 14 0
BBX 11 23 1 1
BITMAP
0300
1F00
7F00
0F00
0F00
0F00
0F00
0F00
0F00
0F00
0F00
0F00
0F00
0F00
0F00
0F00
0F00
0F00
0F00
0F00
0F80
1F80
FFE0
ENDCHAR
STARTCHAR 0132
ENCODING 306
SWIDTH 700 0
DWIDTH 35 0
BBX 32 33 2 0
BITMAP
FFF81FFF
3FE007F8
0F8003F0
0F8001F0
0F8001F0
0F8001F0
0F8001F0
0F8001F0
0F8001F0
0F8001F0
0F8001F0
0F8001F0
0F8001F0
0F8001F0
0F8001F0
0F8001F0
0F8001F0
0F8001F0
0F8001F0
0F8001F0
0F8001F0
0F8001F0
0F8001F0
0F8001F0
0F8001F0
0F8001F0
0F8001F0
0F8001E0
0F81E1E0
0F81E1E0
0F81F3C0
1FC1FF80
FFF8FF00
ENDCHAR
STARTCHAR 0133
ENCODING 307
SWIDTH 520 0
DWIDTH 26 0
BBX 21 46 1 -12
BITMAP
0E0070
1F00F8
1F00F8
1F00F8
0E0070
000000
000000
000000
000000
000000
000000
070018
1F00F8
7F03F8
0F0078
0F0078
0F0078
0F0078
0F0078
0F0078
0F0078
0F0078
0F0078
0F0078
0F0078
0F0078
0F0078
0F0078
0F0078
0F0078
0F0078
0F8078
1F8078
FFE078
000078
000078
000078
000078
000078
000078
000070
007070
00F8E0
00FCC0
007F80
000C00
ENDCHAR
STARTCHAR 0134
ENCODING 308
SWIDTH 380 0
DWIDTH 19 0
BBX 19 45 1 0
BITMAP
007800
00F800
01FC00
01FE00
038F00
070700
060380
0C00C0
180060
000000
000000
000000
0FFF80
03FE00
00F800
00F800
00F800
00F800
00F800
00F800
00F800
00F800
00F800
00F800
00F800
00F800
00F800
00F800
00F800
00F800
00F800
00F800
00F800
00F800
00F800
00F800
00F800
00F800
00F800
00F800
70F000
F8F000
F8E000
FDC000
7F8000
ENDCHAR
STARTCHAR 0135
ENCODING 309
SWIDTH 340 0
DWIDTH 17 0
BBX 17 45 0 -11
BITMAP
00F000
01F800
01FC00
03DC00
070E00
0E0700
0C0380
180180
000000
000000
000000
003800
00F800
03F800
007800
007800
007800
007800
007800
007800
007800
007800
007800
007800
007800
007800
007800
007800
007800
007800
007800
007800
007800
007800
007800
007800
007800
007800
007800
007800
007000
707000
F8E000
FCC000
7F8000
ENDCHAR
STARTCHAR 0136
ENCODING 310
SWIDTH 700 0
DWIDTH 35 0
BBX 34 48 1 -15
BITMAP
FFF83FFF00
3FE007F800
0F8003E000
0F80038000
0F80070000
0F800E0000
0F801C0000
0F80380000
0F80700000
0F80E00000
0F81C00000
0F83800000
0F87000000
0F9E000000
0FBE000000
0FFF000000
0FFF800000
0FDFC00000
0F8FC00000
0F87E00000
0F83F00000
0F81F80000
0F80FC0000
0F807E0000
0F803F0000
0F801F8000
0F801FC000
0F800FE000
0F8007F000
0F8003F800
0F8003FC00
3FE003FE00
FFF81FFFC0
0000000000
0000000000
0000000000
0001E00000
0003F00000
0003F80000
0003F80000
0001F80000
0000180000
0000100000
0000300000
0000200000
0000400000
0001800000
0001000000
ENDCHAR
STARTCHAR 0137
ENCODING 311
SWIDTH 520 0
DWIDTH 26 0
BBX 24 49 1 -15
BITMAP
060000
3E0000
FE0000
1E0000
1E0000
1E0000
1E0000
1E0000
1E0000
1E0000
1E0000
1E07FE
1E01F0
1E01C0
1E0380
1E0600
1E0C00
1E1800
1E3000
1E6000
1EE000
1FF000
1EF800
1E7C00
1E3E00
1E3E00
1E1F00
1E0F80
1E07C0
1E07C0
1E03E0
1E01F0
3F01FC
FFC7FF
000000
000000
000000
00F000
01F800
01FC00
01FC00
00FC00
000C00
000800
001800
001000
002000
00C000
008000
ENDCHAR
STARTCHAR 0138
ENCODING 312
SWIDTH 500 0
DWIDTH 25 0
BBX 23 23 1 1
BITMAP
FFC0FC
3F01FC
1E01FC
1E0300
1E0300
1E0200
1E0600
1E0600
1E0C00
1E1C00
1E7800
1FF800
1E3C00
1E1E00
1E1F00
1E0F80
1E0F80
1E07C0
1E03C0
1E03E0
1E01F0
3F00F8
FFC0FE
ENDCHAR
STARTCHAR 0139
ENCODING 313
SWIDTH 620 0
DWIDTH 31 0
BBX 29 45 1 0
BITMAP
00010000
00078000
000F8000
001F8000
003E0000
007C0000
00F00000
01C00000
03800000
00000000
00000000
00000000
FFF80000
3FE00000
0FC00000
0F800000
0F800000
0F800000
0F800000
0F800000
0F800000
0F800000
0F800000
0F800000
0F800000
0F800000
0F800000
0F800000
0F800000
0F800000
0F800000
0F800000
0F800000
0F800000
0F800000
0F800000
0F800008
0F800018
0F800018
0F800030
0F800070
0F8000F0
0FC003F0
3FFFFFE0
FFFFFFE0
ENDCHAR
STARTCHAR 013A
ENCODING 314
SWIDTH 260 0
DWIDTH 13 0
BBX 12 45 0 0
BITMAP
0020
00F0
01F0
03F0
07C0
0F80
1E00
3800
7000
0000
0000
0300
1F00
7F00
0F00
0F00
0F00
0F00
0F00
0F00
0F00
0F00
0F00
0F00
0F00
0F00
0F00
0F00
0F00
0F00
0F00
0F00
0F00
0F00
0F00
0F00
0F00
0F00
0F00
0F00
0F00
0F00
0F00
1F80
FFE0
ENDCHAR
STARTCHAR 013B
ENCODING 315
SWIDTH 620 0
DWIDTH 31 0
BBX 29 48 1 -15
BITMAP
FFF80000
3FE00000
0FC00000
0F800000
0F800000
0F800000
0F800000
0F800000
0F800000
0F800000
0F800000
0F800000
0F800000
0F800000
0F800000
0F800000
0F800000
0F800000
0F800000
0F800000
0F800000
0F800000
0F800000
0F800000
0F800008
0F800018
0F800018
0F800030
0F800070
0F8000F0
0FC003F0
3FFFFFE0
FFFFFFE0
00000000
00000000
00000000
003C0000
007E0000
007F0000
007F0000
003F0000
00030000
00020000
00060000
00040000
00080000
00300000
00200000
ENDCHAR
STARTCHAR 013C
ENCODING 316
SWIDTH 260 0
DWIDTH 13 0
BBX 11 49 0 -15
BITMAP
0300
1F00
7F00
0F00
0F00
0F00
0F00
0F00
0F00
0F00
0F00
0F00
0F00
0F00
0F00
0F00
0F00
0F00
0F00
0F00
0F00
0F00
0F00
0F00
0F00
0F00
0F00
0F00
0F00
0F00
0F00
0F00
1F80
FFE0
0000
0000
0000
0F00
1F80
1FC0
1FC0
0FC0
00C0
0080
0180
0100
0200
0C00
0800
ENDCHAR
STARTCHAR 013D
ENCODING 317
SWIDTH 620 0
DWIDTH 31 0
BBX 29 34 1 0
BITMAP
00000300
FFF80780
3FE00F00
0FC00F00
0F800E00
0F801C00
0F801800
0F803800
0F803000
0F806000
0F800000
0F800000
0F800000
0F800000
0F800000
0F800000
0F800000
0F800000
0F800000
0F800000
0F800000
0F800000
0F800000
0F800000
0F800000
0F800008
0F800018
0F800018
0F800030
0F800070
0F8000F0
0FC003F0
3FFFFFE0
FFFFFFE0
ENDCHAR
STARTCHAR 013E
ENCODING 318
SWIDTH 400 0
DWIDTH 20 0
BBX 19 34 0 0
BITMAP
0300C0
1F01E0
7F03C0
0F03C0
0F0380
0F0700
0F0600
0F0E00
0F0C00
0F1800
0F0000
0F0000
0F0000
0F0000
0F0000
0F0000
0F0000
0F0000
0F0000
0F0000
0F0000
0F0000
0F0000
0F0000
0F0000
0F0000
0F0000
0F0000
0F0000
0F0000
0F0000
0F0000
1F8000
FFE000
ENDCHAR
STARTCHAR 013F
ENCODING 319
SWIDTH 620 0
DWIDTH 31 0
BBX 29 33 1 0
BITMAP
FFF80000
3FE00000
0FC00000
0F800000
0F800000
0F800000
0F800000
0F800000
0F800000
0F800000
0F800000
0F800000
0F800000
0F800000
0F800000
0F8000E0
0F8001F0
0F8001F0
0F8001F0
0F8000E0
0F800000
0F800000
0F800000
0F800000
0F800008
0F800018
0F800018
0F800030
0F800070
0F8000F0
0FC003F0
3FFFFFE0
FFFFFFE0
ENDCHAR
STARTCHAR 0140
ENCODING 320
SWIDTH 380 0
DWIDTH 19 0
BBX 18 34 0 0
BITMAP
030000
1F0000
7F0000
0F0000
0F0000
0F0000
0F0000
0F0000
0F0000
0F0000
0F0000
0F0000
0F0000
0F0000
0F0000
0F0000
0F0380
0F07C0
0F07C0
0F07C0
0F0380
0F0000
0F0000
0F0000
0F0000
0F0000
0F0000
0F0000
0F0000
0F0000
0F0000
0F0000
1F8000
FFE000
ENDCHAR
STARTCHAR 0141
ENCODING 321
SWIDTH 600 0
DWIDTH 30 0
BBX 29 33 1 0
BITMAP
FFF80000
3FE00000
0FC00000
0F800000
0F800000
0F800000
0F800000
0F800000
0F800000
0F800000
0F818000
0F878000
0F8F0000
0FBC0000
0FF00000
0FE00000
0F800000
1F800000
7F800000
FF800000
CF800000
0F800000
0F800000
0F800000
0F800008
0F800018
0F800018
0F800030
0F800070
0F8000F0
0FC003F0
3FFFFFE0
FFFFFFE0
ENDCHAR
STARTCHAR 0142
ENCODING 322
SWIDTH 280 0
DWIDTH 14 0
BBX 11 34 1 0
BITMAP
0300
1F00
7F00
0F00
0F00
0F00
0F00
0F00
0F00
0F00
0F00
0F20
0F60
0FC0
0F80
0F00
1F00
3F00
7F00
4F00
0F00
0F00
0F00
0F00
0F00
0F00
0F00
0F00
0F00
0F00
0F00
0F00
1F80
FFE0
ENDCHAR
STARTCHAR 0143
ENCODING 323
SWIDTH 720 0
DWIDTH 36 0
BBX 33 45 2 0
BITMAP
0000040000
00001E0000
00003E0000
00007E0000
0000F80000
0001F00000
0003C00000
0007000000
000E000000
0000000000
0000000000
0000000000
FF0001FF80
3F80007E00
1FC0003C00
0FE0001C00
0FE0001800
0FF0001800
0FF8001800
0DFC001800
0CFE001800
0C7E001800
0C3F001800
0C1F801800
0C1FC01800
0C0FE01800
0C07E01800
0C03F01800
0C01F81800
0C01FC1800
0C00FE1800
0C007E1800
0C003F1800
0C001F9800
0C001FD800
0C000FF800
0C0007F800
0C0003F800
0C0001F800
0C0001F800
0C0000F800
0E00007800
1E00003800
3F00001800
FFC0000800
ENDCHAR
STARTCHAR 0144
ENCODING 324
SWIDTH 480 0
DWIDTH 24 0
BBX 23 34 1 0
BITMAP
000020
0000F0
0001F0
0003F0
0007C0
000F80
001E00
003800
007000
000000
000000
1E1FC0
FE7FE0
3EE3E0
1F81F0
1F00F0
1E00F0
1E00F0
1E00F0
1E00F0
1E00F0
1E00F0
1E00F0
1E00F0
1E00F0
1E00F0
1E00F0
1E00F0
1E00F0
1E00F0
1E00F0
1E00F0
3F01F8
FFC7FE
ENDCHAR
STARTCHAR 0145
ENCODING 325
SWIDTH 720 0
DWIDTH 36 0
BBX 33 48 2 -15
BITMAP
FF0001FF80
3F80007E00
1FC0003C00
0FE0001C00
0FE0001800
0FF0001800
0FF8001800
0DFC001800
0CFE001800
0C7E001800
0C3F001800
0C1F801800
0C1FC01800
0C0FE01800
0C07E01800
0C03F01800
0C01F81800
0C01FC1800
0C00FE1800
0C007E1800
0C003F1800
0C001F9800
0C001FD800
0C000FF800
0C0007F800
0C0003F800
0C0001F800
0C0001F800
0C0000F800
0E00007800
1E00003800
3F00001800
FFC0000800
0000000800
0000000000
0000000000
0007800000
000FC00000
000FE00000
000FE00000
0007E00000
0000600000
0000400000
0000C00000
0000800000
0001000000
0006000000
0004000000
ENDCHAR
STARTCHAR 0146
ENCODING 326
SWIDTH 480 0
DWIDTH 24 0
BBX 23 38 1 -14
BITMAP
1E1FC0
FE7FE0
3EE3E0
1F81F0
1F00F0
1E00F0
1E00F0
1E00F0
1E00F0
1E00F0
1E00F0
1E00F0
1E00F0
1E00F0
1E00F0
1E00F0
1E00F0
1E00F0
1E00F0
1E00F0
1E00F0
3F01F8
FFC7FE
000000
000000
000000
00F000
01F800
01FC00
01FC00
00FC00
000C00
000800
001800
001000
002000
00C000
008000
ENDCHAR
STARTCHAR 0147
ENCODING 327
SWIDTH 720 0
DWIDTH 36 0
BBX 33 44 2 0
BITMAP
0060030000
0030060000
00180C0000
001E3C0000
000F780000
0007F00000
0003E00000
0003E00000
0000000000
0000000000
0000000000
FF0001FF80
3F80007E00
1FC0003C00
0FE0001C00
0FE0001800
0FF0001800
0FF8001800
0DFC001800
0CFE001800
0C7E001800
0C3F001800
0C1F801800
0C1FC01800
0C0FE01800
0C07E01800
0C03F01800
0C01F81800
0C01FC1800
0C00FE1800
0C007E1800
0C003F1800
0C001F9800
0C001FD800
0C000FF800
0C0007F800
0C0003F800
0C0001F800
0C0001F800
0C0000F800
0E00007800
1E00003800
3F00001800
FFC0000800
ENDCHAR
STARTCHAR 0148
ENCODING 328
SWIDTH 480 0
DWIDTH 24 0
BBX 23 34 1 0
BITMAP
0C0030
060060
0300C0
038380
01E780
00FF00
007E00
007C00
003C00
000000
000000
1E1FC0
FE7FE0
3EE3E0
1F81F0
1F00F0
1E00F0
1E00F0
1E00F0
1E00F0
1E00F0
1E00F0
1E00F0
1E00F0
1E00F0
1E00F0
1E00F0
1E00F0
1E00F0
1E00F0
1E00F0
1E00F0
3F01F8
FFC7FE
ENDCHAR
STARTCHAR 0149
ENCODING 329
SWIDTH 540 0
DWIDTH 27 0
BBX 26 35 1 0
BITMAP
20000000
F8000000
FC000000
FC000000
FC000000
7C000000
04000000
0C000000
08000000
10000000
60000000
40000000
07C7F000
3FCFF800
0FF8FC00
07E03C00
07C03C00
07C03E00
07C03E00
07C03E00
07C03E00
07C03E00
07C03E00
07C03E00
07C03E00
07C03E00
07C03E00
07C03E00
07C03E00
07C03E00
07C03E00
07C03E00
07C03E00
0FE07F00
3FF9FFC0
ENDCHAR
STARTCHAR 014A
ENCODING 330
SWIDTH 700 0
DWIDTH 35 0
BBX 32 33 1 1
BITMAP
01C07FC0
0FC1FFF0
3FC3FFF8
FFC701F8
0FCC00FC
07D8007C
07D0007E
07E0003E
07E0003E
07C0003E
07C0003F
07C0001F
07C0001F
07C0001F
07C0001F
07C0001F
07C0001F
07C0001F
07C0001F
07C0001F
07C0001F
07C0001F
07C0001F
07C0001F
07C0001E
07C0001E
07C0003E
07C0003C
07C0703C
07C0F878
0FE0F870
1FF0FDE0
7FFC7FC0
ENDCHAR
STARTCHAR 014B
ENCODING 331
SWIDTH 500 0
DWIDTH 25 0
BBX 20 34 1 -10
BITMAP
1E1FC0
FE7FE0
3EE3E0
1F81F0
1F00F0
1E00F0
1E00F0
1E00F0
1E00F0
1E00F0
1E00F0
1E00F0
1E00F0
1E00F0
1E00F0
1E00F0
1E00F0
1E00F0
1E00F0
1E00F0
1E00F0
3F00F0
FFC0F0
0000F0
0000F0
0000F0
0000F0
0000F0
0000F0
0000E0
00E0E0
01F1C0
01F980
00FF00
ENDCHAR
STARTCHAR 014C
ENCODING 332
SWIDTH 720 0
DWIDTH 36 0
BBX 33 39 2 0
BITMAP
007FFF8000
007FFF8000
007FFF8000
0000000000
0000000000
0007F00000
007FFE0000
00F81F8000
03E007E000
07C001F000
0F8000F800
1F0000F800
1F00007C00
3E00007E00
3E00003E00
7E00003F00
7C00003F00
FC00001F00
FC00001F00
FC00001F80
FC00001F80
FC00001F80
FC00001F80
FC00001F80
FC00001F80
FC00001F80
FC00001F00
7C00003F00
7E00003F00
7E00003F00
3E00003E00
3F00007E00
1F00007C00
0F8000F800
0F8001F000
07C003E000
01F007C000
00FF7F8000
003FFC0000
ENDCHAR
STARTCHAR 014D
ENCODING 333
SWIDTH 500 0
DWIDTH 25 0
BBX 23 29 1 0
BITMAP
0FFFF0
0FFFF0
0FFFF0
000000
000000
000000
03FF00
0707C0
1E03E0
1C01F0
3800F8
780078
78007C
F8007C
F8003C
F8003C
F8003E
F8003E
F8003E
F8003C
F8003C
78003C
7C003C
7C0078
3E0070
1E00F0
0F00E0
07C3C0
03FF00
ENDCHAR
STARTCHAR 014E
ENCODING 334
SWIDTH 720 0
DWIDTH 36 0
BBX 33 44 2 0
BITMAP
0040060000
0040060000
00600C0000
00600C0000
00701C0000
003FF80000
001FF00000
000FE00000
0000000000
0000000000
0007F00000
007FFE0000
00F81F8000
03E007E000
07C001F000
0F8000F800
1F0000F800
1F00007C00
3E00007E00
3E00003E00
7E00003F00
7C00003F00
FC00001F00
FC00001F00
FC00001F80
FC00001F80
FC00001F80
FC00001F80
FC00001F80
FC00001F80
FC00001F80
FC00001F00
7C00003F00
7E00003F00
7E00003F00
3E00003E00
3F00007E00
1F00007C00
0F8000F800
0F8001F000
07C003E000
01F007C000
00FF7F8000
003FFC0000
ENDCHAR
STARTCHAR 014F
ENCODING 335
SWIDTH 500 0
DWIDTH 25 0
BBX 23 33 1 0
BITMAP
0C0040
0C00C0
0E00C0
060180
078380
03FF00
01FF00
00FC00
000000
000000
03FF00
0707C0
1E03E0
1C01F0
3800F8
780078
78007C
F8007C
F8003C
F8003C
F8003E
F8003E
F8003E
F8003C
F8003C
78003C
7C003C
7C0078
3E0070
1E00F0
0F00E0
07C3C0
03FF00
ENDCHAR
STARTCHAR 0150
ENCODING 336
SWIDTH 720 0
DWIDTH 36 0
BBX 33 44 2 0
BITMAP
0001E1C000
0001E3C000
0003E7C000
0003C78000
00078F0000
00070E0000
00061C0000
000E380000
0000000000
0000000000
0007F00000
007FFE0000
00F81F8000
03E007E000
07C001F000
0F8000F800
1F0000F800
1F00007C00
3E00007E00
3E00003E00
7E00003F00
7C00003F00
FC00001F00
FC00001F00
FC00001F80
FC00001F80
FC00001F80
FC00001F80
FC00001F80
FC00001F80
FC00001F80
FC00001F00
7C00003F00
7E00003F00
7E00003F00
3E00003E00
3F00007E00
1F00007C00
0F8000F800
0F8001F000
07C003E000
01F007C000
00FF7F8000
003FFC0000
ENDCHAR
STARTCHAR 0151
ENCODING 337
SWIDTH 500 0
DWIDTH 25 0
BBX 23 34 1 0
BITMAP
001010
003C38
003C78
0078F8
0078F0
00F1E0
00E3C0
00C380
018600
000000
000000
03FF00
0707C0
1E03E0
1C01F0
3800F8
780078
78007C
F8007C
F8003C
F8003C
F8003E
F8003E
F8003E
F8003C
F8003C
78003C
7C003C
7C0078
3E0070
1E00F0
0F00E0
07C3C0
03FF00
ENDCHAR
STARTCHAR 0152
ENCODING 338
SWIDTH 900 0
DWIDTH 45 0
BBX 43 33 2 1
BITMAP
003FFFFFFF00
00FCFFFFFF00
03E01F800700
07C01F800300
0F800F800300
1F000F800100
3E000F800100
3E000F800000
3E000F800000
7C000F800000
7C000F800000
7C000F800400
FC000F800400
FC000F800C00
FC000F801C00
FC000FFFFC00
FC000FFFFC00
FC000F801C00
FC000F800C00
FC000F800400
FC000F800400
FC000F800000
7C000F800000
7C000F800000
7C000F800000
3E000F800060
3E000F800040
1F000F8000C0
1F000F8001C0
0F801F8003C0
07E01F800780
01FCFFFFFF80
007FFFFFFF80
ENDCHAR
STARTCHAR 0153
ENCODING 339
SWIDTH 700 0
DWIDTH 35 0
BBX 33 23 1 1
BITMAP
03FE07F000
0F0F0C3C00
1E07981E00
1C03F00E00
3801F00F00
7801F00F00
7801F00F00
7800F00F00
F800FFFF80
F800F00000
F800F00000
F800F00000
F800F00000
F800F00000
F800F80000
F800F80000
7800F80080
7C00FC0180
3C01FE0300
3C01BF0E00
1E039FFE00
0F070FFC00
03FE07F000
ENDCHAR
STARTCHAR 0154
ENCODING 340
SWIDTH 660 0
DWIDTH 33 0
BBX 32 45 1 0
BITMAP
00002000
0000F000
0001F000
0003F000
0007C000
000F8000
001E0000
00380000
00700000
00000000
00000000
00000000
FFFFC000
3FFFFC00
0F80FE00
0F801F80
0F800F80
0F800FC0
0F8007C0
0F8007C0
0F8007C0
0F8007C0
0F8007C0
0F8007C0
0F800FC0
0F801F80
0F803F00
0F81FE00
0FFFF800
0FFFC000
0F8FC000
0F87E000
0F83F000
0F81F800
0F80FC00
0F80FE00
0F807E00
0F803F00
0F801F80
0F800FC0
0F800FE0
0F8007F0
0F8003F0
3FE001FC
FFF800FF
ENDCHAR
STARTCHAR 0155
ENCODING 341
SWIDTH 340 0
DWIDTH 17 0
BBX 16 34 1 0
BITMAP
0002
000F
001F
003F
007C
00F8
01E0
0380
0700
0000
0000
0E3F
7E7F
FEFF
1E80
1F00
1F00
1E00
1E00
1E00
1E00
1E00
1E00
1E00
1E00
1E00
1E00
1E00
1E00
1E00
1E00
1F00
3F80
FFE0
ENDCHAR
STARTCHAR 0156
ENCODING 342
SWIDTH 660 0
DWIDTH 33 0
BBX 32 48 1 -15
BITMAP
FFFFC000
3FFFFC00
0F80FE00
0F801F80
0F800F80
0F800FC0
0F8007C0
0F8007C0
0F8007C0
0F8007C0
0F8007C0
0F8007C0
0F800FC0
0F801F80
0F803F00
0F81FE00
0FFFF800
0FFFC000
0F8FC000
0F87E000
0F83F000
0F81F800
0F80FC00
0F80FE00
0F807E00
0F803F00
0F801F80
0F800FC0
0F800FE0
0F8007F0
0F8003F0
3FE001FC
FFF800FF
00000000
00000000
00000000
00078000
000FC000
000FE000
000FE000
0007E000
00006000
00004000
0000C000
00008000
00010000
00060000
00040000
ENDCHAR
STARTCHAR 0157
ENCODING 343
SWIDTH 340 0
DWIDTH 17 0
BBX 16 38 1 -14
BITMAP
0E3F
7E7F
FEFF
1E80
1F00
1F00
1E00
1E00
1E00
1E00
1E00
1E00
1E00
1E00
1E00
1E00
1E00
1E00
1E00
1E00
1F00
3F80
FFE0
0000
0000
0000
1E00
3F00
3F80
3F80
1F80
0180
0100
0300
0200
0400
1800
1000
ENDCHAR
STARTCHAR 0158
ENCODING 344
SWIDTH 660 0
DWIDTH 33 0
BBX 32 44 1 0
BITMAP
00600300
00300E00
00381C00
001C3800
000F7800
0007F000
0007E000
0003C000
00000000
00000000
00000000
FFFFC000
3FFFFC00
0F80FE00
0F801F80
0F800F80
0F800FC0
0F8007C0
0F8007C0
0F8007C0
0F8007C0
0F8007C0
0F8007C0
0F800FC0
0F801F80
0F803F00
0F81FE00
0FFFF800
0FFFC000
0F8FC000
0F87E000
0F83F000
0F81F800
0F80FC00
0F80FE00
0F807E00
0F803F00
0F801F80
0F800FC0
0F800FE0
0F8007F0
0F8003F0
3FE001FC
FFF800FF
ENDCHAR
STARTCHAR 0159
ENCODING 345
SWIDTH 340 0
DWIDTH 17 0
BBX 16 34 1 0
BITMAP
C003
6006
300C
3838
1E78
0FF0
07E0
07C0
03C0
0000
0000
0E3F
7E7F
FEFF
1E80
1F00
1F00
1E00
1E00
1E00
1E00
1E00
1E00
1E00
1E00
1E00
1E00
1E00
1E00
1E00
1E00
1F00
3F80
FFE0
ENDCHAR
STARTCHAR 015A
ENCODING 346
SWIDTH 520 0
DWIDTH 26 0
BBX 22 46 2 -1
BITMAP
000080
0003C0
0007C0
000FC0
001F00
003E00
007800
00E000
01C000
000000
000000
03FC10
0FFFF0
1F07F0
3E01F0
3C0070
780070
780038
780018
7C0018
7C0008
7E0000
3F0000
3F8000
1FE000
1FF800
07FE00
03FF00
01FF80
007FE0
001FF0
0007F8
0003F8
0001FC
0000FC
8000FC
80007C
C0007C
E0007C
E0007C
F000F8
F800F0
7C01F0
7FDFC0
43FF80
401000
ENDCHAR
STARTCHAR 015B
ENCODING 347
SWIDTH 360 0
DWIDTH 18 0
BBX 15 34 2 0
BITMAP
0004
001E
003E
007E
00F8
01F0
03C0
0700
0E00
0000
0000
1FF8
3078
6038
E018
E018
E008
F008
F800
7E00
7F00
3FC0
1FE0
07F0
03F8
00FC
807C
803C
C01C
C01C
C01C
E018
F038
FFE0
ENDCHAR
STARTCHAR 015C
ENCODING 348
SWIDTH 520 0
DWIDTH 26 0
BBX 22 45 2 -1
BITMAP
003C00
003E00
007F00
00F780
01E380
01C1C0
0300E0
060030
000000
000000
03FC10
0FFFF0
1F07F0
3E01F0
3C0070
780070
780038
780018
7C0018
7C0008
7E0000
3F0000
3F8000
1FE000
1FF800
07FE00
03FF00
01FF80
007FE0
001FF0
0007F8
0003F8
0001FC
0000FC
8000FC
80007C
C0007C
E0007C
E0007C
F000F8
F800F0
7C01F0
7FDFC0
43FF80
401000
ENDCHAR
STARTCHAR 015D
ENCODING 349
SWIDTH 360 0
DWIDTH 18 0
BBX 15 34 2 0
BITMAP
0380
07C0
0FE0
0FE0
1E70
3838
701C
600C
C006
0000
0000
1FF8
3078
6038
E018
E018
E008
F008
F800
7E00
7F00
3FC0
1FE0
07F0
03F8
00FC
807C
803C
C01C
C01C
C01C
E018
F038
FFE0
ENDCHAR
STARTCHAR 015E
ENCODING 350
SWIDTH 540 0
DWIDTH 27 0
BBX 22 45 2 -11
BITMAP
03FC10
07FFF0
1F03F0
1E00F0
3C0070
780030
780038
780018
7C0018
7C0008
7E0000
7F0000
3FC000
1FE000
1FF800
07FE00
03FF00
01FF80
007FE0
001FF0
0007F0
0003F8
0001FC
0000FC
8000FC
80007C
C0007C
C0007C
E0007C
F00078
F800F8
7C01F0
7F03E0
63FF80
403E00
003000
006000
007E00
00FF00
000F80
000780
000780
000F00
03FF00
01FC00
ENDCHAR
STARTCHAR 015F
ENCODING 351
SWIDTH 360 0
DWIDTH 18 0
BBX 14 34 2 -10
BITMAP
1FF8
3078
6038
E018
E018
E008
F008
F800
7E00
7F00
3FC0
1FE0
07F8
03F8
00FC
807C
803C
C01C
C01C
C01C
E018
F030
FFE0
0600
0600
0400
0FC0
0FE0
01F0
00F0
00F0
01E0
3FE0
3F80
ENDCHAR
STARTCHAR 0160
ENCODING 352
SWIDTH 520 0
DWIDTH 26 0
BBX 22 45 2 -1
BITMAP
0C0060
0601C0
030380
03C700
01EF00
00FE00
007C00
007800
000000
000000
03FC10
0FFFF0
1F07F0
3E01F0
3C0070
780070
780038
780018
7C0018
7C0008
7E0000
3F0000
3F8000
1FE000
1FF800
07FE00
03FF00
01FF80
007FE0
001FF0
0007F8
0003F8
0001FC
0000FC
8000FC
80007C
C0007C
E0007C
E0007C
F000F8
F800F0
7C01F0
7FDFC0
43FF80
401000
ENDCHAR
STARTCHAR 0161
ENCODING 353
SWIDTH 360 0
DWIDTH 18 0
BBX 15 34 2 0
BITMAP
8006
E00C
701C
3838
1C70
1FE0
0FE0
07C0
0380
0000
0000
1FF8
3078
6038
E018
E018
E008
F008
F800
7E00
7F00
3FC0
1FE0
07F0
03F8
00FC
807C
803C
C01C
C01C
C01C
E018
F038
FFE0
ENDCHAR
STARTCHAR 0162
ENCODING 354
SWIDTH 600 0
DWIDTH 30 0
BBX 28 44 1 -11
BITMAP
FFFFFFF0
FFFFFFF0
F81F01F0
E01F0070
C01F0030
C01F0030
C01F0010
801F0010
001F0000
001F0000
001F0000
001F0000
001F0000
001F0000
001F0000
001F0000
001F0000
001F0000
001F0000
001F0000
001F0000
001F0000
001F0000
001F0000
001F0000
001F0000
001F0000
001F0000
001F0000
001F0000
001F0000
007F8000
01FFF000
000C0000
000C0000
00080000
001F8000
001FC000
0003E000
0001E000
0001E000
0003C000
007FC000
007F0000
ENDCHAR
STARTCHAR 0163
ENCODING 355
SWIDTH 280 0
DWIDTH 14 0
BBX 12 40 2 -11
BITMAP
0400
0400
0C00
1C00
1C00
3C00
FFE0
FC00
3C00
3C00
3C00
3C00
3C00
3C00
3C00
3C00
3C00
3C00
3C00
3C00
3C00
3C00
3C00
3C00
3C00
3E10
3E60
1FC0
0F80
0600
0400
0C00
0F80
0FC0
01E0
01E0
01E0
03E0
7FC0
3F00
ENDCHAR
STARTCHAR 0164
ENCODING 356
SWIDTH 600 0
DWIDTH 30 0
BBX 28 44 1 0
BITMAP
01800C00
00E01800
00703000
0038F000
003DE000
001FC000
000F8000
00078000
00000000
00000000
00000000
FFFFFFF0
FFFFFFF0
FC0F81F0
E00F8070
E00F8030
C00F8030
C00F8010
800F8010
000F8000
000F8000
000F8000
000F8000
000F8000
000F8000
000F8000
000F8000
000F8000
000F8000
000F8000
000F8000
000F8000
000F8000
000F8000
000F8000
000F8000
000F8000
000F8000
000F8000
000F8000
000F8000
000F8000
003FC000
00FFF800
ENDCHAR
STARTCHAR 0165
ENCODING 357
SWIDTH 420 0
DWIDTH 21 0
BBX 18 34 2 0
BITMAP
000180
0003C0
000780
000780
000700
040E00
040C00
0C1C00
1C1800
1C3000
3C0000
FFE000
FC0000
3C0000
3C0000
3C0000
3C0000
3C0000
3C0000
3C0000
3C0000
3C0000
3C0000
3C0000
3C0000
3C0000
3C0000
3C0000
3C0000
3C0000
3E1000
3F3000
1FE000
0FC000
ENDCHAR
STARTCHAR 0166
ENCODING 358
SWIDTH 600 0
DWIDTH 30 0
BBX 28 33 1 0
BITMAP
FFFFFFF0
FFFFFFF0
F81F01F0
E01F0070
C01F0030
C01F0030
C01F0010
801F0010
001F0000
001F0000
001F0000
001F0000
001F0000
001F0000
001F0000
03FFF800
03FFF800
001F0000
001F0000
001F0000
001F0000
001F0000
001F0000
001F0000
001F0000
001F0000
001F0000
001F0000
001F0000
001F0000
001F0000
007FC000
01FFF000
ENDCHAR
STARTCHAR 0167
ENCODING 359
SWIDTH 280 0
DWIDTH 14 0
BBX 12 29 2 0
BITMAP
0400
0400
0C00
1C00
1C00
3C00
FFE0
FC00
3C00
3C00
3C00
3C00
3C00
FFE0
FFE0
3C00
3C00
3C00
3C00
3C00
3C00
3C00
3C00
3C00
3C00
3E10
3F30
1FE0
0FC0
ENDCHAR
STARTCHAR 0168
ENCODING 360
SWIDTH 720 0
DWIDTH 36 0
BBX 33 41 1 0
BITMAP
000F018000
003FE18000
003FFF0000
0061FE0000
00403C0000
0000000000
0000000000
0000000000
FFF801FF80
3FE0007E00
0F80003C00
0F80001C00
0F80001800
0F80001800
0F80001800
0F80001800
0F80001800
0F80001800
0F80001800
0F80001800
0F80001800
0F80001800
0F80001800
0F80001800
0F80001800
0F80001800
0F80001800
0F80001800
0F80001800
0F80001800
0F80001800
0F80001800
0F80001800
0FC0001800
07C0003000
07C0003000
03E0006000
03F000E000
01F803C000
00FFFF8000
003FFE0000
ENDCHAR
STARTCHAR 0169
ENCODING 361
SWIDTH 480 0
DWIDTH 24 0
BBX 23 31 1 0
BITMAP
000060
07E060
0FFFC0
1CFFC0
103F80
000000
000000
000000
FE07F0
3E01F0
1E00F0
1E00F0
1E00F0
1E00F0
1E00F0
1E00F0
1E00F0
1E00F0
1E00F0
1E00F0
1E00F0
1E00F0
1E00F0
1E00F0
1E00F0
1E00F0
1F01F0
1F03F8
0FFEFE
0FFCFE
03F8E0
ENDCHAR
STARTCHAR 016A
ENCODING 362
SWIDTH 720 0
DWIDTH 36 0
BBX 33 39 1 0
BITMAP
003FFFC000
003FFFC000
003FFFC000
0000000000
0000000000
0000000000
FFF801FF80
3FE0007E00
0F80003C00
0F80001C00
0F80001800
0F80001800
0F80001800
0F80001800
0F80001800
0F80001800
0F80001800
0F80001800
0F80001800
0F80001800
0F80001800
0F80001800
0F80001800
0F80001800
0F80001800
0F80001800
0F80001800
0F80001800
0F80001800
0F80001800
0F80001800
0FC0001800
07C0003000
07C0003000
03E0006000
03F000E000
01F803C000
00FFFF8000
003FFE0000
ENDCHAR
STARTCHAR 016B
ENCODING 363
SWIDTH 480 0
DWIDTH 24 0
BBX 23 29 1 0
BITMAP
0FFFF0
0FFFF0
0FFFF0
000000
000000
000000
FE07F0
3E01F0
1E00F0
1E00F0
1E00F0
1E00F0
1E00F0
1E00F0
1E00F0
1E00F0
1E00F0
1E00F0
1E00F0
1E00F0
1E00F0
1E00F0
1E00F0
1E00F0
1F01F0
1F03F8
0FFEFE
0FFCFE
03F8E0
ENDCHAR
STARTCHAR 016C
ENCODING 364
SWIDTH 720 0
DWIDTH 36 0
BBX 33 44 1 0
BITMAP
0020030000
0020020000
0030060000
0030060000
00380E0000
001FFC0000
000FF80000
0007F00000
0000000000
0000000000
0000000000
FFF801FF80
3FE0007E00
0F80003C00
0F80001C00
0F80001800
0F80001800
0F80001800
0F80001800
0F80001800
0F80001800
0F80001800
0F80001800
0F80001800
0F80001800
0F80001800
0F80001800
0F80001800
0F80001800
0F80001800
0F80001800
0F80001800
0F80001800
0F80001800
0F80001800
0F80001800
0FC0001800
07C0003000
07C0003000
03E0006000
03F000E000
01F803C000
00FFFF8000
003FFE0000
ENDCHAR
STARTCHAR 016D
ENCODING 365
SWIDTH 480 0
DWIDTH 24 0
BBX 23 33 1 0
BITMAP
0C00C0
0C00C0
0C00C0
0E0180
070380
07FF00
03FE00
00FC00
000000
000000
FE07F0
3E01F0
1E00F0
1E00F0
1E00F0
1E00F0
1E00F0
1E00F0
1E00F0
1E00F0
1E00F0
1E00F0
1E00F0
1E00F0
1E00F0
1E00F0
1E00F0
1E00F0
1F01F0
1F03F8
0FFEFE
0FFCFE
03F8E0
ENDCHAR
STARTCHAR 016E
ENCODING 366
SWIDTH 720 0
DWIDTH 36 0
BBX 33 45 1 0
BITMAP
0000C00000
0003F00000
0006180000
000C0C0000
0008040000
0008040000
000C0C0000
000E1C0000
0007F80000
0003E00000
0000000000
0000000000
FFF801FF80
3FE0007E00
0F80003C00
0F80001C00
0F80001800
0F80001800
0F80001800
0F80001800
0F80001800
0F80001800
0F80001800
0F80001800
0F80001800
0F80001800
0F80001800
0F80001800
0F80001800
0F80001800
0F80001800
0F80001800
0F80001800
0F80001800
0F80001800
0F80001800
0F80001800
0FC0001800
07C0003000
07C0003000
03E0006000
03F000E000
01F803C000
00FFFF8000
003FFE0000
ENDCHAR
STARTCHAR 016F
ENCODING 367
SWIDTH 480 0
DWIDTH 24 0
BBX 23 35 1 0
BITMAP
006000
01FC00
030E00
060600
060300
060300
060300
030600
03FC00
00F800
000000
000000
FE07F0
3E01F0
1E00F0
1E00F0
1E00F0
1E00F0
1E00F0
1E00F0
1E00F0
1E00F0
1E00F0
1E00F0
1E00F0
1E00F0
1E00F0
1E00F0
1E00F0
1E00F0
1F01F0
1F03F8
0FFEFE
0FFCFE
03F8E0
ENDCHAR
STARTCHAR 0170
ENCODING 368
SWIDTH 720 0
DWIDTH 36 0
BBX 33 44 1 0
BITMAP
0000F0E000
0000F1E000
0001F3E000
0001E3C000
0003C78000
0003870000
00030E0000
00061C0000
0000000000
0000000000
0000000000
FFF801FF80
3FE0007E00
0F80003C00
0F80001C00
0F80001800
0F80001800
0F80001800
0F80001800
0F80001800
0F80001800
0F80001800
0F80001800
0F80001800
0F80001800
0F80001800
0F80001800
0F80001800
0F80001800
0F80001800
0F80001800
0F80001800
0F80001800
0F80001800
0F80001800
0F80001800
0FC0001800
07C0003000
07C0003000
03E0006000
03F000E000
01F803C000
00FFFF8000
003FFE0000
ENDCHAR
STARTCHAR 0171
ENCODING 369
SWIDTH 480 0
DWIDTH 24 0
BBX 23 34 1 0
BITMAP
002020
007870
0078F0
00F1F0
00F1E0
01E3C0
01C700
038600
030C00
000000
000000
FE07F0
3E01F0
1E00F0
1E00F0
1E00F0
1E00F0
1E00F0
1E00F0
1E00F0
1E00F0
1E00F0
1E00F0
1E00F0
1E00F0
1E00F0
1E00F0
1E00F0
1E00F0
1F01F0
1F03F8
0FFEFE
0FFCFE
03F8E0
ENDCHAR
STARTCHAR 0172
ENCODING 370
SWIDTH 720 0
DWIDTH 36 0
BBX 33 41 1 -8
BITMAP
FFF801FF80
3FE0007E00
0F80003C00
0F80001C00
0F80001800
0F80001800
0F80001800
0F80001800
0F80001800
0F80001800
0F80001800
0F80001800
0F80001800
0F80001800
0F80001800
0F80001800
0F80001800
0F80001800
0F80001800
0F80001800
0F80001800
0F80001800
0F80001800
0F80001800
0F80001800
0FC0003800
07C0003000
07C0003000
03E0006000
03F000E000
01FC03C000
00FFFF8000
003FFF0000
0000060000
00000C0000
00001C0000
00001C0000
00001C3000
00001FE000
00000FC000
0000078000
ENDCHAR
STARTCHAR 0173
ENCODING 371
SWIDTH 500 0
DWIDTH 25 0
BBX 24 31 1 -8
BITMAP
FE07F0
3E01F0
1E00F0
1E00F0
1E00F0
1E00F0
1E00F0
1E00F0
1E00F0
1E00F0
1E00F0
1E00F0
1E00F0
1E00F0
1E00F0
1E00F0
1E00F0
1E00F0
1F01F0
1F03F8
0FFEFE
0FFCFE
03F8F8
0000E0
0000C0
0001C0
0001C0
0001C3
0001FE
0000FC
000078
ENDCHAR
STARTCHAR 0174
ENCODING 372
SWIDTH 940 0
DWIDTH 47 0
BBX 46 44 1 0
BITMAP
000007800000
00000FC00000
00001FC00000
00001DE00000
000038700000
000070380000
0000E0180000
0000C00C0000
000000000000
000000000000
000000000000
FFF1FFF00FFC
7F807F8003F0
1F803F0001E0
1F801F8001C0
0F800F8001C0
0F800F800180
07C00FC00180
07C007C00380
07C007C00300
03E003E00300
03E007E00600
03F007F00600
01F00FF00E00
01F00DF00C00
01F80CF80C00
00F81CF81C00
00FC18FC1800
007C187C1800
007C387C3800
007E307E3000
003E703E3000
003E603E6000
003F601F6000
001FE01FE000
001FC01FC000
001FC00FC000
000FC00FC000
000F800F8000
000F80078000
000780078000
000700030000
000300030000
000200030000
ENDCHAR
STARTCHAR 0175
ENCODING 373
SWIDTH 680 0
DWIDTH 34 0
BBX 34 34 0 0
BITMAP
0000380000
00007C0000
0000FC0000
0001FE0000
0001CF0000
0003878000
0007018000
000E00C000
0008006000
0000000000
0000000000
FF8FFC0FC0
7F03F00780
3E01F00300
1E01F00300
1E00F00300
1F00F00600
0F00F80600
0F80780C00
0780F80C00
0780FC0C00
07C1BC1800
03C19E1800
03C31E3000
01E31E3000
01E60F3000
01F60F6000
00F60F6000
00FC07C000
007C07C000
007803C000
0078038000
0030038000
0030010000
ENDCHAR
STARTCHAR 0176
ENCODING 374
SWIDTH 700 0
DWIDTH 35 0
BBX 34 44 0 0
BITMAP
0000780000
00007C0000
0000FE0000
0001EF0000
0003C70000
0003838000
000600C000
000C006000
0000000000
0000000000
0000000000
FFFC01FFC0
3FF0003F00
0FE0001E00
07E0001C00
07F0003800
03F0003000
01F8007000
00FC00E000
00FC00C000
007E01C000
003F038000
003F030000
001F870000
000FCE0000
000FCC0000
0007FC0000
0003F80000
0003F00000
0001F00000
0001F00000
0001F00000
0001F00000
0001F00000
0001F00000
0001F00000
0001F00000
0001F00000
0001F00000
0001F00000
0001F00000
0003F80000
0007FC0000
003FFF8000
ENDCHAR
STARTCHAR 0177
ENCODING 375
SWIDTH 480 0
DWIDTH 24 0
BBX 23 45 0 -11
BITMAP
001E00
001E00
003F00
007F80
0073C0
00E1C0
01C0E0
038030
020018
000000
000000
FFE07E
3F001C
1F0018
1F0018
0F0030
0F8030
078030
07C060
07C060
03C060
03E0C0
01E0C0
01F0C0
00F180
00F980
007900
007F00
003F00
003E00
003E00
001E00
001C00
000C00
001C00
001800
001800
003000
003000
007000
006000
3FC000
7FC000
7F8000
3F0000
ENDCHAR
STARTCHAR 0178
ENCODING 376
SWIDTH 700 0
DWIDTH 35 0
BBX 34 42 0 0
BITMAP
0006010000
000F03C000
000F87C000
000F83C000
000F03C000
0000000000
0000000000
0000000000
0000000000
FFFC01FFC0
3FF0003F00
0FE0001E00
07E0001C00
07F0003800
03F0003000
01F8007000
00FC00E000
00FC00C000
007E01C000
003F038000
003F030000
001F870000
000FCE0000
000FCC0000
0007FC0000
0003F80000
0003F00000
0001F00000
0001F00000
0001F00000
0001F00000
0001F00000
0001F00000
0001F00000
0001F00000
0001F00000
0001F00000
0001F00000
0001F00000
0003F80000
0007FC0000
003FFF8000
ENDCHAR
STARTCHAR 0179
ENCODING 377
SWIDTH 620 0
DWIDTH 31 0
BBX 29 45 1 0
BITMAP
00000800
00003C00
00007C00
0000FC00
0001F000
0003E000
00078000
000E0000
001C0000
00000000
00000000
00000000
3FFFFFF0
3FFFFFF0
3C0007E0
30000FC0
70000FC0
60001F80
60003F00
40003E00
00007E00
0000FC00
0001F800
0001F800
0003F000
0007E000
0007C000
000FC000
001F8000
003F0000
003F0000
007E0000
00FC0000
00F80000
01F80000
03F00000
07E00008
07E00008
0FC00018
1F800018
3F800038
3F000070
7E0001F0
FFFFFFF0
FFFFFFF0
ENDCHAR
STARTCHAR 017A
ENCODING 378
SWIDTH 420 0
DWIDTH 21 0
BBX 19 34 1 0
BITMAP
000100
000780
000F80
001F80
003E00
007C00
00F000
01C000
038000
000000
000000
7FFFC0
7C07C0
600F80
400F00
401F00
403E00
003E00
007C00
00F800
00F800
01F000
03E000
03E000
07C000
0FC000
0F8000
1F0020
1F0020
3E0060
7C0060
7C00E0
F80FC0
FFFFC0
ENDCHAR
STARTCHAR 017B
ENCODING 379
SWIDTH 620 0
DWIDTH 31 0
BBX 29 42 1 0
BITMAP
00020000
000F8000
000F8000
000F8000
00070000
00000000
00000000
00000000
00000000
3FFFFFF0
3FFFFFF0
3C0007E0
30000FC0
70000FC0
60001F80
60003F00
40003E00
00007E00
0000FC00
0001F800
0001F800
0003F000
0007E000
0007C000
000FC000
001F8000
003F0000
003F0000
007E0000
00FC0000
00F80000
01F80000
03F00000
07E00008
07E00008
0FC00018
1F800018
3F800038
3F000070
7E0001F0
FFFFFFF0
FFFFFFF0
ENDCHAR
STARTCHAR 017C
ENCODING 380
SWIDTH 420 0
DWIDTH 21 0
BBX 19 31 1 0
BITMAP
006000
00F000
01F000
01F000
00E000
000000
000000
000000
7FFFC0
7C07C0
600F80
400F00
401F00
403E00
003E00
007C00
00F800
00F800
01F000
03E000
03E000
07C000
0FC000
0F8000
1F0020
1F0020
3E0060
7C0060
7C00E0
F80FC0
FFFFC0
ENDCHAR
STARTCHAR 017D
ENCODING 381
SWIDTH 620 0
DWIDTH 31 0
BBX 29 44 1 0
BITMAP
01800C00
00E01800
00703800
00387000
003DE000
001FC000
000FC000
00078000
00000000
00000000
00000000
3FFFFFF0
3FFFFFF0
3C0007E0
30000FC0
70000FC0
60001F80
60003F00
40003E00
00007E00
0000FC00
0001F800
0001F800
0003F000
0007E000
0007C000
000FC000
001F8000
003F0000
003F0000
007E0000
00FC0000
00F80000
01F80000
03F00000
07E00008
07E00008
0FC00018
1F800018
3F800038
3F000070
7E0001F0
FFFFFFF0
FFFFFFF0
ENDCHAR
STARTCHAR 017E
ENCODING 382
SWIDTH 420 0
DWIDTH 21 0
BBX 19 34 1 0
BITMAP
3000C0
180180
0C0300
070700
079E00
03FC00
01F800
00F800
00F000
000000
000000
7FFFC0
7C07C0
600F80
400F00
401F00
403E00
003E00
007C00
00F800
00F800
01F000
03E000
03E000
07C000
0FC000
0F8000
1F0020
1F0020
3E0060
7C0060
7C00E0
F80FC0
FFFFC0
ENDCHAR
STARTCHAR 017F
ENCODING 383
SWIDTH 380 0
DWIDTH 19 0
BBX 18 34 1 1
BITMAP
00FF80
01C7C0
0383C0
070180
070000
070000
0F0000
0F0000
0F0000
0F0000
0F0000
FF0000
FF0000
0F0000
0F0000
0F0000
0F0000
0F0000
0F0000
0F0000
0F0000
0F0000
0F0000
0F0000
0F0000
0F0000
0F0000
0F0000
0F0000
0F0000
0F0000
0F8000
1F8000
FFF000
ENDCHAR
STARTCHAR 0180
ENCODING 384
SWIDTH 500 0
DWIDTH 25 0
BBX 23 34 1 0
BITMAP
060000
3E0000
FE0000
1E0000
1E0000
1E0000
FFF800
FFF800
1E0000
1E0000
1E0000
1E3FC0
1E7FF0
1EFFF8
1F81F8
1F007C
1E007C
1E003E
1E003E
1E003E
1E001E
1E001E
1E001E
1E001E
1E001E
1E001E
1E001C
1E001C
1E003C
1E0038
1E0070
1F00E0
0F81C0
03FF00
ENDCHAR
STARTCHAR 0181
ENCODING 385
SWIDTH 740 0
DWIDTH 37 0
BBX 35 33 0 0
BITMAP
0FFFFF8000
3FFFFFF800
703F01FC00
401F003E00
C01F001F00
C01F001F80
E01F000F80
F01F000F80
F01F000F80
781F000F80
701F000F80
001F000F80
001F001F00
001F003E00
001F00FC00
001FFFF000
001FFFF000
001F01FE00
001F003F00
001F001F80
001F000FC0
001F0007C0
001F0007E0
001F0007E0
001F0007E0
001F0007E0
001F0007C0
001F000FC0
001F000F80
001F001F80
001F00FF00
007FFFFC00
03FFFFE000
ENDCHAR
STARTCHAR 0182
ENCODING 386
SWIDTH 620 0
DWIDTH 31 0
BBX 29 33 1 0
BITMAP
FFFFFF80
3FFFFF80
0FC01F80
0F800380
0F800180
0F800180
0F800180
0F800080
0F800000
0F800000
0F800000
0F800000
0F800000
0F800000
0F800000
0FFFE000
0FFFFE00
0F807F80
0F800FC0
0F8007E0
0F8003F0
0F8001F0
0F8001F8
0F8001F8
0F8001F8
0F8001F8
0F8001F0
0F8003F0
0F8003E0
0F800FE0
0FC03FC0
1FFFFF00
FFFFF800
ENDCHAR
STARTCHAR 0183
ENCODING 387
SWIDTH 520 0
DWIDTH 26 0
BBX 23 33 1 0
BITMAP
FFFFE0
3E03E0
1E0060
1E0030
1E0030
1E0010
1E0000
1E0000
1E0000
1E0000
1E3FC0
1E7FF0
1EFFF8
1F81F8
1F007C
1E007C
1E003E
1E003E
1E003E
1E001E
1E001E
1E001E
1E001E
1E001E
1E001E
1E001C
1E001C
1E003C
1E0038
1E0070
1F00E0
0F81C0
03FF00
ENDCHAR
STARTCHAR 0184
ENCODING 388
SWIDTH 640 0
DWIDTH 32 0
BBX 29 34 1 0
BITMAP
00300000
00700000
01F00000
03F00000
0FF00000
1FF00000
3FF00000
FFF00000
7FF00000
3FF00000
1FF00000
0FF00000
07F00000
03F00000
03F00000
03FFE000
03FFFE00
03F03F80
03F00FC0
03F007E0
03F003F0
03F001F0
03F001F8
03F001F8
03F001F8
03F001F8
03F001F8
03F003F0
03F003F0
03F007E0
03F00FE0
07F03FC0
0FFFFF00
7FFFF800
ENDCHAR
STARTCHAR 0185
ENCODING 389
SWIDTH 520 0
DWIDTH 26 0
BBX 23 34 1 1
BITMAP
030000
070000
0F0000
1F0000
3F0000
7F0000
FF0000
7F0000
3F0000
3F0000
1F0000
1F1FC0
0F3FF0
0F7FF8
0FC0F8
0F807C
0F007C
0F003E
0F003E
0F001E
0F001E
0F001E
0F001E
0F001E
0F001E
0F001E
0F001C
0F001C
0F003C
0F0038
0F0070
0F8060
07C1C0
01FF80
ENDCHAR
STARTCHAR 0186
ENCODING 390
SWIDTH 660 0
DWIDTH 33 0
BBX 30 35 2 -1
BITMAP
00060000
01FFF000
07FFFC00
1E00FE00
38003F80
60000FC0
C00007E0
000003E0
000003F0
000001F0
000001F8
000001F8
000000F8
000000FC
000000FC
000000FC
000000FC
000000FC
000000FC
000000FC
000000FC
000000FC
000000F8
000000F8
400001F8
400001F0
600003F0
600003E0
700007E0
78000FC0
7C001F80
7E003F00
7F80FC00
67FFF000
407F8000
ENDCHAR
STARTCHAR 0187
ENCODING 391
SWIDTH 820 0
DWIDTH 41 0
BBX 38 41 2 0
BITMAP
00000000E0
00000007F8
0000000C7C
0000000C3C
000000181C
0000001800
0000001800
0007F01800
007FFF3800
00FC07F800
03F001F800
07C000F800
0F80007800
1F00003800
1F00001800
3E00001800
3E00001800
7E00000800
7C00000000
7C00000000
FC00000000
FC00000000
FC00000000
FC00000000
FC00000000
FC00000000
FC00000000
FC00000000
FC00000000
7C00000000
7E00000000
7E00000000
3E00000000
3F00000000
1F00000800
1F80001800
0FC0003000
07E000E000
03F803C000
00FFFF8000
003FFC0000
ENDCHAR
STARTCHAR 0188
ENCODING 392
SWIDTH 560 0
DWIDTH 28 0
BBX 26 34 1 0
BITMAP
00000E00
00003FC0
000067C0
000063C0
0000C1C0
0000C000
0000C000
00008000
00008000
00018000
00018000
01FF8000
07078000
0E07C000
1C03C000
3803E000
7801C000
70000000
70000000
F0000000
F0000000
F0000000
F0000000
F0000000
F0000000
F8000000
F8002000
7C002000
7C004000
7F00C000
3F838000
1FFF0000
0FFE0000
07F80000
ENDCHAR
STARTCHAR 0189
ENCODING 393
SWIDTH 720 0
DWIDTH 36 0
BBX 33 33 1 0
BITMAP
FFFFE00000
3FFFFE0000
0F807FC000
0F800FE000
0F8003F000
0F8000FC00
0F80007C00
0F80007E00
0F80003F00
0F80003F00
0F80001F80
0F80001F80
0F80000F80
0F80000F80
0F80000F80
FFFF000F80
FFFF000F80
0F80000F80
0F80000F80
0F80000F80
0F80000F80
0F80001F80
0F80001F00
0F80001F00
0F80003E00
0F80003E00
0F80007C00
0F8000F800
0F8001F000
0F8007E000
0F803F8000
3FFFFE0000
FFFFF00000
ENDCHAR
STARTCHAR 018A
ENCODING 394
SWIDTH 840 0
DWIDTH 42 0
BBX 39 33 1 0
BITMAP
0FFFFF8000
3FFFFFF000
607E01FE00
C03E003F00
C03E001FC0
C03E0007E0
E03E0003E0
F03E0003F0
F83E0001F8
783E0000F8
703E0000FC
003E0000FC
003E00007C
003E00007C
003E00007C
003E00007C
003E00007E
003E00007C
003E00007C
003E00007C
003E00007C
003E0000FC
003E0000F8
003E0000F8
003E0001F8
003E0001F0
003E0003E0
003E0007E0
003E000FC0
003E003F00
003E01FE00
00FFFFF800
03FFFF8000
ENDCHAR
STARTCHAR 018B
ENCODING 395
SWIDTH 580 0
DWIDTH 29 0
BBX 25 33 2 0
BITMAP
7FFFFF80
7FFFFE00
7C00F800
7000F800
6000F800
6000F800
6000F800
4000F800
0000F800
0000F800
007FF800
03FFF800
0FE0F800
1F80F800
3E00F800
3C00F800
7C00F800
7800F800
F800F800
F800F800
F800F800
F800F800
F800F800
F800F800
F800F800
7800F800
7C00F800
3C00F800
3E00F800
1F00F800
0FC0FC00
03FFFE00
007FFF80
ENDCHAR
STARTCHAR 018C
ENCODING 396
SWIDTH 520 0
DWIDTH 26 0
BBX 23 33 1 0
BITMAP
0FFFFE
0F80F8
0C00F0
1800F0
1800F0
1800F0
0000F0
0000F0
0000F0
0000F0
03FCF0
0707F0
0E03F0
1C01F0
3800F0
3800F0
7800F0
7800F0
F000F0
F000F0
F000F0
F000F0
F000F0
F000F0
F800F0
F800F0
7800F0
7C00F0
7E00F0
3F01F8
1F87FE
0FFEF8
07F8E0
ENDCHAR
STARTCHAR 018D
ENCODING 397
SWIDTH 500 0
DWIDTH 25 0
BBX 23 34 1 -11
BITMAP
01FF00
078FC0
0E01E0
1C00F0
3C00F8
380078
78007C
78003C
F8003E
F8003E
F8003E
F8003E
F8003E
F8003C
78003C
7C003C
7C0078
3E00F0
3F01E0
1FFFC0
0FBE00
07E000
03F800
01FC00
007F00
003F80
000FC0
0003C0
0001E0
0400E0
0200E0
0300C0
01C1C0
007F80
ENDCHAR
STARTCHAR 018E
ENCODING 398
SWIDTH 620 0
DWIDTH 31 0
BBX 29 33 0 0
BITMAP
1FFFFFF8
1FFFFFE0
1E000FC0
1C000F80
18000F80
18000F80
10000F80
00000F80
00000F80
00000F80
00000F80
02000F80
03000F80
03000F80
03C00F80
03FFFF80
03FFFF80
03800F80
03000F80
03000F80
02000F80
00000F80
00000F80
00000F80
00000F80
C0000F80
60000F80
60000F80
70000F80
38000F80
3E001FC0
3FFFFFE0
3FFFFFF8
ENDCHAR
STARTCHAR 018F
ENCODING 399
SWIDTH 720 0
DWIDTH 36 0
BBX 33 34 1 0
BITMAP
001FF80000
007FFF0000
01E03FC000
078007E000
0E0003F000
180001F800
100000F800
0000007C00
0000007E00
0000003E00
0000003F00
0000003F00
0000001F00
0000001F00
0000001F80
0000001F80
0000001F80
0000001F80
0000001F80
0000001F80
0000001F80
FFFFFFFF00
7C00001F00
7C00001F00
7E00003F00
3E00003E00
3E00007E00
1F00007C00
1F8000F800
0F8000F000
07C001F000
01F007C000
00FE3F8000
003FFE0000
ENDCHAR
STARTCHAR 0190
ENCODING 400
SWIDTH 520 0
DWIDTH 26 0
BBX 22 36 2 -1
BITMAP
01FC08
0FFFF8
1F81F8
3E0078
7E0038
7C0038
FC0018
FC0018
FC0008
FC0008
FC0000
FC0000
7C0000
7E0000
3F0000
1F8000
0FFE00
03FE00
0FE000
3F0000
3E0000
7E0000
7C0000
FC0000
FC0000
FC0000
FC0000
FC0000
FC0000
7C0004
7E0008
3E0018
3F0070
1FC1E0
07FF80
01FE00
ENDCHAR
STARTCHAR 0191
ENCODING 401
SWIDTH 620 0
DWIDTH 31 0
BBX 31 43 0 -10
BITMAP
07FFFFFE
01FFFFFE
007C001E
007C0006
007C0006
007C0002
007C0002
007C0000
007C0000
007C0000
007C0000
007C0020
007C0020
007C0060
007C00E0
007FFFE0
007FFFE0
007C00E0
007C0060
007C0020
007C0020
007C0000
007C0000
007C0000
007C0000
007C0000
007C0000
007C0000
007C0000
007C0000
007C0000
007C0000
007C0000
007C0000
007C0000
007C0000
007C0000
707C0000
F8780000
F8780000
FCF00000
7FE00000
3F800000
ENDCHAR
STARTCHAR 0192
ENCODING 402
SWIDTH 460 0
DWIDTH 23 0
BBX 23 45 0 -10
BITMAP
0007FC
000E3E
001C1E
00380C
003800
003800
007800
007800
007800
007800
007800
07FFE0
07F800
007800
007800
007800
007800
007800
007800
007800
007800
007800
007800
007800
007800
007800
007800
007800
007800
007800
007800
007800
007800
007800
007800
007800
007800
007800
007800
007800
007000
707000
F8E000
FCC000
7F8000
ENDCHAR
STARTCHAR 0193
ENCODING 403
SWIDTH 820 0
DWIDTH 41 0
BBX 39 41 2 0
BITMAP
0000000070
00000003FC
000000063E
000000041E
0000000C0C
0000000C00
0000000C00
0007F80C00
003FFF9C00
00FC03FC00
03F000FC00
07E0007C00
0F80003C00
1F80001C00
1F00000C00
3F00000C00
3E00000400
7E00000000
7E00000000
7C00000000
FC00000000
FC00000000
FC00000000
FC0007FF80
FC0001FE00
FC00007C00
FC00007C00
FC00007C00
FC00007C00
7C00007C00
7E00007C00
7E00007C00
3E00007C00
3F00007C00
1F00007C00
1F80007C00
0FC0007C00
07E0007C00
01F801FC00
007F8FF000
001FFF0000
ENDCHAR
STARTCHAR 0194
ENCODING 404
SWIDTH 640 0
DWIDTH 32 0
BBX 30 34 2 -1
BITMAP
FFF01FFC
7FC003F8
1FC003E0
1F8001C0
0FC00380
07C00300
07E00700
03E00E00
01F01C00
01F81800
00F83800
00FC7000
007EE000
003EC000
003FC000
001F8000
000F8000
000FC000
000FE000
001FE000
001BF000
0039F800
0071F800
0060F800
00E07C00
00C07C00
00C03C00
00C03C00
00C03C00
00E03C00
00607800
0078F800
003FF000
000FC000
ENDCHAR
STARTCHAR 0195
ENCODING 405
SWIDTH 740 0
DWIDTH 37 0
BBX 35 34 1 0
BITMAP
0600000000
3E00000000
FE00000000
1E00000000
1E00000000
1E00000000
1E00000000
1E00000000
1E00000000
1E00000000
1E00000000
1E3FC00F80
1E7FE00FC0
1EE3E00FC0
1F81F007C0
1F00F003E0
1E00F001E0
1E00F000E0
1E00F00060
1E00F00060
1E00F00060
1E00F00060
1E00F00060
1E00F00060
1E00F000C0
1E00F000C0
1E00F000C0
1E00F00180
1E00F00180
1E00F80300
1E00780700
1F007C0E00
3F003F3C00
FFC01FF000
ENDCHAR
STARTCHAR 0196
ENCODING 406
SWIDTH 340 0
DWIDTH 17 0
BBX 14 34 2 0
BITMAP
0700
3F00
FF00
3F00
3F00
1F00
1F00
1F00
1F00
1F00
1F00
1F00
1F00
1F00
1F00
1F00
1F00
1F00
1F00
1F00
1F00
1F00
1F00
1F00
1F00
1F00
1F00
1F00
1F00
1F00
1F84
1FCC
0FF8
07F0
ENDCHAR
STARTCHAR 0197
ENCODING 407
SWIDTH 340 0
DWIDTH 17 0
BBX 15 33 1 0
BITMAP
7FFC
0FE0
07C0
07C0
07C0
07C0
07C0
07C0
07C0
07C0
07C0
07C0
07C0
07C0
07C0
FFFE
FFFE
07C0
07C0
07C0
07C0
07C0
07C0
07C0
07C0
07C0
07C0
07C0
07C0
07C0
07C0
0FE0
7FFC
ENDCHAR
STARTCHAR 0198
ENCODING 408
SWIDTH 780 0
DWIDTH 39 0
BBX 38 34 1 0
BITMAP
0000000700
FFF8003FE0
3FE0007FF0
0FC000E078
0F8003C038
0F8007803C
0F800F003C
0F801E003C
0F803C0000
0F80780000
0F80F00000
0F81E00000
0F83C00000
0F87000000
0F9E000000
0FBE000000
0FFF000000
0FFF800000
0FDFC00000
0F8FE00000
0F87F00000
0F83F80000
0F81F80000
0F80FC0000
0F807E0000
0F803F0000
0F801F8000
0F800FC000
0F800FE000
0F8007F000
0F8003FC00
0FC003FE00
3FE003FF80
FFF81FFFC0
ENDCHAR
STARTCHAR 0199
ENCODING 409
SWIDTH 520 0
DWIDTH 26 0
BBX 24 34 1 1
BITMAP
01FF00
038F80
070780
060300
0E0000
0E0000
1E0000
1E0000
1E0000
1E0000
1E0000
1E07FE
1E01F0
1E01C0
1E0380
1E0600
1E0C00
1E1800
1E3000
1E6000
1FE000
1FF000
1EF800
1E7C00
1E3E00
1E3E00
1E1F00
1E0F80
1E07C0
1E07C0
1E03E0
1E01F0
3F01FC
FFC7FF
ENDCHAR
STARTCHAR 019A
ENCODING 410
SWIDTH 280 0
DWIDTH 14 0
BBX 12 34 1 0
BITMAP
0300
1F00
7F00
0F00
0F00
0F00
0F00
0F00
0F00
0F00
0F00
0F00
0F00
0F00
0F00
0F00
0FF0
FFF0
0F00
0F00
0F00
0F00
0F00
0F00
0F00
0F00
0F00
0F00
0F00
0F00
0F00
0F00
1F80
FFE0
ENDCHAR
STARTCHAR 019B
ENCODING 411
SWIDTH 480 0
DWIDTH 24 0
BBX 21 33 1 1
BITMAP
3E0000
3E0000
7F0000
630000
410C00
019C00
00F800
00E000
03C000
074000
0E4000
1CC000
10E000
00E000
01E000
01F000
01F000
03D000
03D000
079800
078800
078800
0F0C00
0F0C00
1F0400
1E0400
1E0600
3C0200
3C0308
3C0398
7803F8
7801F8
F800F0
ENDCHAR
STARTCHAR 019C
ENCODING 412
SWIDTH 960 0
DWIDTH 48 0
BBX 45 33 1 0
BITMAP
FFF8FFF8FFF8
1FE03FE01FE0
0F801FC00FC0
0F800F800F80
0F800F800F80
0F800F800F80
0F800F800F80
0F800F800F80
0F800F800F80
0F800F800F80
0F800F800F80
0F800F800F80
0F800F800F80
0F800F800F80
0F800F800F80
0F800F800F80
0F800F800F80
0F800F800F80
0F800F800F80
0F800F800F80
0F800F800F80
0F800F800F80
0F800F800F80
0F800F800F80
0F800F800F80
0F800F800F80
0F800F800F80
0F801F800F80
07C01FC01F80
07C077C07FC0
03FFE7FFCFF8
03FF83FF8FE0
01FE01FE0F00
ENDCHAR
STARTCHAR 019D
ENCODING 413
SWIDTH 800 0
DWIDTH 40 0
BBX 38 44 0 -11
BITMAP
0FF8000FFC
01FC0003F0
00FE0001E0
007F0000E0
007F0000C0
007F8000C0
007FC000C0
006FE000C0
0067F000C0
0063F000C0
0061F800C0
0060FC00C0
0060FE00C0
00607F00C0
00603F00C0
00601F80C0
00600FC0C0
00600FE0C0
006007F0C0
006003F0C0
006001F8C0
006000FCC0
006000FEC0
0060007FC0
0060003FC0
0060001FC0
0060000FC0
0060000FC0
00600007C0
00600003C0
00600001C0
00600000C0
0060000040
0060000040
0060000000
0060000000
0060000000
0060000000
0060000000
0060000000
7040000000
F8C0000000
FCC0000000
7F80000000
ENDCHAR
STARTCHAR 019E
ENCODING 414
SWIDTH 500 0
DWIDTH 25 0
BBX 23 33 1 -9
BITMAP
1E1FC0
FE7FE0
3EE3E0
1F81F0
1F00F0
1E00F0
1E00F0
1E00F0
1E00F0
1E00F0
1E00F0
1E00F0
1E00F0
1E00F0
1E00F0
1E00F0
1E00F0
1E00F0
1E00F0
1E00F0
1E00F0
3F00F0
FFC0F0
0000F0
0000F0
0000F0
0000F0
0000F0
0000F0
0000F0
0000F0
0001F8
0007FE
ENDCHAR
STARTCHAR 019F
ENCODING 415
SWIDTH 720 0
DWIDTH 36 0
BBX 33 34 2 0
BITMAP
000FF00000
007FFE0000
00F81F8000
03E007E000
07C001F000
0F8000F800
1F0000F800
1F00007C00
3E00007E00
3E00003E00
7E00003F00
7C00003F00
7C00001F00
FC00001F00
FC00001F80
FC00001F80
FFFFFFFF80
FFFFFFFF80
FC00001F80
FC00001F80
FC00001F80
FC00001F00
7C00001F00
7C00003F00
7E00003E00
3E00003E00
3E00007C00
1F00007C00
0F8000F800
0F8001F000
07C003E000
01F007C000
00FF7F8000
003FFC0000
ENDCHAR
STARTCHAR 01A0
ENCODING 416
SWIDTH 720 0
DWIDTH 36 0
BBX 34 40 2 0
BITMAP
0000000300
0000000780
0000000780
00000003C0
00000001C0
00000000C0
0007F000C0
007FFE0080
00F81F8180
03E007EF00
07C001FE00
0F8000F800
1F0000F800
1F00007C00
3E00007E00
3E00003E00
7E00003F00
7C00003F00
FC00001F00
FC00001F00
FC00001F80
FC00001F80
FC00001F80
FC00001F80
FC00001F80
FC00001F80
FC00001F80
FC00001F00
7C00003F00
7E00003F00
7E00003F00
3E00003E00
3F00007E00
1F00007C00
0F8000F800
0F8001F000
07C003E000
01F007C000
00FF7F8000
003FFC0000
ENDCHAR
STARTCHAR 01A1
ENCODING 417
SWIDTH 540 0
DWIDTH 27 0
BBX 26 28 1 0
BITMAP
00000700
00000780
00000780
000003C0
000001C0
03FF00C0
0707C0C0
1E03E080
1C01F180
3800FF00
78007E00
78007C00
F8007C00
F8003C00
F8003C00
F8003E00
F8003E00
F8003E00
F8003C00
F8003C00
78003C00
7C003C00
7C007800
3E007000
1E00F000
0F00E000
07C3C000
03FF0000
ENDCHAR
STARTCHAR 01A2
ENCODING 418
SWIDTH 1040 0
DWIDTH 52 0
BBX 49 34 2 0
BITMAP
0003C000000000
003FFE007F8000
00FF7F81FFC000
03F007C3FFE000
07C003F603E000
0F8001FC01F000
1F8000F801F000
1F00007C01F000
3E00007E01F000
3E00003E01F000
7E00003F01F000
7C00003F01F000
7C00001F01F000
FC00001F01F000
FC00001F81F000
FC00001F81F000
FC00001F81F000
FC00001F81F000
FC00001F81F000
FC00001F81F000
FC00001F81F000
FC00001F01F000
7C00003F01F000
7C00003F01F000
7E00003E01F000
3E00003E01F000
3E00007C01F000
1F00007C01F000
0F8000F801F000
0F8001F001F000
07C003E001F000
01F007C001F800
00FF7F8003FC00
003FFC000FFF80
ENDCHAR
STARTCHAR 01A3
ENCODING 419
SWIDTH 780 0
DWIDTH 39 0
BBX 37 34 1 -10
BITMAP
03FF00FF00
0707C1FF80
1E01E30F80
1C01F607C0
3C00FC03C0
78007803C0
78007C03C0
78007C03C0
F8003C03C0
F8003C03C0
F8003E03C0
F8003E03C0
F8003E03C0
F8003C03C0
F8003C03C0
78003C03C0
7C003C03C0
7C007803C0
3E007003C0
1E00F003C0
0F00E003C0
07C3C003C0
03FF0003C0
00000003C0
00000003C0
00000003C0
00000003C0
00000003C0
00000003C0
00000003C0
00000003C0
00000003C0
00000007E0
0000001FF8
ENDCHAR
STARTCHAR 01A4
ENCODING 420
SWIDTH 700 0
DWIDTH 35 0
BBX 32 33 1 0
BITMAP
0FFFFE00
3FFFFFC0
607E07F0
403E01F8
C03E00FC
C03E007E
E03E003E
F03E003E
F03E003E
783E003F
703E003E
003E003E
003E003E
003E007E
003E007C
003E01F8
003E07F0
003FFFC0
003FFE00
003E0000
003E0000
003E0000
003E0000
003E0000
003E0000
003E0000
003E0000
003E0000
003E0000
003E0000
003E0000
00FF0000
03FFE000
ENDCHAR
STARTCHAR 01A5
ENCODING 421
SWIDTH 500 0
DWIDTH 25 0
BBX 22 45 1 -10
BITMAP
01FF00
031F00
070F80
0E0700
0E0000
0E0000
1E0000
1E0000
1E0000
1E0000
1E0000
1E3FC0
1E7FE0
1EFFF0
1F81F8
1F00F8
1E0078
1E007C
1E007C
1E003C
1E003C
1E003C
1E003C
1E003C
1E003C
1E003C
1E003C
1E0038
1E0078
1E0070
1E00E0
1F00E0
1FC3C0
1E7F00
1E0000
1E0000
1E0000
1E0000
1E0000
1E0000
1E0000
1E0000
1F0000
3F0000
FFE000
ENDCHAR
STARTCHAR 01A6
ENCODING 422
SWIDTH 680 0
DWIDTH 34 0
BBX 31 39 2 -6
BITMAP
FFF80000
3FE00000
0FC00000
0F800000
0F800000
0F800000
0F800000
0F800000
0F800000
0FFC0000
0FFFE000
0F81F800
0F80FC00
0F807E00
0F803E00
0F803E00
0F803F00
0F803E00
0F803E00
0F807E00
0F80FC00
0F83F800
0FFFC000
0FFF8000
0F8FC000
0F87E000
0F83E000
0F81F000
0F81F800
0F80FC00
0F807E00
3FC03F00
FFF83F00
00001F80
00000FC0
000007E0
000007F0
000003F8
000001FE
ENDCHAR
STARTCHAR 01A7
ENCODING 423
SWIDTH 540 0
DWIDTH 27 0
BBX 23 34 3 0
BITMAP
207F00
3FFFC0
3F83E0
3E00F0
3800F0
380078
700078
600078
600078
6000F8
0001F8
0003F8
0007F0
001FE0
003FE0
00FF80
03FF00
07FC00
1FF800
3FE000
3F8000
7F0000
7E0000
FC0000
FC0006
F80004
F8000C
F8000C
78001C
7C003C
3E007C
1F81FC
0FFFF8
01FF08
ENDCHAR
STARTCHAR 01A8
ENCODING 424
SWIDTH 360 0
DWIDTH 18 0
BBX 14 23 2 1
BITMAP
7FE0
7830
7018
601C
601C
401C
403C
007C
00FC
03F8
07F0
1FE0
3FC0
7F00
FC00
F804
F004
F00C
F00C
700C
701C
383C
1FFC
ENDCHAR
STARTCHAR 01A9
ENCODING 425
SWIDTH 600 0
DWIDTH 30 0
BBX 27 34 1 0
BITMAP
FFFFFFC0
7FFFFFC0
3F0007C0
1F0001E0
0F8000E0
07C00060
03E00060
01F00020
00F80020
007C0000
003E0000
001F0000
001F8000
000FC000
0007E000
0003F000
0001F000
0000E000
0001C000
00038000
00070000
000E0000
001C0000
00380000
00700000
00E00000
01C00020
03800020
07000060
0E0001E0
1FFFFFE0
3FFFFFE0
7FFFFFE0
FFFFFFE0
ENDCHAR
STARTCHAR 01AA
ENCODING 426
SWIDTH 600 0
DWIDTH 30 0
BBX 27 44 1 -10
BITMAP
07000000
1FF00000
387C0000
601E0000
E01F0000
C00F0000
C00F8000
C00F8000
C00F8000
C01F8000
601F8000
303F8000
1FEF8000
0FCF8000
000F8000
000F8000
000F8000
000F8000
000F8000
000F8000
000F8000
000F8000
000F8000
000F8000
000F8000
000F8000
000F8000
000F8000
000F8000
000F8000
000F8000
000F8000
000F8000
000F8000
000F8000
000F8000
000F8000
000F8000
000F81E0
000783E0
000783E0
0003C7E0
0001FFC0
00007F00
ENDCHAR
STARTCHAR 01AB
ENCODING 427
SWIDTH 280 0
DWIDTH 14 0
BBX 12 40 2 -11
BITMAP
0400
0400
0C00
1C00
1C00
3C00
7FE0
FC00
3C00
3C00
3C00
3C00
3C00
3C00
3C00
3C00
3C00
3C00
3C00
3C00
3C00
3C00
3C00
3C00
3C00
3E10
3E30
1FF0
0FF0
0030
0030
0030
0030
0030
0030
0030
3820
7C60
7E60
3FC0
ENDCHAR
STARTCHAR 01AC
ENCODING 428
SWIDTH 620 0
DWIDTH 31 0
BBX 29 33 1 0
BITMAP
0FFFFFF8
3FFFFFF8
7007C0F8
C007C038
C007C018
C007C018
E007C008
F007C008
F807C000
7807C000
7007C000
0007C000
0007C000
0007C000
0007C000
0007C000
0007C000
0007C000
0007C000
0007C000
0007C000
0007C000
0007C000
0007C000
0007C000
0007C000
0007C000
0007C000
0007C000
0007C000
0007C000
001FE000
007FFC00
ENDCHAR
STARTCHAR 01AD
ENCODING 429
SWIDTH 380 0
DWIDTH 19 0
BBX 18 34 1 1
BITMAP
00FF80
018FC0
0383C0
070180
070000
070000
0F0000
0F0000
0F0000
0F0000
0F0000
FFFC00
FF0000
0F0000
0F0000
0F0000
0F0000
0F0000
0F0000
0F0000
0F0000
0F0000
0F0000
0F0000
0F0000
0F0000
0F0000
0F0000
0F0000
0F0000
0F8400
0FCC00
07F800
03F000
ENDCHAR
STARTCHAR 01AE
ENCODING 430
SWIDTH 600 0
DWIDTH 30 0
BBX 28 43 1 -10
BITMAP
FFFFFFF0
FFFFFFF0
F81F01F0
E01F0070
C01F0030
C01F0030
C01F0010
801F0010
001F0000
001F0000
001F0000
001F0000
001F0000
001F0000
001F0000
001F0000
001F0000
001F0000
001F0000
001F0000
001F0000
001F0000
001F0000
001F0000
001F0000
001F0000
001F0000
001F0000
001F0000
001F0000
001F0000
001F0000
001F0000
001F0000
001F0000
001F0000
001F0000
000F0700
000F0F80
00070F80
00079F80
0003FF00
0000FE00
ENDCHAR
STARTCHAR 01AF
ENCODING 431
SWIDTH 780 0
DWIDTH 39 0
BBX 38 39 1 1
BITMAP
0000000078
0000000078
000000007C
000000003C
000000001C
000000000C
FFF803F808
3FE0007C08
0FC0003E18
0F80001FF0
0F80001800
0F80001800
0F80001800
0F80001800
0F80001800
0F80001800
0F80001800
0F80001800
0F80001800
0F80001800
0F80001800
0F80001800
0F80001800
0F80001800
0F80001800
0F80001800
0F80001800
0F80001800
0F80001800
0F80001800
0F80001800
0FC0001800
07C0003000
07C0003000
03E0006000
03F000E000
01F803C000
00FFFF8000
003FFE0000
ENDCHAR
STARTCHAR 01B0
ENCODING 432
SWIDTH 540 0
DWIDTH 27 0
BBX 26 28 1 0
BITMAP
00000300
00000780
00000780
000003C0
000001C0
FE07F0C0
3E01F0C0
1E00F080
1E00F180
1E00FF80
1E00F700
1E00F000
1E00F000
1E00F000
1E00F000
1E00F000
1E00F000
1E00F000
1E00F000
1E00F000
1E00F000
1E00F000
1E00F000
1F01F000
1F03F800
0FFEFE00
0FFCFE00
03F8E000
ENDCHAR
STARTCHAR 01B1
ENCODING 433
SWIDTH 720 0
DWIDTH 36 0
BBX 35 34 1 -1
BITMAP
7FFC03FFC0
7FFC03FFC0
7FF803FFC0
7C080203E0
4008020060
C008020060
C03003C060
00E000F000
01C0007800
0380003C00
0780003E00
0F80001F00
1F00001F00
1F00001F80
1F00000F80
3F00000F80
3F00000F80
3F00000FC0
3F00000FC0
3F00000FC0
3F00000FC0
3F00000F80
3F00000F80
3F00001F80
1F00001F80
1F80001F00
0F80003F00
0FC0003E00
07E0007C00
03F000F800
01F801F000
007E0FE000
001FFF8000
0003F80000
ENDCHAR
STARTCHAR 01B2
ENCODING 434
SWIDTH 720 0
DWIDTH 36 0
BBX 33 33 1 0
BITMAP
FF800F0000
1F800FC000
0F801FE000
0F800FF000
0F8007F800
0F8001FC00
0F80001E00
0F80000600
0F80000700
0F80000300
0F80000300
0F80000380
0F80000180
0F80000180
0F80000180
0F80000180
0F80000180
0F80000180
0F80000180
0F80000180
0F80000380
0F80000300
0F80000300
0F80000700
0F80000600
0780000E00
07C0001C00
07C0003C00
03E0007800
03F000F000
01F803C000
007FFF8000
001FFE0000
ENDCHAR
STARTCHAR 01B3
ENCODING 435
SWIDTH 800 0
DWIDTH 40 0
BBX 38 33 1 0
BITMAP
07E0001FFC
1FF80003F8
38FC0001E0
707E0001C0
F03F000380
F01F000300
F01F800700
600FC00E00
0007C00C00
0007E01C00
0003F03800
0001F03000
0001F87000
0000FC6000
0000FCC000
00007FC000
00003F8000
00003F0000
00001F0000
00001F0000
00001F0000
00001F0000
00001F0000
00001F0000
00001F0000
00001F0000
00001F0000
00001F0000
00001F0000
00001F0000
00001F8000
00007FC000
0003FFF800
ENDCHAR
STARTCHAR 01B4
ENCODING 436
SWIDTH 560 0
DWIDTH 28 0
BBX 29 45 0 -10
BITMAP
000007F0
00000E78
00000C78
00001870
00001800
00001800
00003000
00003000
00003000
00003000
00006000
FFE06000
3F006000
1F006000
1F006000
0F00C000
0F80C000
0780C000
07C0C000
07C08000
03C18000
03E18000
01E18000
01F18000
00F10000
00FB0000
007B0000
007F0000
003E0000
003E0000
003E0000
001E0000
001C0000
000C0000
00180000
00180000
00180000
00300000
00300000
00600000
00E00000
3FC00000
7FC00000
7F800000
3F000000
ENDCHAR
STARTCHAR 01B5
ENCODING 437
SWIDTH 620 0
DWIDTH 31 0
BBX 29 33 1 0
BITMAP
3FFFFFF0
3FFFFFF0
3C0007E0
30000FC0
70000F80
60001F80
60003F00
40003E00
00007E00
0000FC00
0001F800
0001F000
0003F000
0007E000
000FC000
03FFFE00
03FFFE00
003F0000
003E0000
007E0000
00FC0000
01F80000
01F80000
03F00000
07E00008
07E00008
0FC00018
1F800018
3F000038
3F000070
7E0001F0
FFFFFFF0
FFFFFFF0
ENDCHAR
STARTCHAR 01B6
ENCODING 438
SWIDTH 420 0
DWIDTH 21 0
BBX 19 23 1 0
BITMAP
7FFFC0
7C07C0
600F80
400F00
401F00
403E00
003E00
007C00
00F800
00F800
3FFF80
3FFF80
03E000
07C000
078000
0F8000
1F0020
1F0020
3E0060
7C0060
7C00E0
F80FC0
FFFFC0
ENDCHAR
STARTCHAR 01B7
ENCODING 439
SWIDTH 540 0
DWIDTH 27 0
BBX 24 33 1 0
BITMAP
1FFFFF
1FFFFE
1F803E
1C007C
1C007C
1800F8
1800F8
1001F0
0001F0
0003E0
0003E0
0007C0
0007C0
000F80
000FE0
001FF8
001FFC
0000FE
00007E
00003F
00003F
00001F
00001F
00001F
00001F
00001F
80001F
C0003E
60003E
38007C
1E01F8
07FFF0
01FFC0
ENDCHAR
STARTCHAR 01B8
ENCODING 440
SWIDTH 540 0
DWIDTH 27 0
BBX 24 33 2 0
BITMAP
7FFFF0
7FFFF0
3C01F0
3E0070
3E0030
1F0030
1F0010
0F8010
0F8000
07C000
07C000
03E000
03E000
01E000
07F000
1FF000
3FF800
7F0000
7E0000
FC0000
FC0000
F80000
F80000
F80000
F80000
F80000
780000
7C0003
7C000E
3E001C
1F8078
0FFFE0
03FF80
ENDCHAR
STARTCHAR 01B9
ENCODING 441
SWIDTH 400 0
DWIDTH 20 0
BBX 19 33 1 -10
BITMAP
7FFFC0
3FFFC0
1FFFC0
1800C0
0C0040
040040
060000
030000
010000
008000
00C000
004000
01E000
07F000
0FF000
1FC000
3F0000
7E0000
7C0000
F80000
F00000
F00000
F00000
F00000
F00000
F00000
700000
700000
3001C0
1807E0
0C1FC0
07FFC0
00FF00
ENDCHAR
STARTCHAR 01BA
ENCODING 442
SWIDTH 380 0
DWIDTH 19 0
BBX 17 34 1 -11
BITMAP
FFFF00
FFFE00
FFFE00
C00C00
800800
801800
001000
002000
006000
004000
00C000
018000
017E00
03FF00
020F80
000780
000780
000780
000F80
003F00
00FF00
03FE00
0FF800
3FE000
7F8000
7E0000
F80000
F00000
E00F00
E01F00
701F00
703E00
3FFC00
07F000
ENDCHAR
STARTCHAR 01BB
ENCODING 443
SWIDTH 500 0
DWIDTH 25 0
BBX 22 34 2 0
BITMAP
007000
03FE00
0FFF00
1FFF80
381FC0
3007C0
6003E0
6003E0
C001E0
C001E0
8001E0
0001E0
0001E0
0001E0
0001C0
0003C0
000380
00FFF8
00FFF8
000E00
000C00
001800
003000
006000
00C000
018000
010000
020004
060008
0C0018
1FFFF8
3FFFF0
7FFFF0
FFFFE0
ENDCHAR
STARTCHAR 01BC
ENCODING 444
SWIDTH 600 0
DWIDTH 30 0
BBX 27 33 1 0
BITMAP
0FFFFF80
03FFFF80
00F80780
00F80180
00F80180
00F80080
00F80080
00F80000
00F80000
00F80000
00F80000
00F80000
00FFE000
00FFFC00
0000FE00
00003F00
00001F80
00000FC0
000007E0
000007E0
000003E0
000003E0
000003E0
000003E0
000003E0
000007E0
C00007E0
60000FC0
38001FC0
1C003F80
0F80FF00
03FFFE00
00FFF000
ENDCHAR
STARTCHAR 01BD
ENCODING 445
SWIDTH 440 0
DWIDTH 22 0
BBX 19 33 1 -9
BITMAP
000020
03FFE0
07FFC0
07FFC0
0FFF80
0C0000
080000
180000
100000
380000
3FC000
3FF800
7FFE00
7FFF00
03FF80
003FC0
000FC0
0007E0
0003E0
0003E0
0001E0
0001E0
0001E0
0001E0
0001E0
0001E0
6003C0
F803C0
F80380
F80780
7C0E00
3FFC00
0FF000
ENDCHAR
STARTCHAR 01BE
ENCODING 446
SWIDTH 380 0
DWIDTH 19 0
BBX 17 29 1 0
BITMAP
080000
080000
180000
180000
380000
780000
FFC000
F80000
380000
380000
380000
380000
3C0000
3E0000
1F8000
1FE000
0FF800
07FC00
01FF00
007F80
001F80
200F80
200780
300380
300380
300380
380300
3C0600
3FFC00
ENDCHAR
STARTCHAR 01BF
ENCODING 447
SWIDTH 500 0
DWIDTH 25 0
BBX 23 34 1 -10
BITMAP
0E07F8
7E1FFC
FE3FFC
1E7FFE
1EF07E
1EC03E
1F803E
1F001E
1F001E
1E001E
1E001E
1E001C
1E001C
1E003C
1E0038
1E0070
1E0070
1E00E0
1E01C0
1E0380
1E0700
1E0E00
1E1C00
1E3800
1EE000
1FC000
1F0000
1E0000
1E0000
1E0000
1E0000
1F0000
3F0000
FFE000
ENDCHAR
STARTCHAR 01C0
ENCODING 448
SWIDTH 200 0
DWIDTH 10 0
BBX 3 37 3 0
BITMAP
E0
E0
E0
E0
E0
E0
E0
E0
E0
E0
E0
E0
E0
E0
E0
E0
E0
E0
E0
E0
E0
E0
E0
E0
E0
E0
E0
E0
E0
E0
E0
E0
E0
E0
E0
E0
E0
ENDCHAR
STARTCHAR 01C1
ENCODING 449
SWIDTH 360 0
DWIDTH 18 0
BBX 11 34 3 0
BITMAP
E1E0
E1E0
E1E0
E1E0
E1E0
E1E0
E1E0
E1E0
E1E0
E1E0
E1E0
E1E0
E1E0
E1E0
E1E0
E1E0
E1E0
E1E0
E1E0
E1E0
E1E0
E1E0
E1E0
E1E0
E1E0
E1E0
E1E0
E1E0
E1E0
E1E0
E1E0
E1E0
E1E0
E1E0
ENDCHAR
STARTCHAR 01C2
ENCODING 450
SWIDTH 600 0
DWIDTH 30 0
BBX 25 35 3 0
BITMAP
001C0000
001C0000
001C0000
001C0000
001C0000
001C0000
001C0000
001C0000
001C0000
001C0000
001C0000
FFFFFF80
FFFFFF80
FFFFFF80
001C0000
001C0000
001C0000
001C0000
001C0000
001C0000
001C0000
FFFFFF80
FFFFFF80
FFFFFF80
001C0000
001C0000
001C0000
001C0000
001C0000
001C0000
001C0000
001C0000
001C0000
001C0000
001C0000
ENDCHAR
STARTCHAR 01C3
ENCODING 451
SWIDTH 340 0
DWIDTH 17 0
BBX 5 34 7 0
BITMAP
30
78
F8
F8
F8
F8
F8
F8
F8
78
78
78
70
70
70
70
70
30
30
30
20
20
20
20
20
00
00
00
00
70
F8
F8
F8
78
ENDCHAR
STARTCHAR 01C4
ENCODING 452
SWIDTH 1340 0
DWIDTH 67 0
BBX 65 44 1 0
BITMAP
00000000000C00C000
00000000000E018000
000000000007038000
000000000003870000
000000000001DE0000
000000000001FC0000
000000000000FC0000
000000000000780000
000000000000000000
000000000000000000
000000000000000000
FFFFE00003FFFFFF00
3FFFFE0003FFFFFF00
0F807F8003C0007E00
0F800FE00300007C00
0F8003F0030000FC00
0F8001F8060001F800
0F8000FC060003F000
0F80007E040003E000
0F80003F000007E000
0F80003F00000FC000
0F80001F80000F8000
0F80001F80001F8000
0F80000F80003F0000
0F80000F80007E0000
0F80000F80007E0000
0F80000F8000FC0000
0F80000FC001F80000
0F80000F8001F00000
0F80000F8003F00000
0F80000F8007E00000
0F80000F800FC00000
0F80001F800FC00000
0F80001F001F800000
0F80001F003F000000
0F80003F007E000080
0F80003E007E000080
0F80007C00FC000180
0F8000F801F8000180
0F8001F001F8000380
0F8007E003F0000780
0F803F8007E0001F00
3FFFFE000FFFFFFF00
FFFFE0000FFFFFFF00
ENDCHAR
STARTCHAR 01C5
ENCODING 453
SWIDTH 1160 0
DWIDTH 58 0
BBX 55 34 1 0
BITMAP
0000000003000C
FFFFE000018018
3FFFFE0000C030
0F807F80007070
0F800FE00079E0
0F8003F0003FC0
0F8001F8001F80
0F8000FC000F80
0F80007E000F00
0F80003F000000
0F80003F000000
0F80001F87FFFC
0F80001F87C07C
0F80000F8600F8
0F80000F8600F8
0F80000F8401F0
0F80000F8403E0
0F80000FC003E0
0F80000F8007C0
0F80000F800F80
0F80000F800F80
0F80000F801F00
0F80001F803E00
0F80001F003E00
0F80001F007C00
0F80003F007C00
0F80003E00F800
0F80007C01F002
0F8000F801F002
0F8001F003E006
0F8007E007C006
0F803F8007C00E
3FFFFE000F80FC
FFFFE0000FFFFC
ENDCHAR
STARTCHAR 01C6
ENCODING 454
SWIDTH 940 0
DWIDTH 47 0
BBX 44 34 1 0
BITMAP
000030180060
0001F00C00C0
0007F0060180
0000F0038380
0000F003CF00
0000F001FE00
0000F000FC00
0000F0007C00
0000F0007800
0000F0000000
0000F0000000
03FCF03FFFE0
0707F03E03E0
0E03F03007C0
1C01F0200780
3800F0200F80
3800F0201F00
7800F0001F00
7800F0003E00
F000F0007C00
F000F0007C00
F000F000F800
F000F001F000
F000F001F000
F000F003E000
F800F007E000
F800F007C000
7800F00F8010
7C00F00F8010
7E00F01F0030
3F01F83E0030
1F87FE3E0070
0FFEF87C07E0
07F8E0FFFFE0
ENDCHAR
STARTCHAR 01C7
ENCODING 455
SWIDTH 1000 0
DWIDTH 50 0
BBX 48 33 1 0
BITMAP
FFF800001FFF
3FE0000007F8
0FC0000003F0
0F80000003F0
0F80000003F0
0F80000001F0
0F80000001F0
0F80000001F0
0F80000001F0
0F80000001F0
0F80000001F0
0F80000001F0
0F80000001F0
0F80000001F0
0F80000001F0
0F80000001F0
0F80000001F0
0F80000001F0
0F80000001F0
0F80000001F0
0F80000001F0
0F80000001F0
0F80000001F0
0F80000001F0
0F80000801F0
0F80001801F0
0F80001801E0
0F80003001E0
0F800071E1E0
0F8000F1E3C0
0FC003F1F3C0
3FFFFFE1F780
FFFFFFE0FF00
ENDCHAR
STARTCHAR 01C8
ENCODING 456
SWIDTH 880 0
DWIDTH 44 0
BBX 39 45 1 -11
BITMAP
000000001C
FFF800003E
3FE000003E
0FC000003E
0F8000001C
0F80000000
0F80000000
0F80000000
0F80000000
0F80000000
0F80000000
0F8000000E
0F8000003E
0F800000FE
0F8000001E
0F8000001E
0F8000001E
0F8000001E
0F8000001E
0F8000001E
0F8000001E
0F8000001E
0F8000001E
0F8000001E
0F8000001E
0F8000081E
0F8000181E
0F8000181E
0F8000301E
0F8000701E
0F8000F01E
0FC003F01E
3FFFFFE01E
FFFFFFE01E
000000001E
000000001E
000000001E
000000001E
000000001E
000000001E
000000001C
0000001C1C
0000003E38
0000003F30
0000001FE0
ENDCHAR
STARTCHAR 01C9
ENCODING 457
SWIDTH 540 0
DWIDTH 27 0
BBX 23 45 0 -11
BITMAP
03001C
1F003E
7F003E
0F003E
0F001C
0F0000
0F0000
0F0000
0F0000
0F0000
0F0000
0F000E
0F007E
0F00FE
0F001E
0F001E
0F001E
0F001E
0F001E
0F001E
0F001E
0F001E
0F001E
0F001E
0F001E
0F001E
0F001E
0F001E
0F001E
0F001E
0F001E
0F001E
1F801E
FFE01E
00001E
00001E
00001E
00001E
00001E
00001C
00001C
00381C
003C38
003F70
001FE0
ENDCHAR
STARTCHAR 01CA
ENCODING 458
SWIDTH 1120 0
DWIDTH 56 0
BBX 52 33 2 0
BITMAP
FF0001FF81FFF0
3F80007E003FC0
1FC0003C001F80
0FE0001C001F00
0FE00018001F00
0FF00018001F00
0FF80018001F00
0DFC0018001F00
0CFE0018001F00
0C7E0018001F00
0C3F0018001F00
0C1F8018001F00
0C1FC018001F00
0C0FE018001F00
0C07E018001F00
0C03F018001F00
0C01F818001F00
0C01FC18001F00
0C00FE18001F00
0C007E18001F00
0C003F18001F00
0C001F98001F00
0C001FD8001F00
0C000FF8001F00
0C0007F8001F00
0C0003F8001F00
0C0001F8001F00
0C0001F8001F00
0C0000F80E1E00
0E0000781F1E00
1E0000381F1C00
3F0000181FBC00
FFC000080FF000
ENDCHAR
STARTCHAR 01CB
ENCODING 459
SWIDTH 1000 0
DWIDTH 50 0
BBX 44 45 2 -11
BITMAP
0000000000E0
FF0001FF81F0
3F80007E01F0
1FC0003C01F0
0FE0001C00E0
0FE000180000
0FF000180000
0FF800180000
0DFC00180000
0CFE00180000
0C7E00180000
0C3F00180070
0C1F801803F0
0C1FC01807F0
0C0FE01801F0
0C07E01800F0
0C03F01800F0
0C01F81800F0
0C01FC1800F0
0C00FE1800F0
0C007E1800F0
0C003F1800F0
0C001F9800F0
0C001FD800F0
0C000FF800F0
0C0007F800F0
0C0003F800F0
0C0001F800F0
0C0001F800F0
0C0000F800F0
0E00007800F0
1E00003800F0
3F00001800F0
FFC0000800F0
0000000800F0
0000000000F0
0000000000F0
0000000000F0
0000000000E0
0000000001E0
0000000001E0
00000001C1C0
00000001E1C0
00000001F380
00000000FF00
ENDCHAR
STARTCHAR 01CC
ENCODING 460
SWIDTH 780 0
DWIDTH 39 0
BBX 34 45 1 -11
BITMAP
0000000780
00000007C0
0000000FC0
00000007C0
0000000380
0000000000
0000000000
0000000000
0000000000
0000000000
0000000040
1E1FC001C0
FE7FE00FC0
3EE3E03FC0
1F81F007C0
1F00F007C0
1E00F007C0
1E00F007C0
1E00F007C0
1E00F007C0
1E00F007C0
1E00F007C0
1E00F007C0
1E00F007C0
1E00F007C0
1E00F007C0
1E00F007C0
1E00F007C0
1E00F007C0
1E00F007C0
1E00F007C0
1E00F007C0
3F01F807C0
FFC7FE07C0
00000007C0
00000007C0
00000007C0
00000007C0
0000000780
0000000780
0000000780
0000070700
0000078700
000007CE00
000003F800
ENDCHAR
STARTCHAR 01CD
ENCODING 461
SWIDTH 720 0
DWIDTH 36 0
BBX 34 44 1 0
BITMAP
0030018000
0018030000
000E060000
000F1E0000
0007BC0000
0003F80000
0001F00000
0001F00000
0000000000
0000000000
0000800000
0000C00000
0001C00000
0001E00000
0001E00000
0003F00000
0003F00000
0007F00000
0006F80000
000EF80000
000C7C0000
000C7C0000
00183E0000
00183E0000
00381F0000
00301F0000
00301F0000
00600F8000
00600F8000
00C007C000
00C007C000
01FFFFE000
01FFFFE000
018003F000
030001F000
030001F000
070001F800
060000F800
0E0000FC00
0C00007C00
1C00007E00
1C00007E00
3E0000FF00
FFC003FFC0
ENDCHAR
STARTCHAR 01CE
ENCODING 462
SWIDTH 440 0
DWIDTH 22 0
BBX 21 34 1 0
BITMAP
3000C0
180180
0C0300
0E0F00
079E00
03FC00
01F800
01F800
00F000
000000
000000
07FC00
1C0E00
380F00
780700
780780
780780
300780
000780
000F80
007780
01C780
070780
1C0780
380780
780780
700780
F00780
F00780
F80780
F81F80
FFF7D8
7FE7F0
3F83E0
ENDCHAR
STARTCHAR 01CF
ENCODING 463
SWIDTH 320 0
DWIDTH 16 0
BBX 15 44 1 0
BITMAP
C006
600C
381C
1C78
1EF0
0FE0
07E0
03C0
0000
0000
0000
7FFC
1FF0
07C0
07C0
07C0
07C0
07C0
07C0
07C0
07C0
07C0
07C0
07C0
07C0
07C0
07C0
07C0
07C0
07C0
07C0
07C0
07C0
07C0
07C0
07C0
07C0
07C0
07C0
07C0
07C0
07C0
0FE0
7FFC
ENDCHAR
STARTCHAR 01D0
ENCODING 464
SWIDTH 280 0
DWIDTH 14 0
BBX 15 33 0 0
BITMAP
C00E
601C
3838
3C70
1EE0
0FE0
07C0
0780
0000
0000
0180
0F80
3F80
0780
0780
0780
0780
0780
0780
0780
0780
0780
0780
0780
0780
0780
0780
0780
0780
0780
0780
0FC0
7FF0
ENDCHAR
STARTCHAR 01D1
ENCODING 465
SWIDTH 720 0
DWIDTH 36 0
BBX 33 44 2 0
BITMAP
0060030000
00300E0000
00381C0000
001C380000
000F780000
0007F00000
0007E00000
0003C00000
0000000000
0000000000
0007F00000
007FFE0000
00F81F8000
03E007E000
07C001F000
0F8000F800
1F0000F800
1F00007C00
3E00007E00
3E00003E00
7E00003F00
7C00003F00
FC00001F00
FC00001F00
FC00001F80
FC00001F80
FC00001F80
FC00001F80
FC00001F80
FC00001F80
FC00001F80
FC00001F00
7C00003F00
7E00003F00
7E00003F00
3E00003E00
3F00007E00
1F00007C00
0F8000F800
0F8001F000
07C003E000
01F007C000
00FF7F8000
003FFC0000
ENDCHAR
STARTCHAR 01D2
ENCODING 466
SWIDTH 500 0
DWIDTH 25 0
BBX 23 34 1 0
BITMAP
0C0020
060060
0701C0
038380
01C700
00EF00
00FE00
007C00
003800
000000
000000
03FF00
0707C0
1E03E0
1C01F0
3800F8
780078
78007C
F8007C
F8003C
F8003C
F8003E
F8003E
F8003E
F8003C
F8003C
78003C
7C003C
7C0078
3E0070
1E00F0
0F00E0
07C3C0
03FF00
ENDCHAR
STARTCHAR 01D3
ENCODING 467
SWIDTH 720 0
DWIDTH 36 0
BBX 33 44 1 0
BITMAP
001800C000
000C018000
000E030000
00070F0000
0003DE0000
0001FC0000
0001F80000
0000F80000
0000000000
0000000000
0000000000
FFF801FF80
3FE0007E00
0F80003C00
0F80001C00
0F80001800
0F80001800
0F80001800
0F80001800
0F80001800
0F80001800
0F80001800
0F80001800
0F80001800
0F80001800
0F80001800
0F80001800
0F80001800
0F80001800
0F80001800
0F80001800
0F80001800
0F80001800
0F80001800
0F80001800
0F80001800
0FC0001800
07C0003000
07C0003000
03E0006000
03F000E000
01F803C000
00FFFF8000
003FFE0000
ENDCHAR
STARTCHAR 01D4
ENCODING 468
SWIDTH 500 0
DWIDTH 25 0
BBX 23 34 1 0
BITMAP
0C0020
060060
0701C0
038380
01C700
00EF00
00FE00
007C00
003800
000000
000000
FE07F0
3E01F0
1E00F0
1E00F0
1E00F0
1E00F0
1E00F0
1E00F0
1E00F0
1E00F0
1E00F0
1E00F0
1E00F0
1E00F0
1E00F0
1E00F0
1E00F0
1E00F0
1F01F0
1F03F8
0FFEFE
0FFCFE
03F8E0
ENDCHAR
STARTCHAR 01D5
ENCODING 469
SWIDTH 720 0
DWIDTH 36 0
BBX 33 45 1 0
BITMAP
001FFFE000
001FFFE000
001FFFE000
0000000000
0000000000
000C030000
001E078000
001F07C000
001F078000
001E078000
0000000000
0000000000
FFF801FF80
3FE0007E00
0F80003C00
0F80001C00
0F80001800
0F80001800
0F80001800
0F80001800
0F80001800
0F80001800
0F80001800
0F80001800
0F80001800
0F80001800
0F80001800
0F80001800
0F80001800
0F80001800
0F80001800
0F80001800
0F80001800
0F80001800
0F80001800
0F80001800
0F80001800
0FC0001800
07C0003000
07C0003000
03E0006000
03F000E000
01F803C000
00FFFF8000
003FFE0000
ENDCHAR
STARTCHAR 01D6
ENCODING 470
SWIDTH 500 0
DWIDTH 25 0
BBX 23 36 1 0
BITMAP
1FFFE0
1FFFE0
1FFFE0
000000
000000
060180
0F03C0
1F07C0
1F07C0
0F03C0
000000
000000
000000
FE07F0
3E01F0
1E00F0
1E00F0
1E00F0
1E00F0
1E00F0
1E00F0
1E00F0
1E00F0
1E00F0
1E00F0
1E00F0
1E00F0
1E00F0
1E00F0
1E00F0
1E00F0
1F01F0
1F03F8
0FFEFE
0FFCFE
03F8E0
ENDCHAR
STARTCHAR 01D7
ENCODING 471
SWIDTH 720 0
DWIDTH 36 0
BBX 33 45 1 0
BITMAP
0000070000
00000F0000
00001C0000
0000300000
0000C00000
0000000000
001E078000
001F07C000
001F07C000
001E078000
0004030000
0000000000
FFF801FF80
3FE0007E00
0F80003C00
0F80001C00
0F80001800
0F80001800
0F80001800
0F80001800
0F80001800
0F80001800
0F80001800
0F80001800
0F80001800
0F80001800
0F80001800
0F80001800
0F80001800
0F80001800
0F80001800
0F80001800
0F80001800
0F80001800
0F80001800
0F80001800
0F80001800
0FC0001800
07C0003000
07C0003000
03E0006000
03F000E000
01F803C000
00FFFF8000
003FFE0000
ENDCHAR
STARTCHAR 01D8
ENCODING 472
SWIDTH 500 0
DWIDTH 25 0
BBX 23 40 1 0
BITMAP
000040
0001E0
0003E0
0007E0
000F80
001F00
003C00
007000
00E000
000000
0F03C0
1F07C0
1F07C0
0F03C0
000000
000000
000000
FE07F0
3E01F0
1E00F0
1E00F0
1E00F0
1E00F0
1E00F0
1E00F0
1E00F0
1E00F0
1E00F0
1E00F0
1E00F0
1E00F0
1E00F0
1E00F0
1E00F0
1E00F0
1F01F0
1F03F8
0FFEFE
0FFCFE
03F8E0
ENDCHAR
STARTCHAR 01D9
ENCODING 473
SWIDTH 720 0
DWIDTH 36 0
BBX 33 45 1 0
BITMAP
000C030000
0006060000
00030C0000
00019C0000
0001F80000
0000F00000
0000600000
0000000000
0000000000
000E070000
001F0F8000
001F0F8000
001F0F8000
000E070000
0000000000
0000000000
0000000000
FFF801FF80
1FC0007E00
0F80003C00
0F80001800
0F80001800
0F80001800
0F80001800
0F80001800
0F80001800
0F80001800
0F80001800
0F80001800
0F80001800
0F80001800
0F80001800
0F80001800
0F80001800
0F80001800
0F80001800
0F80001800
0F80001800
0F80001800
07C0003000
07C0003000
03E0006000
01F001E000
00FF1FC000
003FFF0000
ENDCHAR
STARTCHAR 01DA
ENCODING 474
SWIDTH 500 0
DWIDTH 25 0
BBX 23 40 1 0
BITMAP
180060
0C01C0
070380
038700
03CF00
01FE00
00FC00
007800
007800
000000
0F03C0
1F07C0
1F07C0
0F03C0
000000
000000
000000
FE07F0
3E01F0
1E00F0
1E00F0
1E00F0
1E00F0
1E00F0
1E00F0
1E00F0
1E00F0
1E00F0
1E00F0
1E00F0
1E00F0
1E00F0
1E00F0
1E00F0
1E00F0
1F01F0
1F03F8
0FFEFE
0FFCFE
03F8E0
ENDCHAR
STARTCHAR 01DB
ENCODING 475
SWIDTH 720 0
DWIDTH 36 0
BBX 33 44 1 0
BITMAP
000E000000
000F000000
0003800000
0000C00000
0000300000
001E078000
001F07C000
001F07C000
001E078000
000C030000
0000000000
FFF801FF80
3FE0007E00
0F80003C00
0F80001C00
0F80001800
0F80001800
0F80001800
0F80001800
0F80001800
0F80001800
0F80001800
0F80001800
0F80001800
0F80001800
0F80001800
0F80001800
0F80001800
0F80001800
0F80001800
0F80001800
0F80001800
0F80001800
0F80001800
0F80001800
0F80001800
0FC0001800
07C0003000
07C0003000
03E0006000
03F000E000
01F803C000
00FFFF8000
003FFE0000
ENDCHAR
STARTCHAR 01DC
ENCODING 476
SWIDTH 500 0
DWIDTH 25 0
BBX 23 39 1 1
BITMAP
3C0000
3E0000
1F0000
0F8000
03C000
01E000
007000
003800
000000
0F03C0
1F07C0
1F07C0
0F03C0
060180
000000
000000
FE07F0
3E01F0
1E00F0
1E00F0
1E00F0
1E00F0
1E00F0
1E00F0
1E00F0
1E00F0
1E00F0
1E00F0
1E00F0
1E00F0
1E00F0
1E00F0
1E00F0
1E00F0
1F01F0
1F03F8
0FFEFE
0FFCFE
03F8E0
ENDCHAR
STARTCHAR 01DD
ENCODING 477
SWIDTH 440 0
DWIDTH 22 0
BBX 20 24 1 -1
BITMAP
01FC00
07FF00
0FFF80
1FFFC0
380FE0
6007E0
6003E0
C001F0
8001F0
0000F0
0000F0
0000F0
0000F0
0000F0
0000F0
7FFFF0
7C00E0
7C00E0
3C00E0
3E01C0
1E0380
1F0700
0FFE00
03F800
ENDCHAR
STARTCHAR 01DE
ENCODING 478
SWIDTH 720 0
DWIDTH 36 0
BBX 34 45 1 0
BITMAP
007FFF8000
007FFF8000
007FFF8000
0000000000
0000000000
0018060000
003C0F0000
007E1F8000
003C0F0000
003C0F0000
0000000000
0000800000
0000C00000
0001C00000
0001E00000
0001E00000
0003F00000
0003F00000
0007F00000
0006F80000
000EF80000
000C7C0000
000C7C0000
00183E0000
00183E0000
00381F0000
00301F0000
00301F0000
00600F8000
00600F8000
00C007C000
00C007C000
01FFFFE000
01FFFFE000
018003F000
030001F000
030001F000
070001F800
060000F800
0E0000FC00
0C00007C00
1C00007E00
1C00007E00
3E0000FF00
FFC003FFC0
ENDCHAR
STARTCHAR 01DF
ENCODING 479
SWIDTH 440 0
DWIDTH 22 0
BBX 21 36 1 0
BITMAP
1FFFE0
1FFFE0
1FFFE0
000000
000000
000000
1E0780
1F07C0
1F07C0
1E0780
000000
000000
000000
07FC00
1C0E00
380F00
780700
780780
780780
300780
000780
000F80
007780
01C780
070780
1C0780
380780
780780
700780
F00780
F00780
F80780
F81F80
FFF7D8
7FE7F0
3F83E0
ENDCHAR
STARTCHAR 01E0
ENCODING 480
SWIDTH 720 0
DWIDTH 36 0
BBX 34 45 1 0
BITMAP
003FFFC000
003FFFC000
003FFFC000
0000000000
0000000000
0000C00000
0001E00000
0003F00000
0001E00000
0001E00000
0000000000
0000800000
0000C00000
0001C00000
0001E00000
0001E00000
0003F00000
0003F00000
0007F00000
0006F80000
000EF80000
000C7C0000
000C7C0000
00183E0000
00183E0000
00381F0000
00301F0000
00301F0000
00600F8000
00600F8000
00C007C000
00C007C000
01FFFFE000
01FFFFE000
018003F000
030001F000
030001F000
070001F800
060000F800
0E0000FC00
0C00007C00
1C00007E00
1C00007E00
3E0000FF00
FFC003FFC0
ENDCHAR
STARTCHAR 01E1
ENCODING 481
SWIDTH 440 0
DWIDTH 22 0
BBX 21 36 1 0
BITMAP
1FFFE0
1FFFE0
1FFFE0
000000
000000
000000
00E000
01F000
01F000
00F000
006000
000000
000000
07FC00
1C0E00
380F00
780700
780780
780780
300780
000780
000F80
007780
01C780
070780
1C0780
380780
780780
700780
F00780
F00780
F80780
F81F80
FFF7D8
7FE7F0
3F83E0
ENDCHAR
STARTCHAR 01E2
ENCODING 482
SWIDTH 880 0
DWIDTH 44 0
BBX 43 39 0 0
BITMAP
00001FFFE000
00001FFFE000
00001FFFE000
000000000000
000000000000
000000000000
0007FFFFFF80
0000FFFFFF80
00007F800780
00006F800180
00006F800180
0000CF800080
0000CF800080
00018F800000
00018F800000
00030F800000
00030F800000
00060F800200
00060F800200
000C0F800600
000C0F800E00
00180FFFFE00
00180FFFFE00
00300F800E00
003FFF800600
007FFF800600
00600F800200
00E00F800200
00C00F800000
01C00F800000
01800F800000
03800F800020
03000F800060
07000F8000E0
06000F8000C0
0E000F8001C0
1E000F8007C0
3F003FFFFFC0
FFC0FFFFFF80
ENDCHAR
STARTCHAR 01E3
ENCODING 483
SWIDTH 640 0
DWIDTH 32 0
BBX 30 29 1 0
BITMAP
00FFFF00
00FFFF00
00FFFF00
00000000
00000000
00000000
0FF87F80
1C1EE1E0
380F80F0
780F80F0
780F80F0
780F00F8
300F00F8
000F0078
000FFFF8
003F0000
00EF0000
038F0000
0E0F0000
380F0000
780F8000
700F8004
F00F800C
F007C008
F807C030
F80FF070
7C1BFFE0
7FE1FFC0
3FC07F00
ENDCHAR
STARTCHAR 01E4
ENCODING 484
SWIDTH 720 0
DWIDTH 36 0
BBX 33 34 2 0
BITMAP
0007F80400
003FFF9C00
00FC07FC00
03F000FC00
07E0007C00
0FC0003C00
1F80001C00
1F00000C00
3F00000C00
3E00000400
7E00000000
7E00000000
FC00000000
FC00000000
FC00000000
FC00000000
FC0007FF80
FC0000FE00
FC00007C00
FC00007C00
FC00007C00
FC00007C00
7C0003FF00
7E0003FF00
7E00007C00
3E00007C00
3F00007C00
1F00007C00
1F80007C00
0FC0007C00
07E0007C00
01F800FC00
007F9FE000
001FFF0000
ENDCHAR
STARTCHAR 01E5
ENCODING 485
SWIDTH 500 0
DWIDTH 25 0
BBX 22 34 1 -10
BITMAP
03FE00
070FFC
0E07FC
1C03C0
1C03C0
3C03E0
3C01E0
3C01E0
3C01E0
3E01E0
3E01C0
1F01C0
0F0380
078700
01FC00
020000
040000
080000
180000
3E0000
3FFFC0
1FFFF0
0FFFF8
0C1FF8
180018
300008
FFFFFC
FFFFFC
700018
700030
780060
7F03C0
3FFF00
0FFC00
ENDCHAR
STARTCHAR 01E6
ENCODING 486
SWIDTH 720 0
DWIDTH 36 0
BBX 33 44 2 0
BITMAP
0060030000
0030060000
001C0C0000
000E3C0000
000F780000
0007F00000
0003E00000
0003E00000
0000000000
0000000000
0007F80400
003FFF9C00
00FC03FC00
03F000FC00
07E0007C00
0F80003C00
1F80001C00
1F00000C00
3F00000C00
3E00000400
7E00000000
7E00000000
7C00000000
FC00000000
FC00000000
FC00000000
FC0007FF80
FC0001FE00
FC00007C00
FC00007C00
FC00007C00
FC00007C00
7C00007C00
7E00007C00
7E00007C00
3E00007C00
3F00007C00
1F00007C00
1F80007C00
0FC0007C00
07E0007C00
01F801FC00
007F8FF000
001FFF0000
ENDCHAR
STARTCHAR 01E7
ENCODING 487
SWIDTH 460 0
DWIDTH 23 0
BBX 22 45 1 -11
BITMAP
180060
0C00C0
060180
070380
03CF00
01FE00
00FC00
00FC00
007800
000000
000000
03FF00
070FFC
0E07FC
1E03C0
1C03C0
3C03E0
3C01E0
3C01E0
3C01E0
3E01E0
3E01C0
1E01C0
1F03C0
0F8380
07CF00
03FC00
060000
0C0000
180000
3C0000
3FFF80
1FFFE0
0FFFF0
0C7FF8
180018
300008
700008
700008
F00018
F00010
F80060
7F03C0
3FFF00
1FFC00
ENDCHAR
STARTCHAR 01E8
ENCODING 488
SWIDTH 700 0
DWIDTH 35 0
BBX 34 44 1 0
BITMAP
0030030000
0038070000
001C0E0000
000E1C0000
0007380000
0007F80000
0003F00000
0001E00000
0000000000
0000000000
0000000000
FFF83FFF00
3FE007F800
0F8003E000
0F80038000
0F80070000
0F800E0000
0F801C0000
0F80380000
0F80700000
0F80E00000
0F81C00000
0F83800000
0F87000000
0F9E000000
0FBE000000
0FFF000000
0FFF800000
0FDFC00000
0F8FC00000
0F87E00000
0F83F00000
0F81F80000
0F80FC0000
0F807E0000
0F803F0000
0F801F8000
0F801FC000
0F800FE000
0F8007F000
0F8003F800
0F8003FC00
3FE003FE00
FFF81FFFC0
ENDCHAR
STARTCHAR 01E9
ENCODING 489
SWIDTH 520 0
DWIDTH 26 0
BBX 24 42 1 0
BITMAP
060030
0300E0
0181C0
01E380
00F780
007F00
003E00
003C00
060000
3E0000
FE0000
1E0000
1E0000
1E0000
1E0000
1E0000
1E0000
1E0000
1E0000
1E07FE
1E01F0
1E01C0
1E0380
1E0600
1E0C00
1E1800
1E3000
1E6000
1EE000
1FF000
1EF800
1E7C00
1E3E00
1E3E00
1E1F00
1E0F80
1E07C0
1E07C0
1E03E0
1E01F0
3F01FC
FFC7FF
ENDCHAR
STARTCHAR 01EA
ENCODING 490
SWIDTH 720 0
DWIDTH 36 0
BBX 33 42 2 -8
BITMAP
0007F00000
007FFE0000
00F81F8000
03E007E000
07C001F000
0F8000F800
1F0000F800
1F00007C00
3E00007E00
3E00003E00
7E00003F00
7C00003F00
FC00001F00
FC00001F00
FC00001F80
FC00001F80
FC00001F80
FC00001F80
FC00001F80
FC00001F80
FC00001F80
FC00001F00
7C00003F00
7C00003F00
7E00003F00
3E00003E00
3E00007E00
1F00007C00
0F0000F800
0F8000F000
07C001E000
01E007C000
00FC3F8000
003FFC0000
0001800000
0003000000
0007000000
0007000000
00070C0000
0007F80000
0003F00000
0001E00000
ENDCHAR
STARTCHAR 01EB
ENCODING 491
SWIDTH 500 0
DWIDTH 25 0
BBX 23 31 1 -7
BITMAP
01FF00
0787C0
0E01E0
1C01F0
3C00F8
780078
78007C
78007C
F8003C
F8003C
F8003E
F8003E
F8003E
F8003C
F8003C
78003C
7C003C
7C0078
3E0078
1E00F0
0F00E0
07C3C0
01FF00
001C00
003800
007000
007000
0070C0
007F80
003F00
001E00
ENDCHAR
STARTCHAR 01EC
ENCODING 492
SWIDTH 720 0
DWIDTH 36 0
BBX 33 48 2 -8
BITMAP
007FFF8000
007FFF8000
007FFF8000
0000000000
0000000000
0000000000
0007F00000
007FFE0000
00F81F8000
03E007E000
07C001F000
0F8000F800
1F0000F800
1F00007C00
3E00007E00
3E00003E00
7E00003F00
7C00003F00
FC00001F00
FC00001F00
FC00001F80
FC00001F80
FC00001F80
FC00001F80
FC00001F80
FC00001F80
FC00001F80
FC00001F00
7C00003F00
7C00003F00
7E00003F00
3E00003E00
3E00007E00
1F00007C00
0F0000F800
0F8000F000
07C001E000
01E007C000
00FC3F8000
003FFC0000
0001800000
0003000000
0007000000
0007000000
00070C0000
0007F80000
0003F00000
0001E00000
ENDCHAR
STARTCHAR 01ED
ENCODING 493
SWIDTH 500 0
DWIDTH 25 0
BBX 23 37 1 -8
BITMAP
0FFFF0
0FFFF0
0FFFF0
000000
000000
000000
01FF00
0787C0
0E01E0
1C01F0
3C00F8
780078
78007C
78007C
F8003C
F8003C
F8003E
F8003E
F8003E
F8003C
F8003C
78003C
7C003C
7C0078
3E0078
1E00F0
0F00E0
07C3C0
01FF00
001C00
003800
007000
007000
0070C0
007F80
003F00
001E00
ENDCHAR
STARTCHAR 01EE
ENCODING 494
SWIDTH 540 0
DWIDTH 27 0
BBX 24 45 1 0
BITMAP
03000C
018018
00E070
0070E0
0079E0
003FC0
001F80
000F00
000F00
000000
000000
000000
1FFFFF
1FFFFE
1F803E
1C007C
1C007C
1800F8
1800F8
1001F0
0001F0
0003E0
0003E0
0007C0
0007C0
000F80
000FE0
001FF8
001FFC
0000FE
00007E
00003F
00003F
00001F
00001F
00001F
00001F
00001F
80001F
C0003E
60003E
38007C
1E01F8
07FFF0
01FFC0
ENDCHAR
STARTCHAR 01EF
ENCODING 495
SWIDTH 380 0
DWIDTH 19 0
BBX 17 44 1 -10
BITMAP
400300
600600
380E00
1C1C00
0E3800
0FF000
07F000
03E000
03C000
000000
000000
FFFF00
FFFE00
FFFE00
C00400
800800
801800
001000
002000
006000
004000
00C000
018000
01C000
03F800
07FC00
00FE00
003F00
001F00
000F80
000780
000780
000780
000380
000380
000380
000380
000380
000300
E00700
F80600
FE1C00
FFF000
3FC000
ENDCHAR
STARTCHAR 01F0
ENCODING 496
SWIDTH 340 0
DWIDTH 17 0
BBX 17 44 0 -11
BITMAP
180180
0C0300
0E0700
079E00
03FC00
01F800
01F800
00F000
000000
000000
003800
00F800
03F800
007800
007800
007800
007800
007800
007800
007800
007800
007800
007800
007800
007800
007800
007800
007800
007800
007800
007800
007800
007800
007800
007800
007800
007800
007800
007800
007000
707000
F8E000
FCC000
7F8000
ENDCHAR
STARTCHAR 01F1
ENCODING 497
SWIDTH 1340 0
DWIDTH 67 0
BBX 65 33 1 0
BITMAP
FFFFE00003FFFFFF00
3FFFFE0003FFFFFF00
0F807F8003C0007E00
0F800FE00300007C00
0F8003F0030000FC00
0F8001F8060001F800
0F8000FC060003F000
0F80007E040003E000
0F80003F000007E000
0F80003F00000FC000
0F80001F80000F8000
0F80001F80001F8000
0F80000F80003F0000
0F80000F80007E0000
0F80000F80007E0000
0F80000F8000FC0000
0F80000FC001F80000
0F80000F8001F00000
0F80000F8003F00000
0F80000F8007E00000
0F80000F800FC00000
0F80001F800FC00000
0F80001F001F800000
0F80001F003F000000
0F80003F007E000080
0F80003E007E000080
0F80007C00FC000180
0F8000F801F8000180
0F8001F001F8000380
0F8007E003F0000780
0F803F8007E0001F00
3FFFFE000FFFFFFF00
FFFFE0000FFFFFFF00
ENDCHAR
STARTCHAR 01F2
ENCODING 498
SWIDTH 1160 0
DWIDTH 58 0
BBX 55 33 1 0
BITMAP
FFFFE000000000
3FFFFE00000000
0F807F80000000
0F800FE0000000
0F8003F0000000
0F8001F8000000
0F8000FC000000
0F80007E000000
0F80003F000000
0F80003F000000
0F80001F87FFFC
0F80001F87C07C
0F80000F8600F8
0F80000F8600F8
0F80000F8401F0
0F80000F8403E0
0F80000FC003E0
0F80000F8007C0
0F80000F800F80
0F80000F800F80
0F80000F801F00
0F80001F803E00
0F80001F003E00
0F80001F007C00
0F80003F007C00
0F80003E00F800
0F80007C01F002
0F8000F801F002
0F8001F003E006
0F8007E007C006
0F803F8007C00E
3FFFFE000F80FC
FFFFE0000FFFFC
ENDCHAR
STARTCHAR 01F3
ENCODING 499
SWIDTH 940 0
DWIDTH 47 0
BBX 44 34 1 0
BITMAP
000030000000
0001F0000000
0007F0000000
0000F0000000
0000F0000000
0000F0000000
0000F0000000
0000F0000000
0000F0000000
0000F0000000
0000F0000000
03FCF03FFFE0
0707F03E03E0
0E03F03007C0
1C01F0200780
3800F0200F80
3800F0201F00
7800F0001F00
7800F0003E00
F000F0007C00
F000F0007C00
F000F000F800
F000F001F000
F000F001F000
F000F003E000
F800F007E000
F800F007C000
7800F00F8010
7C00F00F8010
7E00F01F0030
3F01F83E0030
1F87FE3E0070
0FFEF87C07E0
07F8E0FFFFE0
ENDCHAR
STARTCHAR 01F4
ENCODING 500
SWIDTH 720 0
DWIDTH 36 0
BBX 33 45 2 0
BITMAP
0000020000
00000F0000
00001F0000
00003F0000
00007C0000
0000F80000
0001E00000
0003800000
0007000000
0000000000
0000000000
0007F80400
003FFF9C00
00FC03FC00
03F000FC00
07E0007C00
0F80003C00
1F80001C00
1F00000C00
3F00000C00
3E00000400
7E00000000
7E00000000
7C00000000
FC00000000
FC00000000
FC00000000
FC0007FF80
FC0001FE00
FC00007C00
FC00007C00
FC00007C00
FC00007C00
7C00007C00
7E00007C00
7E00007C00
3E00007C00
3F00007C00
1F00007C00
1F80007C00
0FC0007C00
07E0007C00
01F801FC00
007F8FF000
001FFF0000
ENDCHAR
STARTCHAR 01F5
ENCODING 501
SWIDTH 460 0
DWIDTH 23 0
BBX 22 45 1 -11
BITMAP
000080
0003C0
0007C0
000FC0
001F00
003E00
007800
00E000
01C000
000000
000000
03FF00
070FFC
0E07FC
1E03C0
1C03C0
3C03E0
3C01E0
3C01E0
3C01E0
3E01E0
3E01C0
1E01C0
1F03C0
0F8380
07CF00
03FC00
060000
0C0000
180000
3C0000
3FFF80
1FFFE0
0FFFF0
0C7FF8
180018
300008
700008
700008
F00018
F00010
F80060
7F03C0
3FFF00
1FFC00
ENDCHAR
STARTCHAR 01F6
ENCODING 502
SWIDTH 1000 0
DWIDTH 50 0
BBX 45 33 1 0
BITMAP
FFF807FFC000
3FE001FF0000
0F80007C0000
0F80007C0000
0F80007C0000
0F80007C0000
0F80007C0000
0F80007C0000
0F80007C0000
0F80007C0000
0F80007C0018
0F80007C00F8
0F80007C03F8
0F80007C0078
0F80007C0078
0FFFFFFC0078
0FFFFFFC0078
0F80007C0078
0F80007C0078
0F80007C0078
0F80007C0078
0F80007C0078
0F80007C0078
0F80007C0078
0F80007C0078
0F80007C0078
0F80007C0078
0F80003C00F8
0F80003E00F0
0F80003E01F0
0FC0001F03E0
3FE0000FFFC0
FFF80003FF00
ENDCHAR
STARTCHAR 01F7
ENCODING 503
SWIDTH 560 0
DWIDTH 28 0
BBX 25 34 1 0
BITMAP
0181F800
0787FE00
3F9FFF00
FFF03F80
1FC01F80
0F800F80
0F800F80
0F800F80
0F800F80
0F800F80
0F800F00
0F801F00
0F801F00
0F801E00
0F803E00
0F803C00
0F807800
0F807800
0F80F000
0F80E000
0F81C000
0F838000
0F870000
0F8E0000
0F9C0000
0FB80000
0FF00000
0FC00000
0F800000
0F800000
0F800000
1FC00000
3FE00000
FFF80000
ENDCHAR
STARTCHAR 01F8
ENCODING 504
SWIDTH 720 0
DWIDTH 36 0
BBX 33 44 2 1
BITMAP
001E000000
001F000000
000F800000
0007C00000
0001E00000
0000F00000
0000380000
00001C0000
0000000000
0000000000
0000000000
FF0001FF80
3F80007E00
1FC0003C00
0FE0001C00
0FE0001800
0FF0001800
0FF8001800
0DFC001800
0CFE001800
0C7E001800
0C3F001800
0C1F801800
0C1FC01800
0C0FE01800
0C07E01800
0C03F01800
0C01F81800
0C01FC1800
0C00FE1800
0C007E1800
0C003F1800
0C001F9800
0C001FD800
0C000FF800
0C0007F800
0C0003F800
0C0001F800
0C0001F800
0C0000F800
0E00007800
1E00003800
3F00001800
FFC0000800
ENDCHAR
STARTCHAR 01F9
ENCODING 505
SWIDTH 480 0
DWIDTH 24 0
BBX 23 33 1 1
BITMAP
0F0000
0F8000
07C000
03E000
00F000
007800
001C00
000E00
000000
000000
1E1FC0
FE7FE0
3EE3E0
1F81F0
1F00F0
1E00F0
1E00F0
1E00F0
1E00F0
1E00F0
1E00F0
1E00F0
1E00F0
1E00F0
1E00F0
1E00F0
1E00F0
1E00F0
1E00F0
1E00F0
1E00F0
3F01F8
FFC7FE
ENDCHAR
STARTCHAR 01FA
ENCODING 506
SWIDTH 720 0
DWIDTH 36 0
BBX 34 45 1 0
BITMAP
00000E0000
00001E0000
00003E0000
0000780000
0000F00000
0001C00000
0003800000
0006000000
0008C00000
0003F00000
0006180000
000C080000
000C0C0000
000C0C0000
000C0C0000
0006180000
0007F00000
0001E00000
0000000000
0000C00000
0001C00000
0001E00000
0003E00000
0003F00000
0007F80000
0006F80000
000E7C0000
000C7C0000
001C3E0000
00383E0000
00381F0000
00701F8000
00600F8000
00E00FC000
00C007C000
01C007E000
01FFFFE000
038003F000
030001F000
070001F800
0E0000FC00
0E00007C00
1C00007E00
3E00007F00
FFC007FFC0
ENDCHAR
STARTCHAR 01FB
ENCODING 507
SWIDTH 440 0
DWIDTH 22 0
BBX 21 45 1 0
BITMAP
000100
000780
000F80
001F80
003E00
007C00
00F000
01C000
038000
000000
004000
03F800
071C00
0C0C00
0C0600
0C0600
0C0400
0E0C00
07F800
01F000
000000
000000
07FC00
1C0E00
380F00
780700
780780
780780
300780
000780
000F80
007780
01C780
070780
1C0780
380780
780780
700780
F00780
F00780
F80780
F81F80
FFF7D8
7FE7F0
3F83E0
ENDCHAR
STARTCHAR 01FC
ENCODING 508
SWIDTH 880 0
DWIDTH 44 0
BBX 43 45 0 0
BITMAP
000000010000
000000078000
0000000F8000
0000001F8000
0000003E0000
0000007C0000
000000F00000
000001C00000
000003800000
000000000000
000000000000
000000000000
0007FFFFFF80
0000FFFFFF80
00007F800780
00006F800180
00006F800180
0000CF800080
0000CF800080
00018F800000
00018F800000
00030F800000
00030F800000
00060F800200
00060F800200
000C0F800600
000C0F800E00
00180FFFFE00
00180FFFFE00
00300F800E00
003FFF800600
007FFF800600
00600F800200
00E00F800200
00C00F800000
01C00F800000
01800F800000
03800F800020
03000F800060
07000F8000E0
06000F8000C0
0E000F8001C0
1E000F8007C0
3F003FFFFFC0
FFC0FFFFFF80
ENDCHAR
STARTCHAR 01FD
ENCODING 509
SWIDTH 640 0
DWIDTH 32 0
BBX 30 34 1 0
BITMAP
00000400
00001E00
00003E00
00007E00
0000F800
0001F000
0003C000
00070000
000E0000
00000000
00000000
0FF87F80
1C1EE1E0
380F80F0
780F80F0
780F80F0
780F00F8
300F00F8
000F0078
000FFFF8
003F0000
00EF0000
038F0000
0E0F0000
380F0000
780F8000
700F8004
F00F800C
F007C008
F807C030
F80FF070
7C1BFFE0
7FE1FFC0
3FC07F00
ENDCHAR
STARTCHAR 01FE
ENCODING 510
SWIDTH 720 0
DWIDTH 36 0
BBX 33 49 2 -4
BITMAP
0000020000
00000F0000
00001F0000
00003F0000
00007C0000
0000F80000
0001E00000
0003800000
0007000600
0000000C00
0000001C00
0007F01800
007FFE3000
00F81FF000
03E007E000
07C001F000
0F8001F800
1F0001F800
1F00037C00
3E00077E00
3E000E3E00
7E000C3F00
7C001C3F00
FC00381F00
FC00301F00
FC00601F80
FC00E01F80
FC00C01F80
FC01801F80
FC03801F80
FC03001F80
FC06001F80
FC0E001F00
7C0C001F00
7C18003F00
7E38003E00
3E70003E00
3F60007E00
1FE0007C00
0FC000F800
078001F000
03C003E000
07F007C000
067E7F8000
0C1FFC0000
1C00000000
1800000000
3000000000
7000000000
ENDCHAR
STARTCHAR 01FF
ENCODING 511
SWIDTH 500 0
DWIDTH 25 0
BBX 23 40 1 -6
BITMAP
000100
000780
000F80
001F80
003E00
007C00
00F018
01C030
038030
000060
000060
03FFC0
0707C0
1E03E0
1C03F0
3803F8
7806F8
78067C
F80C7C
F80C3C
F8183E
F8183E
F8303E
F8303E
F8603C
F8603C
7CC03C
7D803C
7D8078
3F0070
1F00F0
0F00E0
07C3C0
0DFF00
0C0000
180000
180000
300000
300000
600000
ENDCHAR
STARTCHAR 0200
ENCODING 512
SWIDTH 720 0
DWIDTH 36 0
BBX 34 44 1 0
BITMAP
01C3800000
01E3C00000
01E3C00000
00F1E00000
0070E00000
0038700000
001C700000
000C380000
0000000000
0000000000
0000800000
0000C00000
0001C00000
0001E00000
0001E00000
0003F00000
0003F00000
0007F00000
0006F80000
000EF80000
000C7C0000
000C7C0000
00183E0000
00183E0000
00381F0000
00301F0000
00301F0000
00600F8000
00600F8000
00C007C000
00C007C000
01FFFFE000
01FFFFE000
018003F000
030001F000
030001F000
070001F800
060000F800
0E0000FC00
0C00007C00
1C00007E00
1C00007E00
3E0000FF00
FFC003FFC0
ENDCHAR
STARTCHAR 0201
ENCODING 513
SWIDTH 440 0
DWIDTH 22 0
BBX 21 35 1 0
BITMAP
200000
70E000
F8F000
78F000
3C7800
1E3800
0E1C00
071C00
030E00
000000
000000
000000
07FC00
1C0E00
380F00
780700
780780
780780
300780
000780
000F80
007780
01C780
070780
1C0780
380780
780780
700780
F00780
F00780
F80780
F81F80
FFF7D8
7FE7F0
3F83E0
ENDCHAR
STARTCHAR 0202
ENCODING 514
SWIDTH 720 0
DWIDTH 36 0
BBX 34 45 1 0
BITMAP
0000C00000
0003F80000
000FFE0000
000FBE0000
001C070000
0018030000
0018030000
0030010000
0000000000
0000000000
0000000000
0000800000
0000C00000
0001C00000
0001E00000
0001E00000
0003F00000
0003F00000
0007F00000
0006F80000
000EF80000
000C7C0000
000C7C0000
00183E0000
00183E0000
00381F0000
00301F0000
00301F0000
00600F8000
00600F8000
00C007C000
00C007C000
01FFFFE000
01FFFFE000
018003F000
030001F000
030001F000
070001F800
060000F800
0E0000FC00
0C00007C00
1C00007E00
1C00007E00
3E0000FF00
FFC003FFC0
ENDCHAR
STARTCHAR 0203
ENCODING 515
SWIDTH 440 0
DWIDTH 22 0
BBX 21 34 1 0
BITMAP
01F800
03FE00
07FF00
0F0700
0C0380
1C0180
180180
180180
000000
000000
000000
07FC00
1C0E00
380F00
780700
780780
780780
300780
000780
000F80
007780
01C780
070780
1C0780
380780
780780
700780
F00780
F00780
F80780
F81F80
FFF7D8
7FE7F0
3F83E0
ENDCHAR
STARTCHAR 0204
ENCODING 516
SWIDTH 620 0
DWIDTH 31 0
BBX 29 44 1 0
BITMAP
070E0000
078F0000
078F0000
03C78000
01E38000
00E1C000
0071C000
0030E000
00080000
00000000
00000000
FFFFFFC0
3FFFFFC0
0F8003C0
0F8000C0
0F8000C0
0F800040
0F800040
0F800000
0F800000
0F800000
0F800000
0F800200
0F800200
0F800600
0F801E00
0FFFFE00
0FFFFE00
0F800E00
0F800600
0F800200
0F800200
0F800000
0F800000
0F800000
0F800000
0F800018
0F800030
0F800030
0F800070
0F8000F0
0FC003E0
3FFFFFE0
FFFFFFE0
ENDCHAR
STARTCHAR 0205
ENCODING 517
SWIDTH 440 0
DWIDTH 22 0
BBX 20 34 1 0
BITMAP
70F000
78F000
78F000
3C7800
1E3800
0E1C00
070C00
038E00
000000
000000
000000
03FE00
07BF00
0C0F80
1807C0
3803C0
7003E0
7003E0
7003E0
FFFFE0
F00000
F00000
F00000
F00000
F00000
F80000
F80010
7C0030
7C0060
7F00E0
3FC3C0
1FFF80
0FFF00
07FC00
ENDCHAR
STARTCHAR 0206
ENCODING 518
SWIDTH 620 0
DWIDTH 31 0
BBX 29 45 1 0
BITMAP
00060000
003FC000
007FE000
00F9F000
00C07000
01C03800
01801800
01801800
00000000
00000000
00000000
00000000
FFFFFFC0
3FFFFFC0
0F8003C0
0F8000C0
0F8000C0
0F800040
0F800040
0F800000
0F800000
0F800000
0F800000
0F800200
0F800200
0F800600
0F801E00
0FFFFE00
0FFFFE00
0F800E00
0F800600
0F800200
0F800200
0F800000
0F800000
0F800000
0F800000
0F800018
0F800030
0F800030
0F800070
0F8000F0
0FC003E0
3FFFFFE0
FFFFFFE0
ENDCHAR
STARTCHAR 0207
ENCODING 519
SWIDTH 440 0
DWIDTH 22 0
BBX 20 34 1 0
BITMAP
00F800
03FE00
07FF00
070780
0E0380
0C0180
0C0080
0800C0
000000
000000
000000
03FE00
07BF00
0C0F80
1807C0
3803C0
7003E0
7003E0
7003E0
FFFFE0
F00000
F00000
F00000
F00000
F00000
F80000
F80010
7C0030
7C0060
7F00E0
3FC3C0
1FFF80
0FFF00
07FC00
ENDCHAR
STARTCHAR 0208
ENCODING 520
SWIDTH 320 0
DWIDTH 16 0
BBX 15 44 0 0
BITMAP
E0E0
F1E0
F9F0
78F0
3C78
1C38
0E18
070C
0000
0000
0000
3FFE
0FF8
03E0
03E0
03E0
03E0
03E0
03E0
03E0
03E0
03E0
03E0
03E0
03E0
03E0
03E0
03E0
03E0
03E0
03E0
03E0
03E0
03E0
03E0
03E0
03E0
03E0
03E0
03E0
03E0
03E0
07F0
3FFE
ENDCHAR
STARTCHAR 0209
ENCODING 521
SWIDTH 280 0
DWIDTH 14 0
BBX 15 34 -3 0
BITMAP
60E0
F1E0
F8F0
78F0
3C78
1E38
0E1C
070C
030E
0000
0000
0030
01F0
07F0
00F0
00F0
00F0
00F0
00F0
00F0
00F0
00F0
00F0
00F0
00F0
00F0
00F0
00F0
00F0
00F0
00F0
00F8
01F8
0FFE
ENDCHAR
STARTCHAR 020A
ENCODING 522
SWIDTH 320 0
DWIDTH 16 0
BBX 14 45 2 0
BITMAP
0200
1FE0
3FF0
7DF8
6038
C018
C008
800C
0000
0000
0000
0000
FFF8
3FE0
0F80
0F80
0F80
0F80
0F80
0F80
0F80
0F80
0F80
0F80
0F80
0F80
0F80
0F80
0F80
0F80
0F80
0F80
0F80
0F80
0F80
0F80
0F80
0F80
0F80
0F80
0F80
0F80
0F80
1FC0
FFF8
ENDCHAR
STARTCHAR 020B
ENCODING 523
SWIDTH 280 0
DWIDTH 14 0
BBX 14 34 0 0
BITMAP
0FC0
1FF0
3FF8
7838
601C
600C
C00C
C004
0000
0000
0000
0180
0F80
3F80
0780
0780
0780
0780
0780
0780
0780
0780
0780
0780
0780
0780
0780
0780
0780
0780
0780
07C0
0FC0
7FF0
ENDCHAR
STARTCHAR 020C
ENCODING 524
SWIDTH 720 0
DWIDTH 36 0
BBX 33 44 2 0
BITMAP
0183800000
03C7800000
03E3C00000
01E3C00000
00F1E00000
0078E00000
0038700000
001C300000
0000000000
0000000000
0007F00000
007FFE0000
00F81F8000
03E007E000
07C001F000
0F8000F800
1F0000F800
1F00007C00
3E00007E00
3E00003E00
7E00003F00
7C00003F00
FC00001F00
FC00001F00
FC00001F80
FC00001F80
FC00001F80
FC00001F80
FC00001F80
FC00001F80
FC00001F80
FC00001F00
7C00003F00
7E00003F00
7E00003F00
3E00003E00
3F00007E00
1F00007C00
0F8000F800
0F8001F000
07C003E000
01F007C000
00FF7F8000
003FFC0000
ENDCHAR
STARTCHAR 020D
ENCODING 525
SWIDTH 500 0
DWIDTH 25 0
BBX 23 34 1 0
BITMAP
387000
787800
3C7800
1E3C00
0E1C00
071E00
038E00
018600
000000
000000
000000
03FF00
0707C0
1E03E0
1C01F0
3800F8
780078
78007C
F8007C
F8003C
F8003C
F8003E
F8003E
F8003E
F8003C
F8003C
78003C
7C003C
7C0078
3E0070
1E00F0
0F00E0
07C3C0
03FF00
ENDCHAR
STARTCHAR 020E
ENCODING 526
SWIDTH 720 0
DWIDTH 36 0
BBX 33 45 2 0
BITMAP
0001800000
000FF00000
001FF80000
001F7C0000
00380E0000
0030060000
0060060000
0060020000
0000000000
0000000000
0000000000
0007F00000
007FFE0000
00F81F8000
03E007E000
07C001F000
0F8000F800
1F0000F800
1F00007C00
3E00007E00
3E00003E00
7E00003F00
7C00003F00
FC00001F00
FC00001F00
FC00001F80
FC00001F80
FC00001F80
FC00001F80
FC00001F80
FC00001F80
FC00001F80
FC00001F00
7C00003F00
7E00003F00
7E00003F00
3E00003E00
3F00007E00
1F00007C00
0F8000F800
0F8001F000
07C003E000
01F007C000
00FF7F8000
003FFC0000
ENDCHAR
STARTCHAR 020F
ENCODING 527
SWIDTH 500 0
DWIDTH 25 0
BBX 23 34 1 0
BITMAP
007E00
01FF00
01FF80
0383C0
0300C0
0600E0
060060
040060
000000
000000
000000
03FF00
0707C0
1E03E0
1C01F0
3800F8
780078
78007C
F8007C
F8003C
F8003C
F8003E
F8003E
F8003E
F8003C
F8003C
78003C
7C003C
7C0078
3E0070
1E00F0
0F00E0
07C3C0
03FF00
ENDCHAR
STARTCHAR 0210
ENCODING 528
SWIDTH 660 0
DWIDTH 33 0
BBX 32 44 1 0
BITMAP
0E1C0000
0F1E0000
0F1E0000
078F0000
03870000
01C78000
00E38000
00618000
00000000
00000000
00000000
FFFFC000
3FFFFC00
0F80FE00
0F801F80
0F800F80
0F800FC0
0F8007C0
0F8007C0
0F8007C0
0F8007C0
0F8007C0
0F8007C0
0F800FC0
0F801F80
0F803F00
0F81FE00
0FFFF800
0FFFC000
0F8FC000
0F87E000
0F83F000
0F81F800
0F80FC00
0F80FE00
0F807E00
0F803F00
0F801F80
0F800FC0
0F800FE0
0F8007F0
0F8003F0
3FE001FC
FFF800FF
ENDCHAR
STARTCHAR 0211
ENCODING 529
SWIDTH 340 0
DWIDTH 17 0
BBX 16 34 1 1
BITMAP
E1C0
F1E0
F1E0
78F0
3C70
1C38
0E18
061C
0000
0000
0000
0E3F
7E7F
FEFF
1E80
1F00
1F00
1E00
1E00
1E00
1E00
1E00
1E00
1E00
1E00
1E00
1E00
1E00
1E00
1E00
1E00
1F00
3F80
FFE0
ENDCHAR
STARTCHAR 0212
ENCODING 530
SWIDTH 660 0
DWIDTH 33 0
BBX 32 45 1 0
BITMAP
00060000
001FC000
003FF000
007DF000
00E03800
00C01800
00C01800
00800800
00000000
00000000
00000000
00000000
FFFFC000
3FFFFC00
0F80FE00
0F801F80
0F800F80
0F800FC0
0F8007C0
0F8007C0
0F8007C0
0F8007C0
0F8007C0
0F8007C0
0F800FC0
0F801F80
0F803F00
0F81FE00
0FFFF800
0FFFC000
0F8FC000
0F87E000
0F83F000
0F81F800
0F80FC00
0F80FE00
0F807E00
0F803F00
0F801F80
0F800FC0
0F800FE0
0F8007F0
0F8003F0
3FE001FC
FFF800FF
ENDCHAR
STARTCHAR 0213
ENCODING 531
SWIDTH 340 0
DWIDTH 17 0
BBX 16 34 1 0
BITMAP
07E0
0FF8
1FFC
3C1C
300E
7006
6006
6006
0000
0000
0000
0E3F
7E7F
FEFF
1E80
1F00
1F00
1E00
1E00
1E00
1E00
1E00
1E00
1E00
1E00
1E00
1E00
1E00
1E00
1E00
1E00
1F00
3F80
FFE0
ENDCHAR
STARTCHAR 0214
ENCODING 532
SWIDTH 720 0
DWIDTH 36 0
BBX 33 44 1 0
BITMAP
0070E00000
0078F00000
0078F00000
003C780000
001E380000
000E1C0000
00070C0000
00038E0000
0000000000
0000000000
0000000000
FFF801FF80
3FE0007E00
0F80003C00
0F80001C00
0F80001800
0F80001800
0F80001800
0F80001800
0F80001800
0F80001800
0F80001800
0F80001800
0F80001800
0F80001800
0F80001800
0F80001800
0F80001800
0F80001800
0F80001800
0F80001800
0F80001800
0F80001800
0F80001800
0F80001800
0F80001800
0FC0001800
07C0003000
07C0003000
03E0006000
03F000E000
01F803C000
00FFFF8000
003FFE0000
ENDCHAR
STARTCHAR 0215
ENCODING 533
SWIDTH 500 0
DWIDTH 25 0
BBX 23 34 1 0
BITMAP
1C3C00
1E3C00
1E3C00
0F1E00
078E00
038700
01C300
00E380
000000
000000
000000
FE07F0
3E01F0
1E00F0
1E00F0
1E00F0
1E00F0
1E00F0
1E00F0
1E00F0
1E00F0
1E00F0
1E00F0
1E00F0
1E00F0
1E00F0
1E00F0
1E00F0
1E00F0
1F01F0
1F03F8
0FFEFE
0FFCFE
03F8E0
ENDCHAR
STARTCHAR 0216
ENCODING 534
SWIDTH 720 0
DWIDTH 36 0
BBX 33 45 1 0
BITMAP
0000600000
0003FC0000
0007FE0000
0007DF0000
000E038000
000C018000
0018018000
0018008000
0000000000
0000000000
0000000000
0000000000
FFF801FF80
3FE0007E00
0F80003C00
0F80001C00
0F80001800
0F80001800
0F80001800
0F80001800
0F80001800
0F80001800
0F80001800
0F80001800
0F80001800
0F80001800
0F80001800
0F80001800
0F80001800
0F80001800
0F80001800
0F80001800
0F80001800
0F80001800
0F80001800
0F80001800
0F80001800
0FC0001800
07C0003000
07C0003000
03E0006000
03F000E000
01F803C000
00FFFF8000
003FFE0000
ENDCHAR
STARTCHAR 0217
ENCODING 535
SWIDTH 500 0
DWIDTH 25 0
BBX 23 34 1 0
BITMAP
00FC00
01FE00
03FF00
070780
060180
0C00C0
0C00C0
0C00C0
000000
000000
000000
FE07F0
3E01F0
1E00F0
1E00F0
1E00F0
1E00F0
1E00F0
1E00F0
1E00F0
1E00F0
1E00F0
1E00F0
1E00F0
1E00F0
1E00F0
1E00F0
1E00F0
1E00F0
1F01F0
1F03F8
0FFEFE
0FFCFE
03F8E0
ENDCHAR
STARTCHAR 0218
ENCODING 536
SWIDTH 520 0
DWIDTH 26 0
BBX 22 49 2 -15
BITMAP
03FC10
0FFFF0
1F07F0
3E01F0
3C0070
780070
780038
780018
7C0018
7C0008
7E0000
3F0000
3F8000
1FE000
1FF800
07FE00
03FF00
01FF80
007FE0
001FF0
0007F8
0003F8
0001FC
0000FC
8000FC
80007C
C0007C
E0007C
E0007C
F000F8
F800F0
7C01F0
7FDFC0
43FF80
401000
000000
000000
007800
00FC00
00FE00
00FE00
007E00
000600
000400
000C00
000800
001000
006000
004000
ENDCHAR
STARTCHAR 0219
ENCODING 537
SWIDTH 360 0
DWIDTH 18 0
BBX 14 38 2 -14
BITMAP
1FF8
3078
6038
E018
E018
E008
F008
F800
7E00
7F00
3FC0
1FE0
07F0
03F8
00FC
807C
803C
C01C
C01C
C01C
E018
F038
FFE0
0000
0000
0000
0F00
1F80
1FC0
1FC0
0FC0
00C0
0080
0180
0100
0200
0C00
0800
ENDCHAR
STARTCHAR 021A
ENCODING 538
SWIDTH 600 0
DWIDTH 30 0
BBX 28 48 1 -15
BITMAP
FFFFFFF0
FFFFFFF0
FC0F81F0
E00F8070
E00F8030
C00F8030
C00F8010
800F8010
000F8000
000F8000
000F8000
000F8000
000F8000
000F8000
000F8000
000F8000
000F8000
000F8000
000F8000
000F8000
000F8000
000F8000
000F8000
000F8000
000F8000
000F8000
000F8000
000F8000
000F8000
000F8000
000F8000
003FC000
00FFF800
00000000
00000000
00000000
000F0000
001F8000
001FC000
001FC000
000FC000
0000C000
00008000
00018000
00010000
00020000
000C0000
00080000
ENDCHAR
STARTCHAR 021B
ENCODING 539
SWIDTH 280 0
DWIDTH 14 0
BBX 12 44 2 -15
BITMAP
0400
0400
0C00
1C00
1C00
3C00
FFE0
FC00
3C00
3C00
3C00
3C00
3C00
3C00
3C00
3C00
3C00
3C00
3C00
3C00
3C00
3C00
3C00
3C00
3C00
3E10
3F30
1FE0
0FC0
0200
0000
0000
0F00
1F80
1FC0
1FC0
0FC0
00C0
0080
0180
0100
0200
0C00
0800
ENDCHAR
STARTCHAR 021C
ENCODING 540
SWIDTH 440 0
DWIDTH 22 0
BBX 18 35 2 -1
BITMAP
800000
800000
8FF800
FFFC00
F03E00
E01F00
C00F00
800F00
800F00
000F00
000F00
000F00
000E00
001E00
001C00
003C00
003800
007800
00FE00
03DF00
0F0F80
3C07C0
0007C0
0007C0
0007C0
0007C0
000780
000F80
000F00
001E00
003C00
00F800
03E000
1F8000
3C0000
ENDCHAR
STARTCHAR 021D
ENCODING 541
SWIDTH 420 0
DWIDTH 21 0
BBX 18 32 2 -11
BITMAP
800000
8FE000
BFF800
F0FC00
C07C00
803E00
003E00
003C00
003C00
003C00
007800
007800
00F000
00F800
03FE00
079F00
1E0F80
180F80
0007C0
0007C0
0007C0
000780
000780
000F80
000F00
001E00
003C00
007800
01F000
07C000
3E0000
300000
ENDCHAR
STARTCHAR 021E
ENCODING 542
SWIDTH 720 0
DWIDTH 36 0
BBX 33 44 1 0
BITMAP
0030018000
0018030000
000E0E0000
000F1E0000
0007BC0000
0003F80000
0001F00000
0001F00000
0000000000
0000000000
0000000000
FFF80FFF80
3FE003FE00
0F8000F800
0F8000F800
0F8000F800
0F8000F800
0F8000F800
0F8000F800
0F8000F800
0F8000F800
0F8000F800
0F8000F800
0F8000F800
0F8000F800
0F8000F800
0FFFFFF800
0FFFFFF800
0F8000F800
0F8000F800
0F8000F800
0F8000F800
0F8000F800
0F8000F800
0F8000F800
0F8000F800
0F8000F800
0F8000F800
0F8000F800
0F8000F800
0F8000F800
0FC000FC00
3FE003FE00
FFF80FFF80
ENDCHAR
STARTCHAR 021F
ENCODING 543
SWIDTH 500 0
DWIDTH 25 0
BBX 23 42 1 0
BITMAP
060030
0380E0
01C1C0
00E380
00F780
007F00
003E00
003C00
060000
3E0000
FE0000
1E0000
1E0000
1E0000
1E0000
1E0000
1E0000
1E0000
1E0000
1E3FC0
1E7FE0
1EE3E0
1F81F0
1F00F0
1E00F0
1E00F0
1E00F0
1E00F0
1E00F0
1E00F0
1E00F0
1E00F0
1E00F0
1E00F0
1E00F0
1E00F0
1E00F0
1E00F0
1E00F0
1F00F8
3F01FC
FFC7FE
ENDCHAR
STARTCHAR 0220
ENCODING 544
SWIDTH 720 0
DWIDTH 36 0
BBX 33 43 1 -9
BITMAP
01C07F8000
0FC1FFC000
3FC7FFE000
FFCF0FF000
0FDC03F000
07F801F800
07F001F800
07E000F800
07C000F800
07C000F800
07C000F800
07C000F800
07C000F800
07C000F800
07C000F800
07C000F800
07C000F800
07C000F800
07C000F800
07C000F800
07C000F800
07C000F800
07C000F800
07C000F800
07C000F800
07C000F800
07C000F800
07C000F800
07C000F800
07C000F800
0FE000F800
1FF000F800
7FFC00F800
000000F800
000000F800
000000F800
000000F800
000000F800
000000F800
000000F800
000001FC00
000003FE00
00000FFF80
ENDCHAR
STARTCHAR 0221
ENCODING 545
SWIDTH 580 0
DWIDTH 29 0
BBX 28 46 1 -12
BITMAP
00003000
0001F000
0007F000
0000F000
0000F000
0000F000
0000F000
0000F000
0000F000
0000F000
0000F000
03FCF000
0707F000
0E03F000
1C01F000
3800F000
3800F000
7800F000
7800F000
F000F000
F000F000
F000F000
F000F000
F000F000
F000F000
F800F000
F800F000
7800F000
7C00F000
7E00F000
3F01F000
1F87F000
0FFEF000
07F8F000
0000FF00
0003FFC0
000FF040
0038F060
00E0F020
0180F030
0600F030
04007820
00007860
00003CE0
00003FC0
00000F80
ENDCHAR
STARTCHAR 0222
ENCODING 546
SWIDTH 560 0
DWIDTH 28 0
BBX 24 34 2 0
BITMAP
07C000
1E00FE
3C001F
7C0007
FC0003
FC0003
FC0003
FC0003
FE0006
FF000C
7F8038
3FE0F0
1FF3C0
0FFF00
03FF00
01FFC0
03FFF0
0F0FF8
1E07FC
3C01FE
7800FE
78007F
F8003F
F8001F
F8001F
F8001F
F8001F
F8001F
7C001E
7C003E
3E003C
1F8078
0FF7F0
03FFC0
ENDCHAR
STARTCHAR 0223
ENCODING 547
SWIDTH 460 0
DWIDTH 23 0
BBX 21 35 1 0
BITMAP
0000E0
0801F0
1807F8
300038
700018
E00018
E00018
E00018
F00030
F00070
F80060
7C00C0
7F0180
3F8700
1FEC00
0FF800
03FE00
03FF00
0E7F80
1C1FC0
3807E0
7803F0
7801F0
F000F8
F00078
F00078
F00078
F00078
F80070
780070
7800F0
3C00E0
1E01C0
0F8380
03FF00
ENDCHAR
STARTCHAR 0224
ENCODING 548
SWIDTH 620 0
DWIDTH 31 0
BBX 29 43 1 -10
BITMAP
3FFFFFF0
3FFFFFE0
3C0007E0
30000FC0
60001F80
60001F00
60003F00
40007E00
00007C00
0000FC00
0001F800
0001F000
0003F000
0007E000
000FC000
000F8000
001F8000
003F0000
003E0000
007E0000
00FC0000
00F80000
01F80000
03F00000
07E00000
07E00000
0FC00000
1F800000
1F000000
3F000000
7E000000
7FFFFFC0
FFFFFFF0
000001F8
00000078
00000078
00000070
00000070
000000E0
000000C0
000001C0
00000100
00000200
ENDCHAR
STARTCHAR 0225
ENCODING 549
SWIDTH 440 0
DWIDTH 22 0
BBX 20 33 2 -10
BITMAP
7FFFC0
7C07C0
600F80
400F80
401F00
403E00
003E00
007C00
007800
00F800
01F000
01F000
03E000
07C000
07C000
0F8000
0F0000
1F0000
3E0000
3C0000
7C0000
FFF800
FFFFC0
0003F0
0000F0
0000F0
0000F0
0000E0
0001C0
000180
000380
000600
000400
ENDCHAR
STARTCHAR 0226
ENCODING 550
SWIDTH 720 0
DWIDTH 36 0
BBX 34 41 1 0
BITMAP
0000C00000
0001E00000
0003F00000
0001E00000
0001E00000
0000000000
0000000000
0000800000
0000C00000
0001C00000
0001E00000
0001E00000
0003F00000
0003F00000
0007F00000
0006F80000
000EF80000
000C7C0000
000C7C0000
00183E0000
00183E0000
00381F0000
00301F0000
00301F0000
00600F8000
00600F8000
00C007C000
00C007C000
01FFFFE000
01FFFFE000
018003F000
030001F000
030001F000
070001F800
060000F800
0E0000FC00
0C00007C00
1C00007E00
1C00007E00
3E0000FF00
FFC003FFC0
ENDCHAR
STARTCHAR 0227
ENCODING 551
SWIDTH 440 0
DWIDTH 22 0
BBX 21 31 1 0
BITMAP
00E000
01F000
01F000
01F000
00E000
000000
000000
000000
07FC00
1C0E00
380F00
780700
780780
780780
300780
000780
000F80
007780
01C780
070780
1C0780
380780
780780
700780
F00780
F00780
F80780
F81F80
FFF7D8
7FE7F0
3F83E0
ENDCHAR
STARTCHAR 0228
ENCODING 552
SWIDTH 620 0
DWIDTH 31 0
BBX 29 44 1 -11
BITMAP
FFFFFFC0
3FFFFFC0
0F8003C0
0F8000C0
0F8000C0
0F800040
0F800040
0F800000
0F800000
0F800000
0F800000
0F800200
0F800200
0F800600
0F801E00
0FFFFE00
0FFFFE00
0F800E00
0F800600
0F800200
0F800200
0F800000
0F800000
0F800000
0F800000
0F800018
0F800018
0F800030
0F800070
0F8000F0
0FC003E0
3FFFFFE0
FFFFFFE0
00060000
00060000
00040000
000FC000
000FE000
0001F000
0000F000
0000F000
0001E000
007FE000
003F8000
ENDCHAR
STARTCHAR 0229
ENCODING 553
SWIDTH 440 0
DWIDTH 22 0
BBX 20 34 1 -10
BITMAP
03FE00
07BF80
0C0780
1803C0
3803E0
7003E0
7003E0
7001E0
FFFFF0
F00000
F00000
F00000
F00000
F00000
F80000
F80010
7C0010
7C0020
7E0060
3F81C0
1FFF80
0FFF00
07FE00
006000
006000
00C000
00FC00
00FE00
001F00
000F00
000F00
001E00
07FE00
03F800
ENDCHAR
STARTCHAR 022A
ENCODING 554
SWIDTH 720 0
DWIDTH 36 0
BBX 33 45 2 0
BITMAP
007FFF8000
007FFF8000
007FFF8000
0000000000
0000000000
00781E0000
007C1F0000
007C1F0000
00781E0000
00300C0000
0000000000
0007F00000
007FFE0000
00F81F8000
03E007E000
07C001F000
0F8000F800
1F0000F800
1F00007C00
3E00007E00
3E00003E00
7E00003F00
7C00003F00
FC00001F00
FC00001F00
FC00001F80
FC00001F80
FC00001F80
FC00001F80
FC00001F80
FC00001F80
FC00001F80
FC00001F00
7C00003F00
7E00003F00
7E00003F00
3E00003E00
3F00007E00
1F00007C00
0F8000F800
0F8001F000
07C003E000
01F007C000
00FF7F8000
003FFC0000
ENDCHAR
STARTCHAR 022B
ENCODING 555
SWIDTH 500 0
DWIDTH 25 0
BBX 23 36 1 0
BITMAP
0FFFF0
0FFFF0
0FFFF0
000000
000000
000000
0781E0
0F83E0
0F83E0
0781E0
020080
000000
000000
03FF00
0707C0
1E03E0
1C01F0
3800F8
780078
78007C
F8007C
F8003C
F8003C
F8003E
F8003E
F8003E
F8003C
F8003C
78003C
7C003C
7C0078
3E0070
1E00F0
0F00E0
07C3C0
03FF00
ENDCHAR
STARTCHAR 022C
ENCODING 556
SWIDTH 720 0
DWIDTH 36 0
BBX 33 45 2 0
BITMAP
00FFFF0000
00FFFF0000
00FFFF0000
0000000000
0000000000
000C030000
007F820000
00FFFE0000
00C7FC0000
0080F80000
0000000000
0007F00000
007FFE0000
00F81F8000
03E007E000
07C001F000
0F8000F800
1F0000F800
1F00007C00
3E00007E00
3E00003E00
7E00003F00
7C00003F00
FC00001F00
FC00001F00
FC00001F80
FC00001F80
FC00001F80
FC00001F80
FC00001F80
FC00001F80
FC00001F80
FC00001F00
7C00003F00
7E00003F00
7E00003F00
3E00003E00
3F00007E00
1F00007C00
0F8000F800
0F8001F000
07C003E000
01F007C000
00FF7F8000
003FFC0000
ENDCHAR
STARTCHAR 022D
ENCODING 557
SWIDTH 500 0
DWIDTH 25 0
BBX 23 36 1 0
BITMAP
0FFFF0
0FFFF0
0FFFF0
000000
000000
000020
07E060
0FFCE0
1DFFC0
183F80
000000
000000
000000
03FF00
0707C0
1E03E0
1C01F0
3800F8
780078
78007C
F8007C
F8003C
F8003C
F8003E
F8003E
F8003E
F8003C
F8003C
78003C
7C003C
7C0078
3E0070
1E00F0
0F00E0
07C3C0
03FF00
ENDCHAR
STARTCHAR 022E
ENCODING 558
SWIDTH 720 0
DWIDTH 36 0
BBX 33 41 2 1
BITMAP
0003C00000
0003E00000
0003E00000
0003C00000
0000000000
0000000000
0000000000
0007F00000
007FFE0000
00F81F8000
03E007E000
07C001F000
0F8000F800
1F0000F800
1F00007C00
3E00007E00
3E00003E00
7E00003F00
7C00003F00
FC00001F00
FC00001F00
FC00001F80
FC00001F80
FC00001F80
FC00001F80
FC00001F80
FC00001F80
FC00001F80
FC00001F00
7C00003F00
7E00003F00
7E00003F00
3E00003E00
3F00007E00
1F00007C00
0F8000F800
0F8001F000
07C003E000
01F007C000
00FF7F8000
003FFC0000
ENDCHAR
STARTCHAR 022F
ENCODING 559
SWIDTH 500 0
DWIDTH 25 0
BBX 23 31 1 0
BITMAP
003800
007C00
007C00
007C00
003800
000000
000000
000000
03FF00
0707C0
1E03E0
1C01F0
3800F8
780078
78007C
F8007C
F8003C
F8003C
F8003E
F8003E
F8003E
F8003C
F8003C
78003C
7C003C
7C0078
3E0070
1E00F0
0F00E0
07C3C0
03FF00
ENDCHAR
STARTCHAR 0230
ENCODING 560
SWIDTH 720 0
DWIDTH 36 0
BBX 33 45 2 0
BITMAP
007FFF8000
007FFF8000
007FFF8000
0000000000
0000000000
0003C00000
0003E00000
0003E00000
0003C00000
0001800000
0000000000
0007F00000
007FFE0000
00F81F8000
03E007E000
07C001F000
0F8000F800
1F0000F800
1F00007C00
3E00007E00
3E00003E00
7E00003F00
7C00003F00
FC00001F00
FC00001F00
FC00001F80
FC00001F80
FC00001F80
FC00001F80
FC00001F80
FC00001F80
FC00001F80
FC00001F00
7C00003F00
7E00003F00
7E00003F00
3E00003E00
3F00007E00
1F00007C00
0F8000F800
0F8001F000
07C003E000
01F007C000
00FF7F8000
003FFC0000
ENDCHAR
STARTCHAR 0231
ENCODING 561
SWIDTH 500 0
DWIDTH 25 0
BBX 23 36 1 0
BITMAP
0FFFF0
0FFFF0
0FFFF0
000000
000000
000000
003C00
007C00
007C00
003C00
001800
000000
000000
03FF00
0707C0
1E03E0
1C01F0
3800F8
780078
78007C
F8007C
F8003C
F8003C
F8003E
F8003E
F8003E
F8003C
F8003C
78003C
7C003C
7C0078
3E0070
1E00F0
0F00E0
07C3C0
03FF00
ENDCHAR
STARTCHAR 0232
ENCODING 562
SWIDTH 700 0
DWIDTH 35 0
BBX 34 39 0 0
BITMAP
000FFFF000
000FFFF000
000FFFF000
0000000000
0000000000
0000000000
FFFC01FFC0
3FF0003F00
0FE0001E00
07E0001C00
07F0003800
03F0003000
01F8007000
00FC00E000
00FC00C000
007E01C000
003F038000
003F030000
001F870000
000FCE0000
000FCC0000
0007FC0000
0003F80000
0003F00000
0001F00000
0001F00000
0001F00000
0001F00000
0001F00000
0001F00000
0001F00000
0001F00000
0001F00000
0001F00000
0001F00000
0001F00000
0003F80000
0007FC0000
003FFF8000
ENDCHAR
STARTCHAR 0233
ENCODING 563
SWIDTH 480 0
DWIDTH 24 0
BBX 23 40 0 -11
BITMAP
03FFFC
03FFFC
03FFFC
000000
000000
000000
FFE07E
3F001C
1F0018
1F0018
0F0030
0F8030
078030
07C060
07C060
03C060
03E0C0
01E0C0
01F0C0
00F180
00F980
007900
007F00
003F00
003E00
003E00
001E00
001C00
000C00
001C00
001800
001800
003000
003000
007000
006000
3FC000
7FC000
7F8000
3F0000
ENDCHAR
STARTCHAR 0234
ENCODING 564
SWIDTH 400 0
DWIDTH 20 0
BBX 18 49 2 -15
BITMAP
060000
3E0000
FE0000
3E0000
1E0000
1E0000
1E0000
1E0000
1E0000
1E0000
1E0000
1E0000
1E0000
1E0000
1E0000
1E0000
1E0000
1E0000
1E0000
1E0000
1E0000
1E0000
1E0000
1E0000
1E0000
1E0000
1E0000
1E0000
1E0000
1E0000
1E0000
1E0000
1E0000
1E0000
1E7E00
1FC300
1F0180
1E00C0
1E0040
1E0040
1E0040
1E0040
3700C0
278180
61C300
407E00
400000
C00000
800000
ENDCHAR
STARTCHAR 0235
ENCODING 565
SWIDTH 600 0
DWIDTH 30 0
BBX 28 35 1 -11
BITMAP
1E1FC000
FE7FE000
3EE3E000
1F81F000
1F00F000
1E00F000
1E00F000
1E00F000
1E00F000
1E00F000
1E00F000
1E00F000
1E00F000
1E00F000
1E00F000
1E00F000
1E00F000
1E00F000
1E00F000
1E00F000
1E00F000
3E00F000
FE00F000
0000FF00
0003FFC0
000FF040
0038F060
00E0F020
0180F030
0600F030
00007820
00007860
00003CE0
00003FC0
00000F80
ENDCHAR
STARTCHAR 0236
ENCODING 566
SWIDTH 380 0
DWIDTH 19 0
BBX 17 44 1 -15
BITMAP
040000
040000
0C0000
1C0000
1C0000
3C0000
7FE000
FC0000
3C0000
3C0000
3C0000
3C0000
3C0000
3C0000
3C0000
3C0000
3C0000
3C0000
3C0000
3C0000
3C0000
3C0000
3C0000
3C0000
3C0000
3C0000
3C0000
3C0000
3C0000
3CFC00
3F8600
3E0300
3C0180
3C0080
3C0080
3C0080
3C0080
2E0180
4F0300
438600
40FC00
C00000
800000
800000
ENDCHAR
STARTCHAR 0237
ENCODING 567
SWIDTH 340 0
DWIDTH 17 0
BBX 13 34 0 -10
BITMAP
0038
00F8
03F8
0078
0078
0078
0078
0078
0078
0078
0078
0078
0078
0078
0078
0078
0078
0078
0078
0078
0078
0078
0078
0078
0078
0078
0078
0078
0078
0070
7070
F8E0
FCC0
7F80
ENDCHAR
STARTCHAR 0238
ENCODING 568
SWIDTH 780 0
DWIDTH 39 0
BBX 36 34 1 0
BITMAP
0000300000
0001F00000
0007F00000
0000F00000
0000F00000
0000F00000
0000F00000
0000F00000
0000F00000
0000F00000
0000F00000
03FCF1FE00
0707F3FF80
0E03F7FFC0
1C01FC07C0
3800F803E0
3800F003E0
7800F001F0
7000F001F0
F000F000F0
F000F000F0
F000F000F0
F000F000F0
F000F000F0
F000F000F0
F800F000F0
F800F000E0
7800F000E0
7C00F001C0
7E00F001C0
3F01F00380
1F87F80700
0FFE7C0E00
07F81FF800
ENDCHAR
STARTCHAR 0239
ENCODING 569
SWIDTH 760 0
DWIDTH 38 0
BBX 36 34 1 -10
BITMAP
01FE30FE00
0783F3FF80
0E01F7FFC0
1C00FC07C0
3C00F803E0
3800F003E0
7800F001F0
7800F001F0
F000F000F0
F000F000F0
F000F000F0
F000F000F0
F000F000F0
F000F000F0
F800F000F0
F800F000E0
F800F001E0
7C00F001E0
7E00F001C0
3F03F80380
3FFEF80700
1FFCFE0E00
0FF0F3FC00
0000F00000
0000F00000
0000F00000
0000F00000
0000F00000
0000F00000
0000F00000
0000F00000
0000F80000
0003F80000
000FFF0000
ENDCHAR
STARTCHAR 023A
ENCODING 570
SWIDTH 720 0
DWIDTH 36 0
BBX 34 38 1 -2
BITMAP
0000000600
0000000E00
0000800C00
0000C01800
0001C03800
0001E03000
0001E06000
0003F0E000
0003F0C000
0007F18000
0006FB8000
000EFB0000
000C7E0000
000C7E0000
00183E0000
00183E0000
00383F0000
00303F0000
00307F0000
0060EF8000
0060CF8000
00C187C000
00C387C000
01FFFFE000
01FFFFE000
018E03F000
030C01F000
031C01F000
073801F800
063000F800
0E7000FC00
0CE0007C00
1CC0007E00
1DC0007E00
3F8000FF00
FFC003FFC0
0700000000
0600000000
ENDCHAR
STARTCHAR 023B
ENCODING 571
SWIDTH 680 0
DWIDTH 34 0
BBX 30 38 2 -2
BITMAP
00000060
000000E0
0007F8C8
003FFFB8
00FC07F8
03F003F8
07C006F8
0F800E78
1F800C38
1F001818
3E003818
3E003008
7E006008
7C00E000
7C00C000
FC018000
FC038000
FC030000
FC070000
FC0E0000
FC0C0000
FC1C0000
FC380000
FC300000
7C700000
7EE00000
7EC00000
3FC00000
3F800000
1F000000
1F80000C
0FC00038
0FE00070
1DF801E0
18FFFF80
303FFE00
70000000
60000000
ENDCHAR
STARTCHAR 023C
ENCODING 572
SWIDTH 440 0
DWIDTH 22 0
BBX 19 28 1 -2
BITMAP
000060
0000E0
0000C0
01FF80
070780
0E07C0
1C07C0
3807E0
780FE0
700DC0
701800
F03800
F03000
F07000
F06000
F0C000
F0C000
F98000
FB8020
7F0020
7F0040
7E00C0
3FC380
1FFF00
1FFE00
3FF800
300000
600000
ENDCHAR
STARTCHAR 023D
ENCODING 573
SWIDTH 620 0
DWIDTH 31 0
BBX 29 33 1 0
BITMAP
FFF80000
3FE00000
0FC00000
0F800000
0F800000
0F800000
0F800000
0F800000
0F800000
0F800000
FFFE0000
FFFE0000
FFFE0000
0F800000
0F800000
0F800000
0F800000
0F800000
0F800000
0F800000
0F800000
0F800000
0F800000
0F800000
0F800008
0F800018
0F800018
0F800030
0F800070
0F8000F0
0FC003F0
3FFFFFE0
FFFFFFE0
ENDCHAR
STARTCHAR 023E
ENCODING 574
SWIDTH 600 0
DWIDTH 30 0
BBX 28 38 1 -2
BITMAP
00000070
000000E0
000000C0
FFFFFFF0
FFFFFFF0
F81F03F0
E01F0770
C01F0630
C01F0C30
C01F1C10
801F3810
001F3000
001F7000
001FE000
001FC000
001FC000
001F8000
001F0000
001F0000
001F0000
001F0000
001F0000
003F0000
003F0000
007F0000
007F0000
00DF0000
01DF0000
019F0000
031F0000
031F0000
061F0000
0E1F0000
0C1F0000
187F8000
19FFF000
30000000
70000000
ENDCHAR
STARTCHAR 023F
ENCODING 575
SWIDTH 380 0
DWIDTH 19 0
BBX 14 33 2 -9
BITMAP
1FF8
3078
6038
E018
E018
E008
F008
F800
7C00
7F00
3F80
1FE0
07F0
03F8
00FC
807C
803C
C01C
C01C
C01C
E018
F030
FFE0
0400
0400
0600
0600
0200
021C
023C
013C
019C
00F0
ENDCHAR
STARTCHAR 0240
ENCODING 576
SWIDTH 440 0
DWIDTH 22 0
BBX 19 33 2 -10
BITMAP
7FFFE0
7C07C0
600F80
400F80
401F00
403E00
003E00
007C00
00FC00
00F800
01F000
01F000
03E000
07C000
07C000
0F8000
1F0000
1F0000
3E0000
7C0000
7C0000
F80000
FF0000
038000
00C000
00C000
006000
002000
0031E0
0019E0
0019E0
000FC0
000780
ENDCHAR
STARTCHAR 0241
ENCODING 577
SWIDTH 420 0
DWIDTH 21 0
BBX 19 33 1 1
BITMAP
1FF000
7C3C00
F80E00
F80700
F00380
7003C0
0001C0
0001C0
0001E0
0001E0
0001E0
0001E0
0001E0
0003E0
0003E0
0007C0
0007C0
000F80
003F80
07FF00
07FE00
07FC00
07F000
078000
078000
078000
078000
078000
078000
078000
078000
0FC000
3FF000
ENDCHAR
STARTCHAR 0242
ENCODING 578
SWIDTH 420 0
DWIDTH 21 0
BBX 19 23 1 1
BITMAP
1FF800
7C1E00
F80700
F80380
F003C0
7001C0
0001E0
0001E0
0001E0
0001E0
0003E0
0003C0
0007C0
001F80
07FF00
07FE00
07F800
078000
078000
078000
078000
0FC000
3FF000
ENDCHAR
STARTCHAR 0243
ENCODING 579
SWIDTH 620 0
DWIDTH 31 0
BBX 29 33 1 0
BITMAP
FFFFE000
1FFFFE00
07C07F00
07C00F80
07C007C0
07C007E0
07C003E0
07C003E0
07C003E0
07C003E0
07C003E0
07C003E0
07C007C0
07C00F80
07C03F00
07FFFC00
07FFFC00
07C07F80
07C00FC0
07C007E0
FFFE03F0
FFFE03F0
FFFE01F8
07C001F8
07C001F8
07C001F8
07C001F0
07C003F0
07C003E0
07C007E0
07C03FC0
0FFFFF00
FFFFF800
ENDCHAR
STARTCHAR 0244
ENCODING 580
SWIDTH 720 0
DWIDTH 36 0
BBX 33 33 1 0
BITMAP
FFF801FF80
3FE0007E00
0F80003C00
0F80001800
0F80001800
0F80001800
0F80001800
0F80001800
0F80001800
0F80001800
FFFFFFFF80
FFFFFFFF80
FFFFFFFF80
0F80001800
0F80001800
0F80001800
0F80001800
0F80001800
0F80001800
0F80001800
0F80001800
0F80001800
0F80001800
0F80001800
0F80001800
0FC0001800
07C0003000
07C0003000
03E0006000
03F000E000
01F803C000
00FFFF8000
003FFE0000
ENDCHAR
STARTCHAR 0245
ENCODING 581
SWIDTH 700 0
DWIDTH 35 0
BBX 35 34 0 0
BITMAP
0000800000
0000800000
0001C00000
0001C00000
0001E00000
0003E00000
0003F00000
0007F00000
0007F80000
0006F80000
000EF80000
000CFC0000
001C7C0000
001C7E0000
00183E0000
00383F0000
00301F0000
00701F8000
00700F8000
00600F8000
00E00FC000
00C007C000
01C007E000
01C003E000
018003F000
038001F000
030001F800
070000F800
070000FC00
060000FC00
0E00007E00
0E00007E00
1F0000FF00
FFE007FFE0
ENDCHAR
STARTCHAR 0246
ENCODING 582
SWIDTH 620 0
DWIDTH 31 0
BBX 29 38 1 -2
BITMAP
000001C0
00000180
00000380
FFFFFFC0
3FFFFFC0
0F8007C0
0F8007C0
0F800CC0
0F800C40
0F801C40
0F801800
0F803800
0F803000
0F803200
0F807200
0F806600
0F80E600
0F80DE00
0FFFFE00
0FFFFE00
0F818E00
0F838600
0F830200
0F870200
0F860000
0F860000
0F8E0000
0F8C0000
0F9C0018
0F980030
0FB80030
0FB00070
0FB000F0
0FF003E0
3FFFFFE0
FFFFFFE0
00C00000
01C00000
ENDCHAR
STARTCHAR 0247
ENCODING 583
SWIDTH 440 0
DWIDTH 22 0
BBX 20 29 1 -3
BITMAP
000300
000600
000600
03FE00
07BF00
1C1F80
181FC0
381FC0
703BE0
7033E0
7073E0
FFFFE0
F0E000
F0C000
F0C000
F1C000
F18000
FB8000
FB0010
7F0030
7E0060
7E00C0
3FC3C0
1FFF80
1FFF00
1FFC00
380000
300000
700000
ENDCHAR
STARTCHAR 0248
ENCODING 584
SWIDTH 380 0
DWIDTH 19 0
BBX 17 33 1 0
BITMAP
0FFF80
01FE00
00F800
00F800
00F800
00F800
00F800
00F800
00F800
00F800
00FF80
0FFF80
00F800
00F800
00F800
00F800
00F800
00F800
00F800
00F800
00F800
00F800
00F800
00F800
00F800
00F800
00F800
00F800
70F000
F8F000
F8E000
FDC000
7F8000
ENDCHAR
STARTCHAR 0249
ENCODING 585
SWIDTH 360 0
DWIDTH 18 0
BBX 17 45 0 -11
BITMAP
007000
00F800
00F800
00F800
007000
000000
000000
000000
000000
000000
000000
003800
00F800
03F800
007800
007800
007800
007800
007800
007800
3FFF80
3FFF80
3FFF80
007800
007800
007800
007800
007800
007800
007800
007800
007800
007800
007800
007800
007800
007800
007800
007800
007800
007000
707000
F8E000
FDC000
7F8000
ENDCHAR
STARTCHAR 024A
ENCODING 586
SWIDTH 760 0
DWIDTH 38 0
BBX 36 43 2 -9
BITMAP
001FF83000
007E7E7000
01F00FF000
03C007F000
078003F000
0F0001F000
1E0001F000
1E0001F000
3C0001F000
3C0001F000
7C0001F000
7C0001F000
780001F000
F80001F000
F80001F000
F80001F000
F80001F000
F80001F000
F80001F000
FC0001F000
FC0001F000
FC0001F000
FC0001F000
7E0001F000
7E0001F000
7F0001F000
7F8003F000
3FC003F000
1FE00FF000
1FF83DF000
0FFFF9F000
07FFF1F000
03FFC1F000
00FE01F000
000001F000
000001F000
000001F000
000001F000
000000F8F0
000000F8F0
0000007CF0
0000003FF0
0000000FC0
ENDCHAR
STARTCHAR 024B
ENCODING 587
SWIDTH 560 0
DWIDTH 28 0
BBX 27 35 1 -11
BITMAP
00780000
03FE3000
0783F000
0E01F000
1C00F000
3C00F000
3800F000
7800F000
7800F000
F000F000
F000F000
F000F000
F000F000
F000F000
F000F000
F800F000
F800F000
F800F000
7C00F000
7E00F000
3F03F000
3FFEF000
1FFCF000
0FF0F000
0000F000
0000F000
0000F000
0000F000
0000F000
0000F000
0000F1E0
000079E0
000079E0
00003CE0
00000F80
ENDCHAR
STARTCHAR 024C
ENCODING 588
SWIDTH 660 0
DWIDTH 33 0
BBX 32 33 1 0
BITMAP
FFFFE000
3FFFFC00
0F80FF00
0F801F80
0F800F80
0F800FC0
0F8007C0
0F8007C0
0F8007C0
0F8007C0
0F8007C0
0F800FC0
0F800F80
FFFFFF80
FFFFFF00
FFFFFC00
0FFFE000
0F8FC000
0F87E000
0F83E000
0F81F000
0F81F800
0F80FC00
0F807E00
0F803F00
0F803F00
0F801F80
0F800FC0
0F8007E0
0F8007F0
0F8003F8
3FE001FC
FFF800FF
ENDCHAR
STARTCHAR 024D
ENCODING 589
SWIDTH 340 0
DWIDTH 17 0
BBX 16 23 1 1
BITMAP
0E3F
7E7F
FEFF
1E80
1F00
1F00
1E00
1E00
1E00
1FFC
FFFC
1E00
1E00
1E00
1E00
1E00
1E00
1E00
1E00
1E00
1F00
3F80
FFE0
ENDCHAR
STARTCHAR 024E
ENCODING 590
SWIDTH 700 0
DWIDTH 35 0
BBX 33 33 1 0
BITMAP
FFFC03FF80
3FE0007E00
1FC0003800
0FC0007000
07E0006000
03F000E000
FFFFFFFF80
FFFFFFFF80
FFFFFFFF80
00FC030000
007E070000
003E0E0000
003F0C0000
001F9C0000
000F980000
000FF00000
0007F00000
0003E00000
0003E00000
0003E00000
0003E00000
0003E00000
0003E00000
0003E00000
0003E00000
0003E00000
0003E00000
0003E00000
0003E00000
0003E00000
0007F00000
000FF80000
007FFF0000
ENDCHAR
ENDFONT
